<svg width="18" height="26" viewBox="0 0 18 26" fill="none" xmlns="http://www.w3.org/2000/svg">
<g clip-path="url(#clip0_518_8189)">
<path d="M15.25 12.667C15.25 16.347 12.45 19.3337 9 19.3337C5.55 19.3337 2.75 16.347 2.75 12.667H0.25C0.25 17.3737 3.5125 21.2403 7.75 21.8937V26.0003H10.25V21.8937C14.4875 21.2403 17.75 17.3737 17.75 12.667H15.25Z" fill="black"/>
<path d="M9 16.667C11.075 16.667 12.75 14.8803 12.75 12.667V4.66699C12.75 2.45366 11.075 0.666992 9 0.666992C6.925 0.666992 5.25 2.45366 5.25 4.66699V12.667C5.25 14.8803 6.925 16.667 9 16.667ZM7.75 4.66699C7.75 3.93366 8.3125 3.33366 9 3.33366C9.6875 3.33366 10.25 3.93366 10.25 4.66699V12.667C10.25 13.4003 9.6875 14.0003 9 14.0003C8.3125 14.0003 7.75 13.4003 7.75 12.667V4.66699Z" fill="black"/>
<path d="M9 16.667C11.075 16.667 12.75 14.8803 12.75 12.667V4.66699C12.75 2.45366 11.075 0.666992 9 0.666992C6.925 0.666992 5.25 2.45366 5.25 4.66699V12.667C5.25 14.8803 6.925 16.667 9 16.667Z" fill="black"/>
</g>
<defs>
<clipPath id="clip0_518_8189">
<rect width="18" height="26" fill="white"/>
</clipPath>
</defs>
</svg>
