<svg width="152" height="36" viewBox="0 0 152 36" fill="none" xmlns="http://www.w3.org/2000/svg">
<rect x="1.94872" y="1.94872" width="139.367" height="31.4617" rx="15.7309" fill="url(#paint0_linear_1_28770)" stroke="black" stroke-width="3.89744"/>
<path d="M42.6094 2.18555H47.0611H51.5129H56.6006H60.5203C61.2962 2.18555 62.0693 2.27822 62.8232 2.4616L63.6463 2.66181C64.9828 2.98692 66.2179 3.63848 67.2407 4.55813V4.55813C67.6057 4.88629 67.9409 5.24611 68.2425 5.63339L69.2593 6.93944C69.6824 7.4829 70.041 8.07367 70.3278 8.69988V8.69988C70.86 9.86193 71.1354 11.125 71.1354 12.4032V13.2597V15.154V18.4012V21.5583V25.0762V25.0762C71.1354 27.4392 72.3302 29.642 74.3109 30.9308L74.701 31.1846C75.7616 31.8746 76.9734 32.2979 78.233 32.4181L82.0392 32.7814L94.1225 33.3278" stroke="black" stroke-width="3.2"/>
<path d="M23.9043 16.6154H23.132C23.0863 16.3932 23.0064 16.1981 22.8922 16.0299C22.7801 15.8618 22.6431 15.7206 22.4812 15.6064C22.3213 15.4902 22.1438 15.403 21.9486 15.3448C21.7535 15.2867 21.55 15.2576 21.3383 15.2576C20.9521 15.2576 20.6023 15.3552 20.2888 15.5504C19.9774 15.7455 19.7293 16.0331 19.5446 16.413C19.3619 16.7929 19.2705 17.259 19.2705 17.8112C19.2705 18.3634 19.3619 18.8295 19.5446 19.2094C19.7293 19.5893 19.9774 19.8769 20.2888 20.072C20.6023 20.2672 20.9521 20.3647 21.3383 20.3647C21.55 20.3647 21.7535 20.3357 21.9486 20.2775C22.1438 20.2194 22.3213 20.1332 22.4812 20.0191C22.6431 19.9028 22.7801 19.7606 22.8922 19.5924C23.0064 19.4222 23.0863 19.2271 23.132 19.007H23.9043C23.8462 19.3329 23.7403 19.6246 23.5866 19.882C23.433 20.1395 23.242 20.3585 23.0137 20.5391C22.7853 20.7177 22.5289 20.8536 22.2445 20.9471C21.9621 21.0405 21.6601 21.0872 21.3383 21.0872C20.7944 21.0872 20.3106 20.9543 19.8871 20.6886C19.4636 20.4229 19.1304 20.045 18.8875 19.5551C18.6446 19.0651 18.5232 18.4838 18.5232 17.8112C18.5232 17.1385 18.6446 16.5573 18.8875 16.0673C19.1304 15.5774 19.4636 15.1995 19.8871 14.9338C20.3106 14.6681 20.7944 14.5352 21.3383 14.5352C21.6601 14.5352 21.9621 14.5819 22.2445 14.6753C22.5289 14.7687 22.7853 14.9058 23.0137 15.0864C23.242 15.2649 23.433 15.4829 23.5866 15.7403C23.7403 15.9957 23.8462 16.2874 23.9043 16.6154ZM26.9958 21.0997C26.564 21.0997 26.1851 20.9969 25.8591 20.7914C25.5353 20.5858 25.282 20.2983 25.0993 19.9288C24.9187 19.5592 24.8284 19.1274 24.8284 18.6333C24.8284 18.1351 24.9187 17.7001 25.0993 17.3285C25.282 16.9569 25.5353 16.6683 25.8591 16.4628C26.1851 16.2573 26.564 16.1545 26.9958 16.1545C27.4276 16.1545 27.8054 16.2573 28.1293 16.4628C28.4552 16.6683 28.7085 16.9569 28.8891 17.3285C29.0718 17.7001 29.1632 18.1351 29.1632 18.6333C29.1632 19.1274 29.0718 19.5592 28.8891 19.9288C28.7085 20.2983 28.4552 20.5858 28.1293 20.7914C27.8054 20.9969 27.4276 21.0997 26.9958 21.0997ZM26.9958 20.4395C27.3238 20.4395 27.5937 20.3554 27.8054 20.1872C28.0172 20.0191 28.1739 19.798 28.2757 19.5239C28.3774 19.2499 28.4283 18.953 28.4283 18.6333C28.4283 18.3136 28.3774 18.0157 28.2757 17.7396C28.1739 17.4635 28.0172 17.2403 27.8054 17.07C27.5937 16.8998 27.3238 16.8147 26.9958 16.8147C26.6678 16.8147 26.3979 16.8998 26.1861 17.07C25.9744 17.2403 25.8176 17.4635 25.7159 17.7396C25.6142 18.0157 25.5633 18.3136 25.5633 18.6333C25.5633 18.953 25.6142 19.2499 25.7159 19.5239C25.8176 19.798 25.9744 20.0191 26.1861 20.1872C26.3979 20.3554 26.6678 20.4395 26.9958 20.4395ZM31.0199 18.1226V21H30.285V16.2168H30.995V16.9642H31.0573C31.1694 16.7213 31.3397 16.5261 31.568 16.3787C31.7964 16.2292 32.0912 16.1545 32.4524 16.1545C32.7763 16.1545 33.0597 16.2209 33.3026 16.3538C33.5455 16.4846 33.7344 16.6839 33.8693 16.9517C34.0043 17.2174 34.0717 17.5538 34.0717 17.9607V21H33.3368V18.0105C33.3368 17.6347 33.2392 17.342 33.0441 17.1323C32.8489 16.9206 32.5811 16.8147 32.2407 16.8147C32.0061 16.8147 31.7964 16.8655 31.6116 16.9673C31.4289 17.069 31.2846 17.2174 31.1788 17.4126C31.0729 17.6077 31.0199 17.8444 31.0199 18.1226ZM36.1496 18.1226V21H35.4147V16.2168H36.1247V16.9642H36.187C36.2991 16.7213 36.4693 16.5261 36.6977 16.3787C36.926 16.2292 37.2208 16.1545 37.5821 16.1545C37.9059 16.1545 38.1893 16.2209 38.4322 16.3538C38.6751 16.4846 38.864 16.6839 38.999 16.9517C39.1339 17.2174 39.2014 17.5538 39.2014 17.9607V21H38.4665V18.0105C38.4665 17.6347 38.3689 17.342 38.1737 17.1323C37.9786 16.9206 37.7108 16.8147 37.3703 16.8147C37.1357 16.8147 36.926 16.8655 36.7413 16.9673C36.5586 17.069 36.4143 17.2174 36.3084 17.4126C36.2025 17.6077 36.1496 17.8444 36.1496 18.1226ZM42.5498 21.0997C42.0889 21.0997 41.6914 20.9979 41.3571 20.7945C41.0249 20.5889 40.7685 20.3024 40.5879 19.935C40.4094 19.5655 40.3201 19.1357 40.3201 18.6458C40.3201 18.1558 40.4094 17.724 40.5879 17.3503C40.7685 16.9745 41.0197 16.6818 41.3415 16.4721C41.6654 16.2604 42.0432 16.1545 42.4751 16.1545C42.7242 16.1545 42.9702 16.196 43.2131 16.2791C43.456 16.3621 43.6771 16.497 43.8764 16.6839C44.0757 16.8687 44.2345 17.1136 44.3528 17.4188C44.4712 17.724 44.5303 18.0998 44.5303 18.5461V18.8575H40.8433V18.2222H43.783C43.783 17.9524 43.729 17.7115 43.621 17.4998C43.5152 17.288 43.3636 17.1209 43.1664 16.9984C42.9712 16.8759 42.7408 16.8147 42.4751 16.8147C42.1823 16.8147 41.9291 16.8873 41.7152 17.0327C41.5035 17.1759 41.3405 17.3628 41.2263 17.5932C41.1121 17.8236 41.055 18.0707 41.055 18.3344V18.7579C41.055 19.1191 41.1173 19.4253 41.2419 19.6765C41.3685 19.9256 41.544 20.1156 41.7682 20.2464C41.9924 20.3751 42.2529 20.4395 42.5498 20.4395C42.7429 20.4395 42.9173 20.4125 43.073 20.3585C43.2307 20.3024 43.3667 20.2194 43.4809 20.1094C43.5951 19.9973 43.6833 19.8582 43.7456 19.6921L44.4556 19.8914C44.3809 20.1322 44.2553 20.344 44.0788 20.5267C43.9023 20.7073 43.6844 20.8484 43.4249 20.9502C43.1653 21.0498 42.8737 21.0997 42.5498 21.0997ZM47.5915 21.0997C47.1431 21.0997 46.7569 20.9938 46.433 20.782C46.1092 20.5703 45.8601 20.2786 45.6857 19.907C45.5113 19.5353 45.4241 19.1108 45.4241 18.6333C45.4241 18.1475 45.5134 17.7188 45.6919 17.3472C45.8725 16.9735 46.1237 16.6818 46.4455 16.4721C46.7694 16.2604 47.1472 16.1545 47.579 16.1545C47.9153 16.1545 48.2184 16.2168 48.4883 16.3413C48.7582 16.4659 48.9793 16.6403 49.1516 16.8645C49.3239 17.0887 49.4309 17.3503 49.4724 17.6493H48.7375C48.6814 17.4313 48.5568 17.2382 48.3638 17.07C48.1728 16.8998 47.9153 16.8147 47.5915 16.8147C47.305 16.8147 47.0538 16.8894 46.8379 17.0389C46.624 17.1863 46.4569 17.3949 46.3365 17.6648C46.2182 17.9326 46.159 18.2472 46.159 18.6084C46.159 18.9779 46.2171 19.2997 46.3334 19.5738C46.4517 19.8478 46.6178 20.0606 46.8316 20.2121C47.0476 20.3637 47.3008 20.4395 47.5915 20.4395C47.7825 20.4395 47.9558 20.4062 48.1115 20.3398C48.2672 20.2734 48.3991 20.1779 48.507 20.0533C48.615 19.9288 48.6918 19.7793 48.7375 19.6049H49.4724C49.4309 19.8872 49.3281 20.1416 49.1641 20.3678C49.0022 20.5921 48.7873 20.7706 48.5195 20.9035C48.2537 21.0343 47.9444 21.0997 47.5915 21.0997ZM52.6269 16.2168V16.8396H50.1481V16.2168H52.6269ZM50.8706 15.0708H51.6055V19.6298C51.6055 19.8374 51.6356 19.9931 51.6958 20.0969C51.7581 20.1986 51.837 20.2672 51.9325 20.3024C52.0301 20.3357 52.1328 20.3523 52.2408 20.3523C52.3218 20.3523 52.3882 20.3481 52.4401 20.3398C52.492 20.3294 52.5335 20.3211 52.5647 20.3149L52.7141 20.9751C52.6643 20.9938 52.5948 21.0125 52.5055 21.0311C52.4162 21.0519 52.3031 21.0623 52.1661 21.0623C51.9585 21.0623 51.755 21.0176 51.5557 20.9284C51.3585 20.8391 51.1945 20.7031 51.0637 20.5204C50.935 20.3377 50.8706 20.1073 50.8706 19.8291V15.0708Z" fill="#030303"/>
<path d="M87.7731 15.7128H87.0179C86.9733 15.4956 86.8951 15.3048 86.7835 15.1404C86.6739 14.976 86.5399 14.8379 86.3816 14.7263C86.2253 14.6126 86.0517 14.5274 85.8609 14.4705C85.6701 14.4137 85.4712 14.3853 85.2641 14.3853C84.8865 14.3853 84.5445 14.4807 84.238 14.6715C83.9335 14.8623 83.6909 15.1434 83.5103 15.5149C83.3316 15.8864 83.2423 16.3421 83.2423 16.8821C83.2423 17.422 83.3316 17.8777 83.5103 18.2492C83.6909 18.6207 83.9335 18.9018 84.238 19.0926C84.5445 19.2834 84.8865 19.3788 85.2641 19.3788C85.4712 19.3788 85.6701 19.3504 85.8609 19.2936C86.0517 19.2368 86.2253 19.1525 86.3816 19.0409C86.5399 18.9272 86.6739 18.7881 86.7835 18.6237C86.8951 18.4573 86.9733 18.2665 87.0179 18.0513H87.7731C87.7162 18.37 87.6127 18.6552 87.4625 18.9069C87.3123 19.1586 87.1255 19.3728 86.9022 19.5494C86.679 19.7239 86.4283 19.8569 86.1502 19.9482C85.8741 20.0396 85.5787 20.0853 85.2641 20.0853C84.7323 20.0853 84.2593 19.9553 83.8452 19.6955C83.4311 19.4357 83.1053 19.0662 82.8678 18.5872C82.6303 18.1081 82.5115 17.5397 82.5115 16.8821C82.5115 16.2244 82.6303 15.656 82.8678 15.1769C83.1053 14.6979 83.4311 14.3284 83.8452 14.0686C84.2593 13.8088 84.7323 13.6788 85.2641 13.6788C85.5787 13.6788 85.8741 13.7245 86.1502 13.8159C86.4283 13.9072 86.679 14.0412 86.9022 14.2178C87.1255 14.3924 87.3123 14.6055 87.4625 14.8572C87.6127 15.1069 87.7162 15.3921 87.7731 15.7128ZM90.7959 20.0974C90.3737 20.0974 90.0032 19.997 89.6845 19.796C89.3678 19.595 89.1202 19.3139 88.9415 18.9526C88.7649 18.5912 88.6766 18.169 88.6766 17.6859C88.6766 17.1987 88.7649 16.7735 88.9415 16.4101C89.1202 16.0467 89.3678 15.7646 89.6845 15.5636C90.0032 15.3627 90.3737 15.2622 90.7959 15.2622C91.2181 15.2622 91.5875 15.3627 91.9042 15.5636C92.2229 15.7646 92.4706 16.0467 92.6472 16.4101C92.8258 16.7735 92.9151 17.1987 92.9151 17.6859C92.9151 18.169 92.8258 18.5912 92.6472 18.9526C92.4706 19.3139 92.2229 19.595 91.9042 19.796C91.5875 19.997 91.2181 20.0974 90.7959 20.0974ZM90.7959 19.4519C91.1166 19.4519 91.3805 19.3697 91.5875 19.2053C91.7946 19.0409 91.9478 18.8247 92.0473 18.5567C92.1468 18.2888 92.1965 17.9985 92.1965 17.6859C92.1965 17.3733 92.1468 17.082 92.0473 16.812C91.9478 16.542 91.7946 16.3238 91.5875 16.1574C91.3805 15.9909 91.1166 15.9077 90.7959 15.9077C90.4751 15.9077 90.2113 15.9909 90.0042 16.1574C89.7972 16.3238 89.6439 16.542 89.5444 16.812C89.445 17.082 89.3952 17.3733 89.3952 17.6859C89.3952 17.9985 89.445 18.2888 89.5444 18.5567C89.6439 18.8247 89.7972 19.0409 90.0042 19.2053C90.2113 19.3697 90.4751 19.4519 90.7959 19.4519ZM94.7306 13.7641V20H94.012V13.7641H94.7306ZM96.7653 13.7641V20H96.0468V13.7641H96.7653ZM99.4578 20.1096C99.1614 20.1096 98.8924 20.0538 98.6509 19.9421C98.4093 19.8285 98.2175 19.6651 98.0754 19.4519C97.9333 19.2368 97.8623 18.9769 97.8623 18.6724C97.8623 18.4045 97.915 18.1873 98.0206 18.0208C98.1261 17.8524 98.2672 17.7204 98.4438 17.625C98.6204 17.5296 98.8153 17.4585 99.0284 17.4119C99.2436 17.3631 99.4598 17.3246 99.677 17.2962C99.9612 17.2596 100.192 17.2322 100.368 17.2139C100.547 17.1936 100.677 17.1601 100.758 17.1135C100.841 17.0668 100.883 16.9856 100.883 16.8699V16.8455C100.883 16.5451 100.801 16.3116 100.636 16.1452C100.474 15.9787 100.227 15.8955 99.8962 15.8955C99.5532 15.8955 99.2842 15.9706 99.0893 16.1208C98.8945 16.271 98.7575 16.4314 98.6783 16.6019L97.9962 16.3583C98.118 16.0741 98.2804 15.8529 98.4834 15.6946C98.6884 15.5342 98.9117 15.4225 99.1533 15.3596C99.3969 15.2947 99.6364 15.2622 99.8719 15.2622C100.022 15.2622 100.195 15.2804 100.39 15.317C100.586 15.3515 100.776 15.4236 100.959 15.5332C101.144 15.6428 101.297 15.8082 101.419 16.0295C101.54 16.2507 101.601 16.5471 101.601 16.9186V20H100.883V19.3667H100.846C100.798 19.4682 100.716 19.5768 100.603 19.6925C100.489 19.8082 100.338 19.9066 100.149 19.9878C99.9602 20.069 99.7298 20.1096 99.4578 20.1096ZM99.5674 19.4641C99.8516 19.4641 100.091 19.4083 100.286 19.2966C100.483 19.185 100.631 19.0409 100.731 18.8643C100.832 18.6877 100.883 18.5019 100.883 18.3071V17.6494C100.852 17.6859 100.785 17.7194 100.682 17.7498C100.58 17.7783 100.463 17.8036 100.329 17.826C100.197 17.8463 100.068 17.8645 99.9419 17.8808C99.8181 17.895 99.7176 17.9072 99.6405 17.9173C99.4537 17.9417 99.2791 17.9812 99.1167 18.0361C98.9564 18.0888 98.8265 18.169 98.727 18.2766C98.6296 18.3822 98.5808 18.5263 98.5808 18.709C98.5808 18.9587 98.6732 19.1474 98.8579 19.2753C99.0447 19.4012 99.2812 19.4641 99.5674 19.4641ZM103.01 20V13.7641H103.729V16.066H103.79C103.843 15.9848 103.916 15.8813 104.009 15.7554C104.105 15.6276 104.241 15.5139 104.417 15.4144C104.596 15.3129 104.837 15.2622 105.142 15.2622C105.536 15.2622 105.883 15.3606 106.183 15.5575C106.484 15.7544 106.718 16.0335 106.886 16.3949C107.055 16.7562 107.139 17.1825 107.139 17.6737C107.139 18.169 107.055 18.5983 106.886 18.9617C106.718 19.323 106.485 19.6032 106.186 19.8021C105.888 19.999 105.544 20.0974 105.154 20.0974C104.854 20.0974 104.613 20.0477 104.432 19.9482C104.252 19.8467 104.113 19.7321 104.015 19.6042C103.918 19.4743 103.843 19.3667 103.79 19.2814H103.705V20H103.01ZM103.717 17.6615C103.717 18.0147 103.769 18.3263 103.872 18.5963C103.976 18.8643 104.127 19.0744 104.326 19.2266C104.525 19.3768 104.768 19.4519 105.057 19.4519C105.357 19.4519 105.608 19.3728 105.809 19.2144C106.012 19.0541 106.164 18.8389 106.265 18.5689C106.369 18.2969 106.421 17.9944 106.421 17.6615C106.421 17.3327 106.37 17.0363 106.268 16.7724C106.169 16.5065 106.018 16.2964 105.815 16.1421C105.614 15.9858 105.361 15.9077 105.057 15.9077C104.764 15.9077 104.519 15.9818 104.32 16.13C104.121 16.2761 103.971 16.4811 103.869 16.745C103.768 17.0069 103.717 17.3124 103.717 17.6615ZM110.138 20.0974C109.716 20.0974 109.346 19.997 109.027 19.796C108.71 19.595 108.463 19.3139 108.284 18.9526C108.107 18.5912 108.019 18.169 108.019 17.6859C108.019 17.1987 108.107 16.7735 108.284 16.4101C108.463 16.0467 108.71 15.7646 109.027 15.5636C109.346 15.3627 109.716 15.2622 110.138 15.2622C110.561 15.2622 110.93 15.3627 111.247 15.5636C111.565 15.7646 111.813 16.0467 111.99 16.4101C112.168 16.7735 112.258 17.1987 112.258 17.6859C112.258 18.169 112.168 18.5912 111.99 18.9526C111.813 19.3139 111.565 19.595 111.247 19.796C110.93 19.997 110.561 20.0974 110.138 20.0974ZM110.138 19.4519C110.459 19.4519 110.723 19.3697 110.93 19.2053C111.137 19.0409 111.29 18.8247 111.39 18.5567C111.489 18.2888 111.539 17.9985 111.539 17.6859C111.539 17.3733 111.489 17.082 111.39 16.812C111.29 16.542 111.137 16.3238 110.93 16.1574C110.723 15.9909 110.459 15.9077 110.138 15.9077C109.818 15.9077 109.554 15.9909 109.347 16.1574C109.14 16.3238 108.986 16.542 108.887 16.812C108.788 17.082 108.738 17.3733 108.738 17.6859C108.738 17.9985 108.788 18.2888 108.887 18.5567C108.986 18.8247 109.14 19.0409 109.347 19.2053C109.554 19.3697 109.818 19.4519 110.138 19.4519ZM113.355 20V15.3231H114.049V16.0295H114.098C114.183 15.7981 114.337 15.6103 114.56 15.4662C114.784 15.3221 115.035 15.25 115.315 15.25C115.368 15.25 115.434 15.251 115.513 15.253C115.593 15.2551 115.652 15.2581 115.693 15.2622V15.9929C115.669 15.9869 115.613 15.9777 115.526 15.9655C115.44 15.9513 115.35 15.9442 115.255 15.9442C115.027 15.9442 114.824 15.9919 114.646 16.0873C114.469 16.1807 114.329 16.3106 114.225 16.4771C114.124 16.6415 114.073 16.8293 114.073 17.0404V20H113.355ZM117.921 20.1096C117.625 20.1096 117.356 20.0538 117.114 19.9421C116.873 19.8285 116.681 19.6651 116.539 19.4519C116.397 19.2368 116.326 18.9769 116.326 18.6724C116.326 18.4045 116.378 18.1873 116.484 18.0208C116.589 17.8524 116.731 17.7204 116.907 17.625C117.084 17.5296 117.279 17.4585 117.492 17.4119C117.707 17.3631 117.923 17.3246 118.14 17.2962C118.425 17.2596 118.655 17.2322 118.832 17.2139C119.01 17.1936 119.14 17.1601 119.221 17.1135C119.304 17.0668 119.346 16.9856 119.346 16.8699V16.8455C119.346 16.5451 119.264 16.3116 119.099 16.1452C118.937 15.9787 118.69 15.8955 118.36 15.8955C118.017 15.8955 117.748 15.9706 117.553 16.1208C117.358 16.271 117.221 16.4314 117.142 16.6019L116.46 16.3583C116.581 16.0741 116.744 15.8529 116.947 15.6946C117.152 15.5342 117.375 15.4225 117.617 15.3596C117.86 15.2947 118.1 15.2622 118.335 15.2622C118.485 15.2622 118.658 15.2804 118.853 15.317C119.05 15.3515 119.24 15.4236 119.422 15.5332C119.607 15.6428 119.76 15.8082 119.882 16.0295C120.004 16.2507 120.065 16.5471 120.065 16.9186V20H119.346V19.3667H119.31C119.261 19.4682 119.18 19.5768 119.066 19.6925C118.952 19.8082 118.801 19.9066 118.612 19.9878C118.424 20.069 118.193 20.1096 117.921 20.1096ZM118.031 19.4641C118.315 19.4641 118.554 19.4083 118.749 19.2966C118.946 19.185 119.094 19.0409 119.194 18.8643C119.295 18.6877 119.346 18.5019 119.346 18.3071V17.6494C119.316 17.6859 119.249 17.7194 119.145 17.7498C119.044 17.7783 118.926 17.8036 118.792 17.826C118.66 17.8463 118.531 17.8645 118.405 17.8808C118.281 17.895 118.181 17.9072 118.104 17.9173C117.917 17.9417 117.742 17.9812 117.58 18.0361C117.42 18.0888 117.29 18.169 117.19 18.2766C117.093 18.3822 117.044 18.5263 117.044 18.709C117.044 18.9587 117.137 19.1474 117.321 19.2753C117.508 19.4012 117.745 19.4641 118.031 19.4641ZM123.41 15.3231V15.9321H120.987V15.3231H123.41ZM121.693 14.2026H122.412V18.6603C122.412 18.8632 122.441 19.0155 122.5 19.117C122.561 19.2165 122.638 19.2834 122.731 19.3179C122.827 19.3504 122.927 19.3667 123.033 19.3667C123.112 19.3667 123.177 19.3626 123.228 19.3545C123.278 19.3443 123.319 19.3362 123.349 19.3301L123.496 19.9756C123.447 19.9939 123.379 20.0122 123.292 20.0304C123.204 20.0507 123.094 20.0609 122.96 20.0609C122.757 20.0609 122.558 20.0173 122.363 19.93C122.17 19.8427 122.01 19.7097 121.882 19.5311C121.756 19.3525 121.693 19.1271 121.693 18.8551V14.2026ZM126.402 20.0974C125.951 20.0974 125.562 19.998 125.236 19.799C124.911 19.5981 124.66 19.3179 124.484 18.9587C124.309 18.5973 124.222 18.1771 124.222 17.6981C124.222 17.219 124.309 16.7968 124.484 16.4314C124.66 16.064 124.906 15.7778 125.22 15.5728C125.537 15.3657 125.907 15.2622 126.329 15.2622C126.572 15.2622 126.813 15.3028 127.05 15.384C127.288 15.4652 127.504 15.5971 127.699 15.7798C127.894 15.9605 128.049 16.2 128.165 16.4984C128.281 16.7968 128.338 17.1642 128.338 17.6006V17.9051H124.733V17.284H127.608C127.608 17.0201 127.555 16.7846 127.449 16.5776C127.346 16.3705 127.198 16.2071 127.005 16.0873C126.814 15.9676 126.589 15.9077 126.329 15.9077C126.043 15.9077 125.795 15.9787 125.586 16.1208C125.379 16.2609 125.219 16.4436 125.108 16.6689C124.996 16.8942 124.94 17.1358 124.94 17.3936V17.8077C124.94 18.1609 125.001 18.4603 125.123 18.7059C125.247 18.9495 125.418 19.1353 125.638 19.2631C125.857 19.389 126.112 19.4519 126.402 19.4519C126.591 19.4519 126.761 19.4255 126.913 19.3728C127.068 19.3179 127.201 19.2368 127.312 19.1292C127.424 19.0196 127.51 18.8835 127.571 18.7212L128.265 18.916C128.192 19.1515 128.069 19.3585 127.897 19.5372C127.724 19.7138 127.511 19.8518 127.257 19.9513C127.004 20.0487 126.719 20.0974 126.402 20.0974Z" fill="white"/>
<defs>
<linearGradient id="paint0_linear_1_28770" x1="72" y1="12" x2="69" y2="12.5" gradientUnits="userSpaceOnUse">
<stop offset="0.431653" stop-color="#2B2929"/>
<stop offset="1" stop-color="#FFFBFB"/>
</linearGradient>
</defs>
</svg>
