<svg width="33" height="28" viewBox="0 0 33 28" fill="none" xmlns="http://www.w3.org/2000/svg">
<mask id="path-1-inside-1_512_3509" fill="white">
<path fill-rule="evenodd" clip-rule="evenodd" d="M16.2082 6.08587L19.3891 2.90491C22.3181 -0.0240176 27.0668 -0.0240189 29.9957 2.90491C32.9247 5.83385 32.9247 10.5826 29.9957 13.5115L16.2072 27.3L5.60064 16.6934L5.60159 16.6925L2.30425 13.3951C-0.624685 10.4662 -0.624685 5.71746 2.30425 2.78853C5.23318 -0.140406 9.98192 -0.140405 12.9108 2.78853L16.2082 6.08587Z"/>
</mask>
<path d="M16.2082 6.08587L15.5011 6.79297L16.2082 7.50008L16.9153 6.79297L16.2082 6.08587ZM16.2072 27.3L15.5001 28.0071L16.2072 28.7142L16.9143 28.0071L16.2072 27.3ZM5.60064 16.6934L4.89353 15.9863L4.18643 16.6934L4.89353 17.4005L5.60064 16.6934ZM5.60159 16.6925L6.30869 17.3996L7.0158 16.6925L6.30869 15.9854L5.60159 16.6925ZM16.9153 6.79297L20.0962 3.61202L18.682 2.19781L15.5011 5.37876L16.9153 6.79297ZM20.0962 3.61202C22.6347 1.07361 26.7502 1.07361 29.2886 3.61202L30.7029 2.19781C27.3834 -1.12165 22.0015 -1.12165 18.682 2.19781L20.0962 3.61202ZM29.2886 3.61202C31.827 6.15043 31.827 10.266 29.2886 12.8044L30.7029 14.2186C34.0223 10.8992 34.0223 5.51726 30.7029 2.19781L29.2886 3.61202ZM29.2886 12.8044L15.5001 26.5929L16.9143 28.0071L30.7029 14.2186L29.2886 12.8044ZM16.9143 26.5929L6.30775 15.9863L4.89353 17.4005L15.5001 28.0071L16.9143 26.5929ZM6.30775 17.4005L6.30869 17.3996L4.89448 15.9854L4.89353 15.9863L6.30775 17.4005ZM6.30869 15.9854L3.01135 12.688L1.59714 14.1022L4.89448 17.3996L6.30869 15.9854ZM3.01135 12.688C0.472946 10.1496 0.472946 6.03404 3.01135 3.49563L1.59714 2.08142C-1.72232 5.40088 -1.72232 10.7828 1.59714 14.1022L3.01135 12.688ZM3.01135 3.49563C5.54976 0.957226 9.66533 0.957226 12.2037 3.49563L13.618 2.08142C10.2985 -1.23804 4.9166 -1.23804 1.59714 2.08142L3.01135 3.49563ZM12.2037 3.49563L15.5011 6.79297L16.9153 5.37876L13.618 2.08142L12.2037 3.49563Z" fill="black" mask="url(#path-1-inside-1_512_3509)"/>
</svg>
