<svg width="68" height="32" viewBox="0 0 68 32" fill="none" xmlns="http://www.w3.org/2000/svg">
<path d="M40.7214 12.1054L40.7484 12.0962L40.7741 12.084C40.9967 11.9784 41.4096 11.8459 41.9499 11.7083C42.48 11.5734 43.102 11.4412 43.7231 11.3301C44.9979 11.1021 46.0347 12.0619 46.0347 13.4732V13.4786V13.4841V13.4896V13.4952V13.5008V13.5065V13.5122V13.518V13.5238V13.5297V13.5357V13.5417V13.5478V13.5539V13.5601V13.5663V13.5726V13.579V13.5853V13.5918V13.5983V13.6049V13.6115V13.6181V13.6248V13.6316V13.6384V13.6453V13.6522V13.6592V13.6662V13.6733V13.6804V13.6876V13.6949V13.7022V13.7095V13.7169V13.7243V13.7318V13.7394V13.7469V13.7546V13.7623V13.77V13.7778V13.7857V13.7935V13.8015V13.8095V13.8175V13.8256V13.8337V13.8419V13.8501V13.8584V13.8667V13.8751V13.8835V13.892V13.9005V13.9091V13.9177V13.9264V13.9351V13.9438V13.9526V13.9615V13.9703V13.9793V13.9883V13.9973V14.0064V14.0155V14.0246V14.0338V14.0431V14.0524V14.0617V14.0711V14.0805V14.09V14.0995V14.1091V14.1187V14.1283V14.138V14.1478V14.1575V14.1673V14.1772V14.1871V14.1971V14.207V14.2171V14.2271V14.2372V14.2474V14.2576V14.2678V14.2781V14.2884V14.2988V14.3092V14.3196V14.3301V14.3406V14.3512V14.3618V14.3724V14.3831V14.3938V14.4046V14.4153V14.4262V14.4371V14.448V14.4589V14.4699V14.4809V14.492V14.5031V14.5142V14.5254V14.5366V14.5478V14.5591V14.5704V14.5818V14.5932V14.6046V14.6161V14.6276V14.6391V14.6507V14.6623V14.6739V14.6856V14.6973V14.7091V14.7209V14.7327V14.7445V14.7564V14.7683V14.7803V14.7923V14.8043V14.8163V14.8284V14.8405V14.8527V14.8649V14.8771V14.8893V14.9016V14.9139V14.9263V14.9386V14.9511V14.9635V14.976V14.9885V15.001V15.0136V15.0262V15.0388V15.0514V15.0641V15.0768V15.0896V15.1023V15.1151V15.128V15.1408V15.1537V15.1666V15.1796V15.1926V15.2056V15.2186V15.2317V15.2447V15.2579V15.271V15.2842V15.2974V15.3106V15.3239V15.3371V15.3504V15.3638V15.3771V15.3905V15.4039V15.4173V15.4308V15.4443V15.4578V15.4713V15.4849V15.4985V15.5121V15.5257V15.5394V15.5531V15.5668V15.5805V15.5943V15.6081V15.6219V15.6357V15.6495V15.6634V15.6773V15.6912V15.7052V15.7191V15.7331V15.7471V15.7611V15.7752V15.7893V15.8034V15.8175V15.8316V15.8458V15.8599V15.8741V15.8883V15.9026V15.9168V15.9311V15.9454V15.9597V15.9741V15.9884V16.0028V16.0172V16.0316V16.046V16.0605V16.0749V16.0894V16.1039V16.1185V16.133V16.1475V16.1621V16.1767V16.1913V16.2059V16.2206V16.2352V16.2499V16.2646V16.2793V16.294V16.3088V16.3235V16.3383V16.3531V16.3679V16.3827V16.3975V16.4124V16.4272V16.4421V16.457V16.4719V16.4868V16.5017V16.5167V16.5316V16.5466V16.5616V16.5766V16.5916V16.6066V16.6216V16.6367V16.6517V16.6668V16.6819V16.697V16.7121V16.7272V16.7423V16.7575V16.7726V16.7878V16.8029V16.8181V16.8333V16.8485V16.8637V16.8789V16.8942V16.9094V16.9246V16.9399V16.9552V16.9704V16.9857V17.001V17.0163V17.0316V17.0469V17.0622V17.0776V17.0929V17.1083V17.1236V17.139V17.1543V17.1697V17.1851V17.2005V17.2159V17.2313V17.2467V17.2621V17.2775V17.2929V17.3083V17.3238V17.3392V17.3546V17.3701V17.3855V17.401V17.4165V17.4319V17.4474V17.4628V17.4783V17.4938V17.5093V17.5248V17.5402V17.5557V17.5712V17.5867V17.6022V17.6177V17.6332V17.6487V17.6642V17.6797V17.6952V17.7107V17.7262V17.7417V17.7572V17.7728V17.7883V17.8038V17.8193V17.8348V17.8503V17.8658V17.8813V17.8968V17.9123V17.9278V17.9433V17.9588V17.9743V17.9898V18.0053V18.0208V18.0363V18.0518V18.0673V18.0828V18.0983V18.1138V18.1292V18.1447V18.1602V18.1756V18.1911V18.2066V18.222V18.2375V18.2529V18.2683V18.2838V18.2992V18.3146V18.3301V18.3455V18.3609V18.3763V18.3917V18.4071V18.4225V18.4378V18.4532V18.4686V18.4839V18.4993V18.5146V18.53V18.5453V18.5606V18.5759V18.5912V18.6065V18.6218V18.6371V18.6524V18.6676V18.6829V18.6981V18.7134V18.7286V18.7438V18.759V18.7742V18.7894V18.8046V18.8198V18.8349V18.8501V18.8652V18.8803V18.8954V18.9105V18.9256V18.9407V18.9558V18.9708V18.9859V19.0009V19.0159V19.0309V19.0459V19.0609V19.0759V19.0908V19.1058V19.1207V19.1356V19.1505V19.1654V19.1803V19.1951V19.21V19.2248V19.2396V19.2544V19.2692V19.284V19.2987V19.3135V19.3282V19.3429V19.3576V19.3722V19.3869V19.4015V19.4162V19.4308V19.4454V19.4599V19.4745V19.489V19.5035V19.518V19.5325V19.547V19.5614V19.5759V19.5903V19.6047V19.619V19.6334V19.6477V19.662V19.6763V19.6906V19.7049V19.7191V19.7333V19.7475V19.7617V19.7758V19.79V19.8041V19.8182V19.8323V19.8463V19.8603V19.8743V19.8883V19.9023V19.9162V19.9301V19.944V19.9579V19.9717V19.9856V19.9994V20.0131V20.0269V20.0406V20.0543V20.068V20.0817V20.0953V20.1089C46.0347 20.6599 45.8982 21.0654 45.6783 21.3357C45.4655 21.5973 45.1312 21.7861 44.6166 21.828C43.9217 21.8845 43.0853 21.9861 42.1963 22.1908C42.1958 22.1909 42.1954 22.191 42.195 22.1911L40.2246 22.6349L40.2099 22.6383L40.1954 22.6425L38.2226 23.2138L38.1929 23.2224L38.1645 23.2346L35.7971 24.2503L35.7749 24.2598L35.7538 24.2714L33.5555 25.4776L33.5333 25.4898L33.5125 25.5041L32.4979 26.2024L32.4837 26.2122L32.4703 26.2229L31.512 26.9847L31.5043 26.9908L31.4969 26.9972L30.5387 27.8225L30.5216 27.8373L30.5058 27.8535L30.3961 27.9668C30.3164 28.0491 30.2311 28.1346 30.143 28.223C29.8481 28.5187 29.5199 28.8477 29.2523 29.2046C29.0384 29.4897 28.8225 29.7587 28.5851 29.9388C28.36 30.1095 28.1654 30.1641 27.9596 30.1143C27.6914 30.0494 27.5567 29.9598 27.5104 29.8837C27.4647 29.8086 27.4202 29.6626 27.4066 29.4162C27.3935 29.178 27.4114 28.8928 27.4495 28.5763C27.4873 28.2616 27.5429 27.9324 27.5999 27.6068C27.6075 27.5633 27.6152 27.5197 27.6229 27.4761C27.6715 27.1996 27.7197 26.9251 27.753 26.682C27.9964 24.9 28.8716 22.9549 29.8476 21.2436C30.8187 19.541 31.8641 18.1133 32.4137 17.3668C32.5702 17.1542 32.7449 16.961 32.9384 16.7925C36.682 13.5343 38.9609 12.7062 40.7214 12.1054Z" stroke="black"/>
<path d="M63.3132 12.9586C65.2168 14.3571 65.2169 17.201 63.3134 18.5996L52.5938 26.4763C50.2824 28.1747 47.0214 26.5242 47.0213 23.6559L47.0209 7.90315C47.0208 5.03482 50.2817 3.3842 52.5932 5.0825L63.3132 12.9586Z" stroke="black"/>
<path d="M46.4571 11.7313C46.377 11.6817 46.2715 11.5299 46.3289 11.4136C46.3376 11.3959 46.3876 11.3728 46.3678 11.3505C46.3415 11.3208 46.3374 11.3345 46.3374 11.2788C46.3374 11.2231 46.3117 11.1851 46.3507 11.1301C46.3748 11.0962 46.3427 10.9834 46.3716 10.9996" stroke="#F7FCFD" stroke-width="3" stroke-linecap="round"/>
<path d="M46.6238 11.3654C46.5637 11.3579 46.6198 11.3141 46.6029 11.2927C46.5837 11.2683 46.5411 11.3059 46.5383 11.2499C46.5351 11.1841 46.5428 11.1207 46.5858 11.0723C46.67 10.9775 46.4064 11.0366 46.3845 11.0381C46.3186 11.0424 46.2729 11.0392 46.2439 11.1194C46.1349 11.4207 46.0963 11.7635 46.0938 12.0928C46.0913 12.4319 46.1509 12.7678 46.2135 13.0983C46.2489 13.2852 46.3246 13.4654 46.3883 13.6417C46.4725 13.8749 46.5242 14.1255 46.6238 14.3499" stroke="#F7FCFD" stroke-width="3" stroke-linecap="round"/>
<path d="M46.6055 11.3271C46.7172 11.3271 46.6886 11.0653 46.708 10.9998" stroke="#F7FCFD" stroke-width="3" stroke-linecap="round"/>
<path d="M46.732 21.0672C46.6261 21.0672 46.2807 21.0908 46.5753 21.0398C46.6319 21.03 46.7302 21.0558 46.7808 21.0241C46.8788 20.9627 46.6029 20.8994 46.5962 20.8985C46.5121 20.8881 46.1782 20.8258 46.1433 20.9535C46.0905 21.1469 46.8363 21.1665 46.6658 21.1026C46.5788 21.0699 46.6158 20.8778 46.6623 20.8122C46.7128 20.7412 46.6693 20.4804 46.6693 20.3964C46.6693 20.0843 46.6333 19.7881 46.5996 19.4783C46.5882 19.3727 46.5524 19.2735 46.5439 19.1684C46.5302 18.9987 46.5088 19.5068 46.4951 19.6764C46.4623 20.0837 46.1476 21.2601 46.2792 20.8789C46.3386 20.7069 46.3241 20.5069 46.361 20.3277C46.4341 19.9729 46.5082 19.616 46.5404 19.2527C46.5643 18.984 46.5439 18.7017 46.5439 18.4328C46.5439 18.0865 46.56 18.4343 46.5909 18.5799C46.6879 19.0363 46.8976 19.4674 46.948 19.9354C46.9502 19.9555 46.9515 20.0165 46.9515 19.9962C46.9515 19.8757 46.9523 19.7556 46.9462 19.6352C46.9213 19.1389 46.7889 18.664 46.739 18.1719C46.7281 18.0643 46.7341 18.0028 46.7111 18.1679C46.6699 18.4634 46.6276 18.7596 46.5962 19.0566C46.5624 19.3753 46.5451 19.6948 46.5439 20.0158C46.5436 20.0996 46.5532 20.3392 46.584 20.263C46.7843 19.7666 46.8129 19.1187 46.8975 18.5838C46.9452 18.2821 46.9201 18.7239 46.9201 18.7898C46.9201 19.0121 46.9335 19.2427 46.8905 19.4607C46.8809 19.5091 46.7745 19.2414 46.7459 19.2076C46.7332 19.1925 46.7337 19.3216 46.732 19.3371C46.7289 19.3651 46.6734 19.2621 46.6693 19.29C46.6391 19.4943 46.7883 20.1575 46.6623 19.5489C46.5857 19.1787 46.5011 18.8423 46.3001 18.5328C46.2067 18.3891 46.2378 18.368 46.2548 18.525C46.2908 18.858 46.2617 19.2104 46.2617 19.545C46.2617 19.647 46.2261 19.9448 46.2617 19.851C46.3324 19.6654 46.3595 19.4549 46.3941 19.2586C46.4486 18.9495 46.5697 18.6807 46.6554 18.3837C46.7727 17.9772 46.7833 17.532 46.7494 17.1086C46.7134 16.6572 46.6066 16.2327 46.6066 15.7787C46.6066 14.9384 46.8169 14.0972 46.7616 13.256C46.7605 13.2396 46.7478 13.1409 46.725 13.1383C46.7111 13.1367 46.6994 13.1553 46.6937 13.1697C46.6469 13.2872 46.6063 13.554 46.5909 13.6463C46.5176 14.0867 46.4378 14.5433 46.4516 14.994C46.4715 15.6433 46.5439 16.2874 46.5439 16.9399C46.5439 17.3249 46.5126 17.7076 46.5126 18.0914C46.5126 18.4151 46.454 18.0251 46.4324 17.9149C46.2857 17.1638 46.3558 16.4309 46.3558 15.6708C46.3558 15.2108 46.3245 14.7494 46.3245 14.2878" stroke="#F7FCFD" stroke-width="3" stroke-linecap="round"/>
<path d="M49.8711 16.2561C50.1758 15.5989 50.6254 15.0023 51.0745 14.459C51.1145 14.4106 51.1808 14.3614 51.2008 14.2964C51.2113 14.2622 51.2093 14.251 51.2388 14.2344" stroke="#F7FCFD" stroke-width="3" stroke-linecap="round"/>
<path d="M46.525 12.7772C46.5255 12.7603 46.5953 12.3235 46.6797 12.4185C46.7627 12.512 46.5412 12.9545 46.5045 13.0463C46.4979 13.0628 46.4315 13.1923 46.4112 13.1155C46.3705 12.9606 46.4731 12.7389 46.525 12.603C46.5517 12.533 46.8002 12.0001 46.7047 12.3468C46.6743 12.457 46.365 13.2632 46.2042 13.0822C45.9708 12.8192 46.411 12.2444 46.5887 12.0957C46.7304 11.9771 46.4951 12.5404 46.4408 12.6107C46.1851 12.9419 46.1859 12.4075 46.2884 12.2238C46.3424 12.127 46.7312 11.7835 46.7206 11.8189C46.6718 11.9839 46.371 12.4161 46.1815 12.334C45.7992 12.1684 46.9233 11.4453 46.5637 11.9009C46.534 11.9385 46.2884 12.1495 46.3453 11.9445C46.3909 11.7801 46.5972 11.3343 46.5887 11.5063C46.5743 11.7988 46.3102 12.111 46.2634 12.416C46.2248 12.667 46.1446 13.7051 46.5568 13.136C46.6322 13.0319 46.7341 12.7496 46.8708 12.7311C47.0537 12.7064 47.0337 13.2682 47.0301 13.3614C47.0151 13.747 46.9365 14.1297 46.8344 14.4965C46.7847 14.6752 46.7164 15.2197 46.6911 15.0346C46.5816 14.2331 46.8547 13.3418 47.1939 12.6543C47.2919 12.4554 47.2748 12.4724 47.1939 12.6619C47.0127 13.0864 46.8712 13.5338 46.7297 13.9764C46.6322 14.2815 46.5479 14.6351 46.3794 14.9039C46.2905 15.0458 46.4119 14.4001 46.4135 14.394C46.5511 13.8828 46.7034 13.3856 46.7935 12.8592C46.8105 12.7595 46.8756 12.2138 46.8117 12.6338C46.6934 13.4105 46.6492 14.3336 46.1246 14.9244C45.9408 15.1314 46.0342 14.7207 46.0518 14.6375C46.1452 14.1954 46.3012 13.7644 46.434 13.3358C46.4519 13.278 46.5614 12.948 46.5614 13.2077C46.5614 13.4634 46.5065 13.7392 46.4249 13.9764C46.3276 14.2593 46.1685 14.5221 45.9631 14.7194C45.7846 14.8909 45.8446 14.6632 45.8994 14.5426C46.0038 14.3125 46.1175 14.0783 46.2383 13.8585C46.4068 13.5521 46.3389 13.9448 46.3111 14.0789C46.2463 14.3926 46.1487 14.6972 46.0768 15.009C46.0647 15.0614 45.9035 15.7051 46.0245 15.5906C46.1773 15.446 46.7448 14.6544 46.7639 15.3088C46.7731 15.6273 46.7177 15.9451 46.6979 16.2619C46.6814 16.5259 46.7056 16.7933 46.6797 17.0562C46.6684 17.171 46.6114 17.2908 46.6114 17.4047C46.6114 17.4355 46.6927 17.4971 46.7093 17.5303C46.8684 17.8488 46.9599 17.1658 46.9755 17.0665" stroke="#F7FCFC" stroke-width="3" stroke-linecap="round"/>
<path d="M46.8883 21.374C46.6872 21.3959 46.488 21.4164 46.2861 21.4164C46.2651 21.4164 46.136 21.434 46.1816 21.4918C46.2396 21.5653 46.5808 21.5012 46.6813 21.5012C46.7943 21.5012 46.8492 21.586 46.7189 21.586C46.5997 21.586 46.4806 21.586 46.3614 21.586" stroke="#F7FCFD" stroke-width="3" stroke-linecap="round"/>
<path d="M46.7266 11.0902C46.7335 11.0947 46.7434 11.0992 46.7515 11.0992C46.7581 11.0992 46.7634 11.0965 46.7695 11.0938C46.7771 11.0906 46.7847 11.0881 46.7921 11.0841C46.8054 11.0768 46.8187 11.0726 46.8327 11.0676C46.8398 11.065 46.8462 11.0623 46.8538 11.0623" stroke="#F7FCFD" stroke-width="3" stroke-linecap="round"/>
<path d="M46.3601 20.9775C46.4259 20.8549 46.499 20.7374 46.5566 20.6092C46.611 20.4881 46.6169 20.3779 46.587 20.246C46.5455 20.0629 46.4448 19.9169 46.3797 19.7459C46.2944 19.5217 46.2866 19.2771 46.3109 19.0375C46.3295 18.8546 46.3897 18.6848 46.4204 18.5052C46.4505 18.3287 46.3995 18.1932 46.3364 18.0348C46.3226 18.0002 46.2935 17.9255 46.2783 17.8894C46.2673 17.8633 46.2442 17.791 46.235 17.8179C46.2215 17.8575 46.2422 17.9576 46.2461 17.9905C46.2602 18.1093 46.2842 18.2246 46.3038 18.3422" stroke="#F7FCFD" stroke-width="3" stroke-linecap="round"/>
<path d="M46.7384 11.1125C46.7371 11.1062 46.7269 11.113 46.7275 11.104C46.7279 11.0992 46.7297 11.095 46.7294 11.0901C46.7292 11.0845 46.7164 11.0805 46.7125 11.0783C46.7052 11.0742 46.7042 11.0538 46.7034 11.0456C46.7025 11.0371 46.7068 11.0259 46.6971 11.0241C46.6963 11.0239 46.6904 11.023 46.6915 11.0216C46.6924 11.0203 46.6932 11.0191 46.6925 11.0173C46.6913 11.0148 46.682 11.0093 46.6828 11.0122C46.6841 11.0174 46.6847 11.0117 46.6847 11.0095C46.6847 11.0062 46.6844 11.0037 46.6813 11.0027C46.6788 11.0019 46.6798 10.9965 46.6798 10.9944C46.6798 10.9928 46.6845 10.9912 46.684 10.9918C46.682 10.9941 46.6835 11.0102 46.6845 11.0129C46.6855 11.0155 46.6852 11.0207 46.6857 11.0236C46.6864 11.0282 46.6876 11.0337 46.6877 11.0384C46.6879 11.0446 46.689 11.0503 46.6896 11.0565C46.6899 11.0592 46.6908 11.0619 46.6907 11.0646C46.6904 11.072 46.6789 11.0673 46.6758 11.0666" stroke="#F7FCFD" stroke-width="3" stroke-linecap="round"/>
<path d="M46.6332 11.0894C46.6274 11.0894 46.6229 11.0849 46.6173 11.0849C46.6105 11.0849 46.6077 11.0716 46.6074 11.0659C46.6073 11.0629 46.6053 11.0615 46.6042 11.0592C46.6029 11.0565 46.6023 11.0541 46.6012 11.0513C46.599 11.0456 46.5947 11.043 46.5923 11.0379C46.5889 11.0308 46.58 11.0183 46.5853 11.0108C46.5858 11.0101 46.5866 11.0041 46.5865 11.0032C46.5864 11.001 46.5838 10.9996 46.5836 10.9976C46.5833 10.9958 46.5808 10.9943 46.5798 10.9929C46.5791 10.9918 46.5802 10.9898 46.5794 10.9889C46.5773 10.9866 46.5784 10.9915 46.5786 10.992" stroke="#F7FCFD" stroke-width="3" stroke-linecap="round"/>
<path d="M46.5977 11.0566C46.5977 11.0505 46.6019 11.0464 46.6057 11.0421C46.609 11.0384 46.6128 11.0396 46.6165 11.0398C46.6246 11.0403 46.6295 11.0288 46.6295 11.0213C46.6295 11.0132 46.6301 11.0071 46.6285 10.999C46.6277 10.9949 46.6279 10.9928 46.6257 10.9903C46.6248 10.9893 46.6191 10.9832 46.6225 10.9883" stroke="#F7FCFD" stroke-width="3" stroke-linecap="round"/>
<path d="M46.7324 11.0782C46.735 11.0705 46.7411 11.0637 46.7411 11.0553C46.7411 11.0505 46.74 11.0462 46.74 11.0413C46.74 11.0365 46.7381 11.0295 46.7362 11.0251C46.7351 11.0227 46.7327 11.0168 46.7324 11.0144C46.7316 11.0076 46.727 11.0012 46.727 10.9943C46.727 10.9903 46.7259 10.9897 46.7259 10.9892C46.7259 10.9877 46.7241 10.9812 46.7227 10.9842" stroke="#F7FCFD" stroke-width="3" stroke-linecap="round"/>
<path d="M46.6419 11.0669C46.6329 11.0617 46.6329 11.0549 46.6308 11.0445C46.6299 11.0401 46.629 11.0348 46.629 11.0304C46.629 11.0251 46.627 11.0202 46.627 11.0148C46.627 11.0107 46.626 11.007 46.626 11.0031C46.626 11.0001 46.6231 10.9944 46.627 10.9941C46.6291 10.994 46.6308 10.992 46.633 10.9919C46.6358 10.9917 46.6389 10.9907 46.6415 10.9896C46.6444 10.9885 46.6467 10.986 46.6493 10.9851C46.6547 10.9834 46.6519 10.979 46.6529 10.9874" stroke="#F7FCFD" stroke-width="3" stroke-linecap="round"/>
<path d="M46.6956 11.0399C46.6952 11.032 46.695 11.0232 46.6935 11.0158C46.6927 11.0118 46.6893 11.0077 46.6876 11.0041C46.6851 10.9985 46.6848 10.9931 46.6817 10.9875C46.6804 10.9854 46.6797 10.9816 46.6797 10.979C46.6797 10.977 46.6809 10.9855 46.6792 10.985C46.6768 10.9842 46.6681 10.9718 46.6737 10.9828" stroke="#F7FCFD" stroke-width="3" stroke-linecap="round"/>
<path d="M46.8361 21.8461C46.808 21.8254 46.7708 21.829 46.7412 21.8134C46.732 21.8086 46.715 21.811 46.7049 21.8099C46.685 21.8077 46.6644 21.8093 46.6445 21.8093C46.5972 21.8093 46.5496 21.8077 46.5024 21.8093C46.4696 21.8104 46.4377 21.8214 46.4046 21.8223C46.3804 21.823 46.3562 21.8224 46.332 21.8224" stroke="#F7FCFD" stroke-width="2" stroke-linecap="round"/>
<path d="M46.7315 21.8425C46.7176 21.8598 46.7109 21.8704 46.7109 21.8921C46.7109 21.9037 46.7109 21.9153 46.7109 21.9268C46.7109 21.9344 46.7272 21.9351 46.733 21.9351C46.745 21.9351 46.7496 21.9417 46.7344 21.9417" stroke="#F7FCFD" stroke-width="0.2" stroke-linecap="round"/>
<path d="M46.7103 21.9508C46.7062 21.9474 46.6989 21.9465 46.6941 21.9451C46.683 21.942 46.6714 21.9403 46.6601 21.94C46.639 21.9394 46.6179 21.9378 46.5968 21.9378C46.5774 21.9378 46.5584 21.9342 46.539 21.9342C46.5306 21.9342 46.522 21.9349 46.5136 21.9339C46.5062 21.9331 46.4992 21.9305 46.4922 21.9277" stroke="#F7FCFD" stroke-width="0.2" stroke-linecap="round"/>
<path d="M46.653 21.9437C46.6332 21.9446 46.6137 21.9447 46.5939 21.9419C46.5875 21.941 46.5812 21.9399 46.5748 21.9392C46.5681 21.9385 46.5614 21.9406 46.5548 21.9399C46.5392 21.9384 46.5238 21.9388 46.5082 21.9386C46.5003 21.9386 46.4929 21.9368 46.4852 21.9352C46.4771 21.9335 46.4691 21.9336 46.4609 21.9336" stroke="#F7FCFD" stroke-width="0.2" stroke-linecap="round"/>
<path d="M46.2969 21.948C46.3035 21.948 46.3125 21.9462 46.3189 21.9482C46.3206 21.9487 46.3142 21.9605 46.3132 21.9628" stroke="#F7FCFD" stroke-width="0.2" stroke-linecap="round"/>
<path d="M46.3464 21.9537C46.3421 21.9537 46.3382 21.9532 46.3343 21.9549C46.3317 21.9561 46.3296 21.9574 46.3268 21.9581C46.325 21.9586 46.3222 21.9588 46.3207 21.9604C46.3193 21.9618 46.3146 21.963 46.3128 21.9619C46.3112 21.961 46.3173 21.9593 46.318 21.9593C46.3198 21.9592 46.3216 21.9594 46.3234 21.9592C46.3271 21.9589 46.3317 21.9582 46.3353 21.957C46.3355 21.9569 46.3394 21.955 46.3391 21.9562C46.3389 21.957 46.3365 21.9576 46.3358 21.9579C46.3345 21.9584 46.3304 21.9593 46.3318 21.9593C46.3337 21.9593 46.3356 21.9587 46.3373 21.9587" stroke="#F7FCFD" stroke-width="0.2" stroke-linecap="round"/>
<path d="M46.469 21.9375C46.4662 21.9386 46.4647 21.9429 46.4618 21.9444C46.4606 21.9451 46.4595 21.9453 46.4582 21.9453C46.4559 21.9453 46.4536 21.9453 46.4513 21.9453C46.4465 21.9453 46.442 21.9481 46.4373 21.9481C46.4321 21.9481 46.427 21.9481 46.4219 21.9481" stroke="#F7FCFD" stroke-width="0.2"/>
<path d="M46.4203 21.948C46.4051 21.9471 46.3898 21.9446 46.3746 21.946C46.3636 21.947 46.3534 21.951 46.3427 21.9535C46.3372 21.9548 46.3314 21.9586 46.3413 21.9579C46.3532 21.9569 46.3626 21.9513 46.3743 21.9534C46.3829 21.9549 46.3915 21.9525 46.4 21.9525C46.4185 21.9525 46.4369 21.9502 46.4554 21.9502C46.4731 21.9502 46.4908 21.9523 46.5085 21.9534C46.5198 21.954 46.5311 21.9536 46.5424 21.9536C46.5564 21.9536 46.5703 21.9524 46.5843 21.9516C46.6067 21.9503 46.6295 21.9503 46.6516 21.946C46.6616 21.9441 46.6719 21.9396 46.6821 21.9395C46.69 21.9394 46.6974 21.9429 46.7052 21.943C46.7143 21.9431 46.7231 21.9402 46.7321 21.9395C46.7454 21.9384 46.7586 21.9392 46.7718 21.9401" stroke="#F7FCFD" stroke-width="0.2"/>
<path d="M46.7575 21.9457C46.7418 21.9457 46.7264 21.9464 46.7109 21.9434" stroke="#F7FCFD" stroke-width="0.2"/>
<path d="M46.4881 11.2211C46.4849 11.2092 46.476 11.1987 46.476 11.1863C46.476 11.1789 46.476 11.1715 46.476 11.1642C46.476 11.1507 46.4688 11.1377 46.4655 11.125C46.4641 11.1194 46.4609 11.1112 46.4609 11.1056C46.4609 11.098 46.4678 11.0934 46.4685 11.0869C46.4688 11.0839 46.4709 11.0816 46.4699 11.0777C46.4692 11.0748 46.4671 11.0733 46.467 11.0699C46.4664 11.0575 46.464 11.0581 46.4745 11.0513" stroke="#F7FCFD" stroke-width="3" stroke-linecap="round"/>
<path d="M46.4933 11.1822C46.4851 11.1644 46.4749 11.1472 46.4671 11.1297C46.4625 11.1194 46.4629 11.1114 46.4629 11.0995C46.4629 11.0897 46.4653 11.079 46.4653 11.0706C46.4653 11.0587 46.4541 11.0455 46.4676 11.043" stroke="#F7FCFD" stroke-width="3" stroke-linecap="round"/>
<path d="M46.4701 11.0178C46.468 11.0126 46.4679 11.0112 46.4731 11.0112" stroke="#F7FCFD" stroke-width="3" stroke-linecap="round"/>
<path d="M46.4688 11.0154C46.4692 11.0118 46.47 11.0128 46.4727 11.0115" stroke="#F7FCFD" stroke-width="3" stroke-linecap="round"/>
<path d="M46.4688 11.0097V11.0059" stroke="#F7FCFD" stroke-width="3" stroke-linecap="round"/>
<path d="M46.4727 11.0073V11.0034" stroke="#F7FCFD" stroke-width="3" stroke-linecap="round"/>
<path d="M46.4688 11.0034H46.4745" stroke="#F7FCFD" stroke-width="3" stroke-linecap="round"/>
<path d="M46.472 11.0039C46.4668 11.0014 46.4686 11.0035 46.472 11.0039" stroke="#F7FCFD" stroke-width="3" stroke-linecap="round"/>
<path d="M46.4727 11.0041C46.4732 11.0003 46.4745 11.0031 46.4766 11.0041" stroke="#F7FCFD" stroke-width="3" stroke-linecap="round"/>
<path d="M46.4727 11.0007H46.4766" stroke="#F7FCFD" stroke-width="3" stroke-linecap="round"/>
<path d="M46.4805 10.9985H46.4844" stroke="#F7FCFD" stroke-width="3" stroke-linecap="round"/>
<path d="M46.4727 10.9983H46.4784" stroke="#F7FCFD" stroke-width="3" stroke-linecap="round"/>
<path d="M46.4745 10.9995C46.4715 10.996 46.4727 10.9974 46.4745 10.9956" stroke="#F7FCFD" stroke-width="3" stroke-linecap="round"/>
<path d="M46.4766 10.9956H46.4727" stroke="#F7FCFD" stroke-width="3" stroke-linecap="round"/>
<path d="M46.4766 10.9961C46.4734 10.9957 46.4727 10.9925 46.4727 10.9961" stroke="#F7FCFD" stroke-width="3" stroke-linecap="round"/>
<path d="M46.4766 10.9961C46.4734 10.9957 46.4727 10.9925 46.4727 10.9961" stroke="#F7FCFD" stroke-width="3" stroke-linecap="round"/>
<path d="M46.4766 10.9968C46.473 10.9963 46.474 10.9955 46.4727 10.9929" stroke="#F7FCFD" stroke-width="3" stroke-linecap="round"/>
<path d="M46.4706 10.9917C46.4676 10.9882 46.4688 10.9896 46.4706 10.9878" stroke="#F7FCFD" stroke-width="3" stroke-linecap="round"/>
<path d="M46.4505 11.0022C46.4479 10.9971 46.4501 10.9989 46.4505 11.0022" stroke="#F7FCFD" stroke-width="3" stroke-linecap="round"/>
<path d="M46.4479 11.0007C46.4472 10.9954 46.44 10.9995 46.4375 11.0007" stroke="#F7FCFD" stroke-width="3" stroke-linecap="round"/>
<path d="M46.4329 11.0037C46.4285 11.0017 46.4299 11.0017 46.4299 11.0037" stroke="#F7FCFD" stroke-width="3" stroke-linecap="round"/>
<path d="M46.4251 11.0042C46.4199 11.0016 46.4217 11.0037 46.4251 11.0042" stroke="#F7FCFD" stroke-width="3" stroke-linecap="round"/>
<path d="M46.4258 11.0043C46.4223 11.0013 46.4237 11.0024 46.4219 11.0043" stroke="#F7FCFD" stroke-width="3" stroke-linecap="round"/>
<path d="M46.4198 11.0033C46.4158 11.0031 46.4162 11.0027 46.4141 11.0007" stroke="#F7FCFD" stroke-width="3" stroke-linecap="round"/>
<path d="M46.4102 11.0034H46.4062" stroke="#F7FCFD" stroke-width="3" stroke-linecap="round"/>
<path d="M46.4102 11.0041C46.407 11.0037 46.4062 11.0005 46.4062 11.0041" stroke="#F7FCFD" stroke-width="3" stroke-linecap="round"/>
<path d="M46.4063 11.0034H46.4023" stroke="#F7FCFD" stroke-width="3" stroke-linecap="round"/>
<path d="M46.4056 11.004C46.4042 11.0025 46.4023 10.9975 46.4023 11.001" stroke="#F7FCFD" stroke-width="3" stroke-linecap="round"/>
<path d="M46.4063 11.0024L46.4023 10.9985" stroke="#F7FCFD" stroke-width="3" stroke-linecap="round"/>
<path d="M46.4063 10.9995C46.4027 10.999 46.4037 10.9982 46.4023 10.9956" stroke="#F7FCFD" stroke-width="3" stroke-linecap="round"/>
<path d="M46.4063 10.9962C46.4028 10.9932 46.4042 10.9944 46.4023 10.9962" stroke="#F7FCFD" stroke-width="3" stroke-linecap="round"/>
<path d="M46.4024 10.9968C46.4019 10.9932 46.4011 10.9942 46.3984 10.9929" stroke="#F7FCFD" stroke-width="3" stroke-linecap="round"/>
<path d="M46.4024 10.9941C46.4019 10.9905 46.4011 10.9915 46.3984 10.9902" stroke="#F7FCFD" stroke-width="3" stroke-linecap="round"/>
<path d="M46.3984 10.9878H46.4024" stroke="#F7FCFD" stroke-width="3" stroke-linecap="round"/>
<path d="M46.3651 11.0034C46.3611 11.0036 46.3616 11.004 46.3594 11.006" stroke="#F7FCFD" stroke-width="3" stroke-linecap="round"/>
<path d="M46.3594 11.0034H46.3555" stroke="#F7FCFD" stroke-width="3" stroke-linecap="round"/>
<path d="M46.3516 11.0034H46.3573" stroke="#F7FCFD" stroke-width="3" stroke-linecap="round"/>
<path d="M46.3477 11.0014C46.3445 11.001 46.3438 10.9979 46.3438 11.0014" stroke="#F7FCFD" stroke-width="3" stroke-linecap="round"/>
<path d="M46.3477 11.0014C46.3445 11.001 46.3438 10.9979 46.3438 11.0014" stroke="#F7FCFD" stroke-width="3" stroke-linecap="round"/>
<path d="M46.3398 11.001H46.3456" stroke="#F7FCFD" stroke-width="3" stroke-linecap="round"/>
<path d="M46.3392 10.9988C46.334 10.9962 46.3358 10.9984 46.3392 10.9988" stroke="#F7FCFD" stroke-width="3" stroke-linecap="round"/>
<path d="M46.3378 10.9962C46.3353 10.9938 46.3353 10.9938 46.3378 10.9962" stroke="#F7FCFD" stroke-width="3" stroke-linecap="round"/>
<path d="M46.3378 10.9935C46.3353 10.9911 46.3353 10.9911 46.3378 10.9935" stroke="#F7FCFD" stroke-width="3" stroke-linecap="round"/>
<path d="M46.3378 10.9917C46.3348 10.9882 46.3359 10.9896 46.3378 10.9878" stroke="#F7FCFD" stroke-width="3" stroke-linecap="round"/>
<path d="M46.3379 10.989C46.3341 10.9884 46.3369 10.9872 46.3379 10.9851" stroke="#F7FCFD" stroke-width="3" stroke-linecap="round"/>
<path d="M46.3359 10.9851H46.3399" stroke="#F7FCFD" stroke-width="3" stroke-linecap="round"/>
<path d="M46.3399 10.9851H46.3359" stroke="#F7FCFD" stroke-width="3" stroke-linecap="round"/>
<path d="M46.332 10.98H46.3378" stroke="#F7FCFD" stroke-width="3" stroke-linecap="round"/>
<path d="M46.5395 11.1961C46.5325 11.1927 46.5358 11.1931 46.5368 11.1875" stroke="#F7FCFD" stroke-width="3" stroke-linecap="round"/>
<path d="M46.5345 11.1787C46.5298 11.174 46.5228 11.1694 46.5315 11.1665" stroke="#F7FCFD" stroke-width="3" stroke-linecap="round"/>
<path d="M46.5338 11.1414C46.5303 11.1378 46.5231 11.1348 46.5308 11.1348" stroke="#F7FCFD" stroke-width="3" stroke-linecap="round"/>
<path d="M46.5336 11.12C46.5299 11.1131 46.5311 11.1152 46.5336 11.1113" stroke="#F7FCFD" stroke-width="3" stroke-linecap="round"/>
<path d="M46.5322 11.1043C46.5306 11.1 46.5313 11.0996 46.5322 11.0957" stroke="#F7FCFD" stroke-width="3" stroke-linecap="round"/>
<path d="M46.5292 11.0888C46.5262 11.0854 46.5273 11.0868 46.5292 11.085" stroke="#F7FCFD" stroke-width="3" stroke-linecap="round"/>
<path d="M46.5299 11.0862C46.5251 11.0855 46.5283 11.0822 46.5299 11.0796" stroke="#F7FCFD" stroke-width="3" stroke-linecap="round"/>
<path d="M46.5314 11.0781C46.5265 11.0755 46.5274 11.0758 46.5274 11.0742" stroke="#F7FCFD" stroke-width="3" stroke-linecap="round"/>
<path d="M46.5327 11.0724C46.5251 11.0719 46.5261 11.0693 46.5327 11.0693" stroke="#F7FCFD" stroke-width="3" stroke-linecap="round"/>
<path d="M46.5286 11.0679C46.5254 11.0648 46.5206 11.064 46.5256 11.0613" stroke="#F7FCFD" stroke-width="3" stroke-linecap="round"/>
<path d="M46.5222 11.0539C46.518 11.049 46.5241 11.042 46.5195 11.0349" stroke="#F7FCFD" stroke-width="3" stroke-linecap="round"/>
<path d="M46.5227 11.0337C46.5172 11.033 46.5199 11.0312 46.5227 11.0298" stroke="#F7FCFD" stroke-width="3" stroke-linecap="round"/>
<path d="M46.5196 11.0279C46.5196 11.0236 46.5188 11.0212 46.5223 11.0193" stroke="#F7FCFD" stroke-width="3" stroke-linecap="round"/>
<path d="M46.5309 11.017C46.5264 11.0148 46.5259 11.0142 46.5309 11.0142" stroke="#F7FCFD" stroke-width="3" stroke-linecap="round"/>
<path d="M46.5331 11.0138C46.528 11.0098 46.5322 11.0134 46.5273 11.0112" stroke="#F7FCFD" stroke-width="3" stroke-linecap="round"/>
<path d="M46.5326 11.0118C46.5253 11.0118 46.5259 11.0103 46.5326 11.0088" stroke="#F7FCFD" stroke-width="3" stroke-linecap="round"/>
<path d="M46.5331 11.0084C46.531 11.0068 46.5298 11.0066 46.5273 11.0059" stroke="#F7FCFD" stroke-width="3" stroke-linecap="round"/>
<path d="M46.5313 11.0059H46.5273" stroke="#F7FCFD" stroke-width="3" stroke-linecap="round"/>
<path d="M46.532 11.0022C46.5252 11.0013 46.5264 10.9971 46.532 10.9956" stroke="#F7FCFD" stroke-width="3" stroke-linecap="round"/>
<path d="M46.5339 10.9933C46.5271 10.9925 46.5354 10.9907 46.5372 10.9902" stroke="#F7FCFD" stroke-width="3" stroke-linecap="round"/>
<path d="M46.5352 10.9902H46.5391" stroke="#F7FCFD" stroke-width="3" stroke-linecap="round"/>
<path d="M46.5391 10.9902H46.5352" stroke="#F7FCFD" stroke-width="3" stroke-linecap="round"/>
<path d="M46.5331 10.9932C46.5293 10.9932 46.5289 10.993 46.5273 10.9958" stroke="#F7FCFD" stroke-width="3" stroke-linecap="round"/>
<path d="M46.5253 10.9956C46.5226 10.9959 46.5217 10.9969 46.5195 10.9982" stroke="#F7FCFD" stroke-width="3" stroke-linecap="round"/>
<path d="M46.5117 10.9985H46.5175" stroke="#F7FCFD" stroke-width="3" stroke-linecap="round"/>
<path d="M46.5157 10.999C46.5151 10.9952 46.5138 10.998 46.5117 10.999" stroke="#F7FCFD" stroke-width="3" stroke-linecap="round"/>
<path d="M46.5117 10.9995C46.5122 10.9959 46.513 10.9969 46.5157 10.9956" stroke="#F7FCFD" stroke-width="3" stroke-linecap="round"/>
<path d="M46.5157 10.9956C46.512 10.9961 46.5131 10.9969 46.5117 10.9995" stroke="#F7FCFD" stroke-width="3" stroke-linecap="round"/>
<path d="M46.5118 10.9956H46.5078" stroke="#F7FCFD" stroke-width="3" stroke-linecap="round"/>
<path d="M46.5039 10.9956H46.5097" stroke="#F7FCFD" stroke-width="3" stroke-linecap="round"/>
<path d="M46.5 10.9962C46.4965 10.9932 46.498 10.9944 46.4961 10.9962" stroke="#F7FCFD" stroke-width="3" stroke-linecap="round"/>
<path d="M46.5 10.997C46.4996 10.9935 46.4988 10.9945 46.4961 10.9932" stroke="#F7FCFD" stroke-width="3" stroke-linecap="round"/>
<path d="M46.4922 10.9917C46.4886 10.9912 46.4896 10.9904 46.4883 10.9878" stroke="#F7FCFD" stroke-width="3" stroke-linecap="round"/>
<path d="M46.4922 10.989C46.4886 10.9885 46.4896 10.9877 46.4883 10.9851" stroke="#F7FCFD" stroke-width="3" stroke-linecap="round"/>
<path d="M46.4336 11.0059H46.4297" stroke="#F7FCFD" stroke-width="3" stroke-linecap="round"/>
<path d="M46.4276 11.006C46.4249 11.0057 46.424 11.0047 46.4219 11.0034" stroke="#F7FCFD" stroke-width="3" stroke-linecap="round"/>
<path d="M46.4174 11.0015C46.4135 11.0011 46.4141 10.9954 46.4141 10.9985" stroke="#F7FCFD" stroke-width="3" stroke-linecap="round"/>
<path d="M46.4141 10.9995V10.9956" stroke="#F7FCFD" stroke-width="3" stroke-linecap="round"/>
<path d="M46.418 10.9961C46.4175 10.9923 46.4162 10.995 46.4141 10.9961" stroke="#F7FCFD" stroke-width="3" stroke-linecap="round"/>
<path d="M46.4201 10.9944C46.4197 10.9906 46.4167 10.9892 46.4141 10.9878" stroke="#F7FCFD" stroke-width="3" stroke-linecap="round"/>
<path d="M46.6172 11.0442C46.6136 11.0437 46.6146 11.0429 46.6133 11.0403" stroke="#F7FCFD" stroke-width="3" stroke-linecap="round"/>
<path d="M47.0848 10.8223C47.052 10.8632 47.0207 10.9029 46.9804 10.9347C46.9581 10.9522 46.9344 10.9682 46.9126 10.9863C46.8863 11.0081 46.8565 11.0325 46.8516 11.0719" stroke="#F7FCFD" stroke-width="3" stroke-linecap="round"/>
<path d="M46.6838 21.9058C46.6956 21.9068 46.7069 21.9099 46.7182 21.9136C46.726 21.9161 46.7339 21.9186 46.7413 21.9224C46.7431 21.9233 46.7467 21.9249 46.7476 21.9273C46.7496 21.9326 46.7311 21.9321 46.7284 21.9321C46.7241 21.9321 46.72 21.9306 46.7158 21.9296C46.7102 21.9284 46.7042 21.9285 46.6985 21.9275C46.6873 21.9255 46.6751 21.9253 46.6638 21.9253C46.663 21.9253 46.6561 21.9256 46.6563 21.9258C46.6586 21.929 46.6662 21.9282 46.6693 21.9282C46.6729 21.9282 46.6755 21.9263 46.6791 21.9263C46.6818 21.9263 46.6847 21.9253 46.6877 21.9253C46.6895 21.9253 46.6917 21.9249 46.6934 21.9258C46.6947 21.9265 46.6943 21.9276 46.6952 21.9282C46.6986 21.9305 46.6972 21.9283 46.6944 21.9293C46.6927 21.9298 46.6925 21.9312 46.69 21.9312C46.6864 21.9312 46.6828 21.9312 46.6793 21.9312C46.6743 21.9312 46.6711 21.9263 46.6661 21.9263" stroke="#F7FCFD" stroke-width="0.5"/>
<path d="M48.5885 22.7069C48.569 22.5063 48.5708 22.33 48.648 22.1414C48.7426 21.9103 48.9087 21.7999 49.0863 21.6602C49.3472 21.4549 49.5977 21.2328 49.8625 21.0339C50.258 20.7369 50.6774 20.5415 51.1376 20.4113C52.4141 20.0502 53.761 20.1006 55.0102 19.604" stroke="#F7FCFD" stroke-width="3" stroke-linecap="round"/>
<path d="M46.675 21.6743C46.6696 21.675 46.6722 21.6767 46.675 21.6781" stroke="#F7FCFD" stroke-width="3" stroke-linecap="round"/>
<path d="M46.6812 21.6724C46.6769 21.6702 46.6733 21.6658 46.678 21.6724" stroke="#F7FCFD" stroke-width="3" stroke-linecap="round"/>
<path d="M46.6797 21.6951C46.6814 21.6989 46.6816 21.7016 46.6849 21.7034" stroke="#F7FCFD" stroke-width="3" stroke-linecap="round"/>
<path d="M46.6834 21.728C46.6781 21.7247 46.6789 21.7242 46.6834 21.728" stroke="#F7FCFD" stroke-width="3" stroke-linecap="round"/>
<path d="M46.6885 21.7458C46.6853 21.7463 46.691 21.7484 46.6915 21.7486" stroke="#F7FCFD" stroke-width="3" stroke-linecap="round"/>
<path d="M46.6924 21.7686C46.6892 21.7691 46.6949 21.7711 46.6954 21.7713" stroke="#F7FCFD" stroke-width="3" stroke-linecap="round"/>
<path d="M46.7837 21.6773C46.7814 21.6773 46.7795 21.6756 46.7773 21.6743" stroke="#F7FCFD" stroke-width="3" stroke-linecap="round"/>
<path d="M52.079 11.3837C52.0753 11.3176 52.0682 11.4841 52.068 11.4999C52.0674 11.5654 52.058 11.6301 52.0571 11.6955C52.0569 11.7102 52.0588 11.7555 52.0656 11.7133C52.083 11.6052 52.079 11.4865 52.079 11.3768C52.079 11.314 52.0575 11.48 52.0547 11.4931C52.0135 11.6818 51.9653 11.8668 51.977 12.0634C51.9832 12.1697 52.0038 12.2764 52.0607 12.3636C52.1075 12.4353 52.0908 12.2917 52.0881 12.2706C52.0685 12.1216 52.0281 11.9781 52.0049 11.8302C52.0038 11.8236 51.9901 11.5897 52.0346 11.6674C52.0896 11.7634 52.0767 11.9329 52.0784 12.0408C52.0801 12.1552 52.0683 12.2762 52.085 12.3896C52.0991 12.4845 52.1098 12.3939 52.1117 12.3499C52.1189 12.1878 52.124 12.0285 52.1117 11.8664C52.0967 11.6668 52.1008 11.5074 52.1008 11.3221C52.1008 11.2956 52.1012 11.1788 52.068 11.1744C52.0239 11.1686 52.0382 11.1196 52.0462 11.0882C52.0493 11.076 52.071 11.0092 52.051 11.0028C52.0292 10.9957 52.0005 11.007 52.0158 10.9651C52.0213 10.9502 51.998 10.9641 51.9806 10.9651C51.9684 10.9659 51.96 10.9767 51.9478 10.9775C51.9404 10.9779 51.926 10.9643 51.926 10.9727C51.926 11.0342 51.9028 11.1039 51.9211 11.1628C51.9506 11.2576 51.9596 11.3655 51.9751 11.4643C52.0033 11.644 52.0444 11.8162 52.0547 11.9991C52.0642 12.17 52.0281 12.3585 52.0571 12.5257C52.0711 12.6065 52.1008 12.6839 52.1227 12.7623C52.1551 12.8784 52.1445 13.0241 52.1445 13.1438C52.1445 13.4046 52.1445 13.6654 52.1445 13.9261C52.1445 14.2129 52.1445 14.4996 52.1445 14.7864C52.1445 15.016 52.1117 15.2417 52.1117 15.4709C52.1117 15.6497 52.1041 15.8305 52.1227 16.0084C52.124 16.0213 52.1365 16.0711 52.1494 16.0337C52.1761 15.9563 52.1669 15.8402 52.164 15.7602C52.1614 15.6903 52.1555 15.6206 52.1506 15.5509C52.1484 15.5203 52.1655 15.4435 52.1421 15.4593C52.1322 15.466 52.1278 15.5494 52.1275 15.5516C52.1182 15.6315 52.1092 15.7116 52.1008 15.7916C52.0767 16.0218 52.0567 16.2529 52.0377 16.4837C52.0301 16.5756 51.9894 16.7706 52.0358 16.8577C52.0619 16.9067 52.0932 16.7893 52.1117 16.8728C52.1173 16.8979 52.1315 16.9037 52.1391 16.8741C52.1995 16.6397 52.1384 16.4066 52.1117 16.1718" stroke="#F7FCFD" stroke-width="3" stroke-linecap="round"/>
<path d="M46.2097 13.5021C46.1913 13.4946 46.134 13.4799 46.1532 13.4842C46.2528 13.5067 46.338 13.498 46.4381 13.4792C46.7238 13.4255 47.5944 13.4215 47.3066 13.4575C47.0957 13.4839 46.8829 13.5518 46.6745 13.5951C46.0575 13.7229 45.434 13.808 44.8166 13.9326C44.7341 13.9492 44.507 14.0383 44.5678 13.9733C44.6457 13.89 44.8397 13.852 44.9342 13.8179C45.58 13.5852 46.2553 13.4285 46.9267 13.3238C47.0083 13.311 47.1558 13.2696 47.241 13.297C47.333 13.3266 47.0518 13.3292 46.9572 13.3454C46.3598 13.4481 45.7635 13.5547 45.1648 13.6485C44.9671 13.6795 44.7671 13.7204 44.5678 13.7377C44.4384 13.7489 44.5364 13.685 44.5927 13.6575C45.2665 13.3283 46.0445 13.2022 46.7683 13.1175C47.035 13.0862 47.8342 12.9868 47.569 13.0308C46.9941 13.1264 46.4185 13.2004 45.8422 13.2843C45.614 13.3175 45.3872 13.3602 45.1592 13.3951C45.1376 13.3984 44.9803 13.4271 45.1083 13.3824C45.6584 13.1901 46.233 13.1041 46.8023 13.0207C47.1038 12.9764 48.0054 12.8341 47.7092 12.9111C47.2911 13.0198 46.8457 13.0493 46.4201 13.0945C46.0909 13.1295 45.7618 13.1601 45.4317 13.1811C45.3572 13.1859 45.1067 13.2476 45.0314 13.1939C44.9601 13.143 45.1739 13.089 45.2531 13.0563C45.5984 12.9137 45.9547 12.8188 46.3205 12.7749C46.7425 12.7242 47.1749 12.6997 47.5995 12.6997C47.9311 12.6997 46.9402 12.7804 46.61 12.8143C46.1328 12.8634 45.6612 12.9314 45.1875 13.0105C45.0836 13.0278 45.1738 12.9817 45.2123 12.9646C45.4375 12.8647 45.6781 12.7968 45.9157 12.7481C46.3906 12.6509 46.8833 12.625 47.3654 12.6093C47.4102 12.6078 47.4201 12.608 47.457 12.608C47.4702 12.608 47.4306 12.6086 47.4174 12.6093C47.2244 12.6187 47.0317 12.6291 46.8385 12.636C46.3307 12.6542 45.8237 12.688 45.3164 12.7175C45.3115 12.7178 45.1454 12.7204 45.1626 12.7124C45.309 12.645 45.4832 12.6233 45.6364 12.5838C46.0885 12.4672 46.549 12.3828 47.0126 12.3571C47.1205 12.3511 47.2286 12.3476 47.336 12.3342C47.4405 12.3211 47.1262 12.349 47.0216 12.3609C46.4608 12.4248 45.902 12.4934 45.3458 12.5978C45.2944 12.6075 45.0111 12.7039 44.9568 12.6615C44.9357 12.6451 45.0027 12.6355 45.0269 12.6258C45.1337 12.5831 45.2432 12.5485 45.3526 12.515C46.041 12.3041 46.7687 12.2183 47.4819 12.2183C47.7302 12.2183 46.9853 12.2345 46.7378 12.2565C46.3891 12.2875 46.0427 12.3369 45.6975 12.4004C45.4663 12.443 45.2187 12.4732 44.9952 12.5571C44.9139 12.5876 45.0293 12.5545 45.0359 12.552C45.187 12.4958 45.336 12.4325 45.4905 12.389C46.0041 12.2443 46.5394 12.2584 47.0635 12.2068C47.1138 12.2019 47.5028 12.1652 47.2523 12.1737C46.7011 12.1925 46.1309 12.2455 45.5878 12.3507C45.5307 12.3618 45.1152 12.476 45.3842 12.3915C45.7112 12.2889 46.0354 12.2175 46.3726 12.1724C46.6064 12.1412 46.8396 12.1174 47.0714 12.0705C47.279 12.0286 46.9392 12.0779 46.8973 12.0858C46.4983 12.1612 46.096 12.1962 45.6963 12.2641C45.6635 12.2697 45.2405 12.3641 45.4724 12.2973C46.1096 12.1137 46.804 12.0891 47.4581 12.04C47.5858 12.0304 47.6402 12.0788 47.483 12.0807C47.1266 12.0851 46.7753 12.1139 46.4201 12.1495C46.011 12.1905 45.6063 12.2527 45.1988 12.3049C45.124 12.3145 45.1709 12.3099 45.2101 12.3049C45.3557 12.2863 45.4999 12.2506 45.6432 12.217C46.0361 12.1248 46.4256 12.0415 46.826 12.0018C46.9806 11.9865 47.1352 11.9731 47.2897 11.9559C47.5564 11.9263 47.2031 11.9996 47.1506 12.0069C46.5524 12.09 45.9478 12.1264 45.3526 12.2361C45.2996 12.2459 45.3541 12.2385 45.3684 12.2361C45.4602 12.2206 45.5516 12.1998 45.6432 12.1826C45.9587 12.1234 46.2747 12.0822 46.5919 12.0349C46.7608 12.0097 46.9291 11.9772 47.0985 11.9572C47.1617 11.9498 47.1979 11.947 47.2591 11.9445C47.2885 11.9432 47.3654 11.9221 47.3473 11.9483C47.3242 11.9818 47.2135 11.9815 47.1845 11.9839C47.0272 11.997 46.8692 12.0008 46.7118 12.012C46.2787 12.0428 45.8439 12.0845 45.4148 12.1597C45.2509 12.1884 45.4633 12.1478 45.5086 12.1381C45.7888 12.0776 46.0757 12.0518 46.359 12.0171C46.5902 11.9887 46.8257 11.9874 47.0556 11.9483C47.1501 11.9322 46.8735 11.9871 46.8452 11.989C46.5141 12.012 46.1822 12.0382 45.8524 12.0795C45.8168 12.0839 45.3459 12.1321 45.6104 12.0833C45.8291 12.0429 46.4865 11.9658 46.2651 11.9534C46.1025 11.9442 45.931 11.9843 45.7687 11.9992C45.7309 12.0027 45.4006 12.051 45.5787 11.989C45.9701 11.8528 47.213 11.8744 46.8034 11.8744C46.4192 11.8744 46.0344 11.9661 45.6488 11.9661C45.5711 11.9661 45.7001 11.9438 45.7212 11.9432C45.84 11.9397 45.9536 11.9141 46.0718 11.9024C46.095 11.9001 46.3698 11.8588 46.368 11.8566C46.3431 11.8245 46.101 11.8743 46.0661 11.8757C45.8754 11.8834 45.6876 11.9203 45.4962 11.9203C45.4367 11.9203 45.5617 11.8979 45.5787 11.8973C45.7164 11.8928 45.8548 11.8973 45.9926 11.8973C46.0997 11.8973 45.7785 11.8973 45.6715 11.8973C45.6372 11.8973 45.6029 11.8973 45.5685 11.8973C45.5587 11.8973 45.5999 11.8744 45.59 11.8744C45.5415 11.8744 45.3602 11.8952 45.4973 11.8731C45.5795 11.8599 45.6799 11.8228 45.7619 11.8286C45.7744 11.8294 45.6475 11.8515 45.6093 11.8515C45.5309 11.8515 45.5083 11.8286 45.5991 11.8286C45.6531 11.8286 45.7194 11.8405 45.7721 11.8273C45.8436 11.8094 45.6165 11.8286 45.6398 11.8286C45.6869 11.8286 45.9397 11.7702 45.7981 11.8005C45.7413 11.8127 45.6628 11.8286 45.6093 11.8286C45.5093 11.8286 45.692 11.8183 45.7212 11.8107C45.7816 11.7952 45.8528 11.8056 45.9146 11.8056C46.0299 11.8056 46.1453 11.8056 46.2606 11.8056C46.2997 11.8056 46.447 11.8286 46.3319 11.8286C46.2708 11.8286 46.1451 11.8562 46.2606 11.8273C46.3698 11.8 46.4819 11.8056 46.5965 11.8056C46.7055 11.8056 46.8239 11.7827 46.9221 11.7827C47.46 11.7827 47.993 11.805 48.5302 11.8515" stroke="#F7FCFD" stroke-width="3" stroke-linecap="round"/>
<path d="M45.5833 12.1991C45.582 12.1759 45.5782 12.1749 45.5957 12.1928" stroke="#F7FCFD" stroke-width="3" stroke-linecap="round"/>
<path d="M45.6055 12.1614L45.618 12.1748" stroke="#F7FCFD" stroke-width="3" stroke-linecap="round"/>
<path d="M45.6344 12.1257C45.6306 12.1063 45.6215 12.1096 45.6406 12.094" stroke="#F7FCFD" stroke-width="3" stroke-linecap="round"/>
<path d="M45.6427 12.0899C45.6371 12.081 45.6441 12.0813 45.6495 12.0757" stroke="#F7FCFD" stroke-width="3" stroke-linecap="round"/>
<path d="M45.6484 12.0636L45.6676 12.0569" stroke="#F7FCFD" stroke-width="3" stroke-linecap="round"/>
<path d="M45.6764 12.0508C45.6657 12.0496 45.6764 12.0494 45.6825 12.0508" stroke="#F7FCFD" stroke-width="3" stroke-linecap="round"/>
<path d="M45.6855 12.0445C45.6795 12.0382 45.6894 12.0437 45.6919 12.0445" stroke="#F7FCFD" stroke-width="3" stroke-linecap="round"/>
<path d="M45.6948 12.0392C45.6881 12.0327 45.6824 12.0325 45.6948 12.0325" stroke="#F7FCFD" stroke-width="3" stroke-linecap="round"/>
<path d="M45.6914 12.02V12.0343" stroke="#F7FCFD" stroke-width="3" stroke-linecap="round"/>
<path d="M45.6982 12.0206C45.6917 12.0134 45.6914 12.0072 45.6914 12.0206" stroke="#F7FCFD" stroke-width="3" stroke-linecap="round"/>
<path d="M45.691 12.0142C45.6863 12.0099 45.6863 12.0099 45.691 12.0142" stroke="#F7FCFD" stroke-width="3" stroke-linecap="round"/>
<path d="M45.6966 12.0145C45.6934 12.0141 45.6825 12.0078 45.6902 12.0078" stroke="#F7FCFD" stroke-width="3" stroke-linecap="round"/>
<path d="M45.6875 12.0096C45.6875 12.0003 45.6871 11.9991 45.6947 11.9954" stroke="#F7FCFD" stroke-width="3" stroke-linecap="round"/>
<path d="M45.6914 11.9976C45.6914 11.9883 45.691 11.9872 45.6986 11.9834" stroke="#F7FCFD" stroke-width="3" stroke-linecap="round"/>
<path d="M45.6984 11.9848C45.6977 11.9785 45.6918 11.9771 45.6984 11.9771" stroke="#F7FCFD" stroke-width="3" stroke-linecap="round"/>
<path d="M45.7025 11.9788C45.6979 11.9737 45.6974 11.9707 45.6953 11.9646" stroke="#F7FCFD" stroke-width="3" stroke-linecap="round"/>
<path d="M45.7026 11.9667C45.6971 11.9599 45.6992 11.9626 45.7026 11.959" stroke="#F7FCFD" stroke-width="3" stroke-linecap="round"/>
<path d="M45.7031 11.9594C45.7039 11.9532 45.7052 11.9549 45.7096 11.9526" stroke="#F7FCFD" stroke-width="3" stroke-linecap="round"/>
<path d="M45.7907 12.0703C45.7624 12.0619 45.7626 12.0569 45.7907 12.0569" stroke="#F7FCFD" stroke-width="3" stroke-linecap="round"/>
<path d="M45.7805 12.0637C45.7662 12.0555 45.7765 12.057 45.7867 12.057" stroke="#F7FCFD" stroke-width="3" stroke-linecap="round"/>
<path d="M45.7845 12.0584C45.7637 12.0559 45.7759 12.0449 45.7909 12.0449" stroke="#F7FCFD" stroke-width="3" stroke-linecap="round"/>
<path d="M45.7784 12.0269C45.7714 12.0189 45.7625 12.0034 45.7784 12.0142" stroke="#F7FCFD" stroke-width="3" stroke-linecap="round"/>
<path d="M45.7717 12.0164C45.7699 12.013 45.7555 11.9923 45.7649 12.0022" stroke="#F7FCFD" stroke-width="3" stroke-linecap="round"/>
<path d="M45.7664 11.9962C45.7618 11.9952 45.7539 11.9895 45.7539 11.9895" stroke="#F7FCFD" stroke-width="3" stroke-linecap="round"/>
<path d="M45.7616 11.9717C45.7547 11.9638 45.7519 11.9598 45.7554 11.9526" stroke="#F7FCFD" stroke-width="3" stroke-linecap="round"/>
<path d="M45.7562 11.9486C45.7553 11.9397 45.7515 11.9393 45.7562 11.9343" stroke="#F7FCFD" stroke-width="3" stroke-linecap="round"/>
<path d="M45.7617 11.9094V11.9237" stroke="#F7FCFD" stroke-width="3" stroke-linecap="round"/>
<path d="M45.7548 11.9054C45.7441 11.9029 45.7452 11.897 45.748 11.8911" stroke="#F7FCFD" stroke-width="3" stroke-linecap="round"/>
<path d="M45.7407 11.8794C45.7357 11.8704 45.7245 11.8655 45.7345 11.8604" stroke="#F7FCFD" stroke-width="3" stroke-linecap="round"/>
<path d="M45.7377 11.8563C45.737 11.8512 45.7327 11.8465 45.7305 11.842" stroke="#F7FCFD" stroke-width="3" stroke-linecap="round"/>
<path d="M45.7333 11.8311C45.724 11.83 45.7181 11.8226 45.7272 11.8176" stroke="#F7FCFD" stroke-width="3" stroke-linecap="round"/>
<path d="M45.7298 11.8194C45.7253 11.8143 45.7247 11.8112 45.7227 11.8052" stroke="#F7FCFD" stroke-width="3" stroke-linecap="round"/>
<path d="M45.7294 11.8003C45.7201 11.7992 45.7142 11.7919 45.7233 11.7869" stroke="#F7FCFD" stroke-width="3" stroke-linecap="round"/>
<path d="M45.7031 11.7742L45.7156 11.7876" stroke="#F7FCFD" stroke-width="3" stroke-linecap="round"/>
<path d="M45.7039 11.7878C45.7028 11.7777 45.6961 11.7711 45.6914 11.7811" stroke="#F7FCFD" stroke-width="3" stroke-linecap="round"/>
<path d="M45.6881 11.7806C45.6791 11.7806 45.678 11.7794 45.6817 11.7873" stroke="#F7FCFD" stroke-width="3" stroke-linecap="round"/>
<path d="M45.6822 11.7869C45.672 11.7822 45.6755 11.7862 45.6822 11.7869" stroke="#F7FCFD" stroke-width="3" stroke-linecap="round"/>
<path d="M45.6875 11.7862C45.6895 11.7799 45.6955 11.7852 45.7 11.7862" stroke="#F7FCFD" stroke-width="3" stroke-linecap="round"/>
<path d="M45.7031 11.7805H45.7156" stroke="#F7FCFD" stroke-width="3" stroke-linecap="round"/>
<path d="M45.7144 11.7805C45.7098 11.7763 45.7098 11.7763 45.7144 11.7805" stroke="#F7FCFD" stroke-width="3" stroke-linecap="round"/>
<path d="M45.7266 11.7809C45.7273 11.7747 45.7287 11.7764 45.733 11.7742" stroke="#F7FCFD" stroke-width="3" stroke-linecap="round"/>
<path d="M45.7461 11.7809C45.7479 11.7733 45.7527 11.7757 45.7586 11.7742" stroke="#F7FCFD" stroke-width="3" stroke-linecap="round"/>
<path d="M45.7656 11.7742H45.7937" stroke="#F7FCFD" stroke-width="3" stroke-linecap="round"/>
<path d="M45.793 11.7742H45.8154" stroke="#F7FCFD" stroke-width="3" stroke-linecap="round"/>
<path d="M45.8203 11.7747C45.8218 11.7613 45.8368 11.7719 45.8427 11.7747" stroke="#F7FCFD" stroke-width="3" stroke-linecap="round"/>
<path d="M45.8438 11.7751C45.845 11.7645 45.8513 11.7716 45.8562 11.7751" stroke="#F7FCFD" stroke-width="3" stroke-linecap="round"/>
<path d="M45.8633 11.7747C45.8648 11.761 45.8803 11.7705 45.8857 11.7747" stroke="#F7FCFD" stroke-width="3" stroke-linecap="round"/>
<path d="M45.8906 11.7743C45.9016 11.7731 45.9072 11.7726 45.9187 11.7743" stroke="#F7FCFD" stroke-width="3" stroke-linecap="round"/>
<path d="M45.918 11.7742H45.9371" stroke="#F7FCFD" stroke-width="3" stroke-linecap="round"/>
<path d="M45.9414 11.7813C45.9414 11.7635 45.9555 11.7748 45.9694 11.7748" stroke="#F7FCFD" stroke-width="3" stroke-linecap="round"/>
<path d="M46.6287 20.6442C46.5699 20.6442 46.4145 20.6141 46.3704 20.6575C46.2625 20.7639 46.0021 20.6697 45.9202 20.8123C45.8564 20.9234 46.1479 20.9398 46.2105 20.9084C46.2836 20.8718 46.4045 20.8604 46.4901 20.8604C46.679 20.8604 46.8789 20.9056 47.0647 20.9378C47.2836 20.9757 47.5044 20.989 47.7247 21.0272C47.7453 21.0308 47.7599 21.0244 47.7531 20.9965C47.7097 20.8171 47.4494 20.6977 47.323 20.6255C46.8801 20.3726 46.4878 20.2564 45.9984 20.3506C45.8999 20.3696 45.6478 20.4038 45.5884 20.5241C45.5631 20.5755 45.5879 20.6094 45.6263 20.6202" stroke="#F7FCFD" stroke-width="4"/>
<path d="M45.9844 11.7742H46.0068" stroke="#F7FCFD" stroke-width="3" stroke-linecap="round"/>
<path d="M46.022 11.7749C46.0116 11.7623 46.037 11.7737 46.0411 11.7749" stroke="#F7FCFD" stroke-width="3" stroke-linecap="round"/>
<path d="M46.043 11.7742H46.0502" stroke="#F7FCFD" stroke-width="3" stroke-linecap="round"/>
<path d="M46.0664 11.7743C46.0757 11.7732 46.0751 11.7719 46.0855 11.7743" stroke="#F7FCFD" stroke-width="3" stroke-linecap="round"/>
<path d="M46.0898 11.7747C46.0911 11.763 46.1254 11.7683 46.1335 11.7683" stroke="#F7FCFD" stroke-width="3" stroke-linecap="round"/>
<path d="M46.1484 11.7681H46.1676" stroke="#F7FCFD" stroke-width="3" stroke-linecap="round"/>
<path d="M46.1719 11.7748C46.173 11.765 46.1838 11.768 46.191 11.768" stroke="#F7FCFD" stroke-width="3" stroke-linecap="round"/>
<path d="M46.2031 11.768C46.2037 11.7632 46.2579 11.768 46.2686 11.768" stroke="#F7FCFD" stroke-width="3" stroke-linecap="round"/>
<path d="M46.2852 11.7749C46.2865 11.7632 46.2981 11.7722 46.3043 11.7749" stroke="#F7FCFD" stroke-width="3" stroke-linecap="round"/>
<path d="M46.3047 11.7749C46.3061 11.7632 46.3176 11.7722 46.3238 11.7749" stroke="#F7FCFD" stroke-width="3" stroke-linecap="round"/>
<path d="M46.3359 11.7751C46.3372 11.7645 46.3435 11.7716 46.3484 11.7751" stroke="#F7FCFD" stroke-width="3" stroke-linecap="round"/>
<path d="M46.3672 11.7746C46.3688 11.7594 46.3944 11.7716 46.4008 11.7746" stroke="#F7FCFD" stroke-width="3" stroke-linecap="round"/>
<path d="M46.4102 11.7747C46.4116 11.7613 46.4267 11.7719 46.4326 11.7747" stroke="#F7FCFD" stroke-width="3" stroke-linecap="round"/>
<path d="M46.4414 11.7741C46.4606 11.7719 46.4705 11.7701 46.4905 11.7741" stroke="#F7FCFD" stroke-width="3" stroke-linecap="round"/>
<path d="M46.5156 11.7819V11.7742" stroke="#F7FCFD" stroke-width="3" stroke-linecap="round"/>
<path d="M46.5508 11.7805H46.5633" stroke="#F7FCFD" stroke-width="3" stroke-linecap="round"/>
<path d="M46.5898 11.781C46.5999 11.7706 46.6116 11.7779 46.6235 11.781" stroke="#F7FCFD" stroke-width="3" stroke-linecap="round"/>
<path d="M46.6445 11.781C46.6458 11.7701 46.6573 11.7788 46.6637 11.781" stroke="#F7FCFD" stroke-width="3" stroke-linecap="round"/>
<path d="M46.6641 11.7809C46.6656 11.7666 46.6863 11.7764 46.6921 11.7809" stroke="#F7FCFD" stroke-width="3" stroke-linecap="round"/>
<path d="M46.7031 11.7808C46.7118 11.7719 46.7168 11.7741 46.7255 11.7808" stroke="#F7FCFD" stroke-width="3" stroke-linecap="round"/>
<path d="M46.75 11.781C46.7513 11.7693 46.7856 11.7747 46.7937 11.7747" stroke="#F7FCFD" stroke-width="3" stroke-linecap="round"/>
<path d="M46.8281 11.7746C46.8373 11.7746 46.8464 11.7777 46.8505 11.7681" stroke="#F7FCFD" stroke-width="3" stroke-linecap="round"/>
<path d="M46.875 11.7685C46.8865 11.7566 46.8928 11.7661 46.903 11.7751" stroke="#F7FCFD" stroke-width="3" stroke-linecap="round"/>
<path d="M46.9102 11.7744C46.9289 11.7744 46.9461 11.7717 46.9647 11.7681" stroke="#F7FCFD" stroke-width="3" stroke-linecap="round"/>
<path d="M45.6289 20.6204C45.6356 20.6882 45.6591 20.7793 45.6727 20.8486C45.6972 20.9726 45.7001 20.9086 45.7569 20.9086C45.9559 20.9086 46.155 20.9086 46.354 20.9086C46.4755 20.9086 46.5931 20.9566 46.7166 20.9566C46.8177 20.9566 46.9188 20.9566 47.0199 20.9566C47.0972 20.9566 47.1501 20.9792 47.219 21.0154C47.283 21.049 47.3731 21.0253 47.4417 21.0287C47.6706 21.0399 47.9028 21.1405 48.1242 21.1968" stroke="#F7FCFD" stroke-width="4"/>
<path d="M46.9431 12.2693L46.9336 12.2593" stroke="#F7FCFD" stroke-width="3" stroke-linecap="round"/>
<path d="M46.9532 12.2255C46.9463 12.2104 46.9479 12.2083 46.9619 12.1987" stroke="#F7FCFD" stroke-width="3" stroke-linecap="round"/>
<path d="M46.9804 12.165C46.9789 12.1493 46.9688 12.1382 46.9892 12.1382" stroke="#F7FCFD" stroke-width="3" stroke-linecap="round"/>
<path d="M46.9976 12.1218C46.9954 12.1019 46.9826 12.101 47.0063 12.095" stroke="#F7FCFD" stroke-width="3" stroke-linecap="round"/>
<path d="M47.0075 12.061C47.0029 12.05 47.0026 12.0443 47.0075 12.0342" stroke="#F7FCFD" stroke-width="3" stroke-linecap="round"/>
<path d="M47.0234 12.0262C47.0243 12.0178 47.0278 12.015 47.0322 12.0083" stroke="#F7FCFD" stroke-width="3" stroke-linecap="round"/>
<path d="M47.4492 11.8811C47.4518 11.8703 47.4588 11.8738 47.4672 11.8716" stroke="#F7FCFD" stroke-width="3" stroke-linecap="round"/>
<path d="M47.0635 11.9997C47.0558 11.9898 47.0962 11.9669 47.1019 11.9478" stroke="#F7FCFD" stroke-width="3" stroke-linecap="round"/>
<path d="M47.0965 11.9487C47.0845 11.947 47.0804 11.9392 47.0965 11.9392" stroke="#F7FCFD" stroke-width="3" stroke-linecap="round"/>
<path d="M47.0908 11.94C47.075 11.9379 47.0821 11.9258 47.0998 11.9305" stroke="#F7FCFD" stroke-width="3" stroke-linecap="round"/>
<path d="M47.0856 11.9139C47.0768 11.9036 47.0858 11.9004 47.0944 11.896" stroke="#F7FCFD" stroke-width="3" stroke-linecap="round"/>
<path d="M47.0932 11.8965C47.0794 11.8948 47.0886 11.8857 47.0932 11.8787" stroke="#F7FCFD" stroke-width="3" stroke-linecap="round"/>
<path d="M47.0812 11.8706C47.0635 11.8706 47.0632 11.8671 47.0725 11.8528" stroke="#F7FCFD" stroke-width="3" stroke-linecap="round"/>
<path d="M47.0526 11.8533C47.0401 11.8519 47.0386 11.8461 47.0352 11.8354" stroke="#F7FCFD" stroke-width="3" stroke-linecap="round"/>
<path d="M47.0332 11.8279C47.0213 11.8213 47.0236 11.8219 47.0236 11.8179" stroke="#F7FCFD" stroke-width="3" stroke-linecap="round"/>
<path d="M47.0312 11.8187C47.0326 11.8074 47.0403 11.8092 47.0492 11.8092" stroke="#F7FCFD" stroke-width="3" stroke-linecap="round"/>
<path d="M47.0469 11.81L47.0648 11.8005" stroke="#F7FCFD" stroke-width="3" stroke-linecap="round"/>
<path d="M47.0469 11.8005H47.0706" stroke="#F7FCFD" stroke-width="3" stroke-linecap="round"/>
<path d="M47.0726 11.8015C47.0643 11.8005 47.0614 11.7967 47.0547 11.792" stroke="#F7FCFD" stroke-width="3" stroke-linecap="round"/>
<path d="M47.042 11.7929C47.0305 11.7922 47.0206 11.7903 47.0332 11.7834" stroke="#F7FCFD" stroke-width="3" stroke-linecap="round"/>
<path d="M47.0324 11.7832H47.0234" stroke="#F7FCFD" stroke-width="3" stroke-linecap="round"/>
<path d="M47.0162 11.7847C47.0089 11.7758 47.0117 11.7794 47.0162 11.7747" stroke="#F7FCFD" stroke-width="3" stroke-linecap="round"/>
<path d="M47.0234 11.7743C47.0247 11.7664 47.0276 11.7721 47.0324 11.7743" stroke="#F7FCFD" stroke-width="3" stroke-linecap="round"/>
<path d="M45.7528 20.8882C45.7501 20.9223 45.7332 20.9504 45.7207 20.9785C45.7063 21.0111 45.6856 21.003 45.6552 21.003C45.6278 21.003 45.6316 20.9953 45.6618 20.9886C45.703 20.9795 45.7438 20.9706 45.7849 20.9626C45.8649 20.9469 45.9493 20.9545 46.0303 20.9551C46.0778 20.9555 46.1058 20.9838 46.1482 20.9838C46.2764 20.9838 46.4072 20.9919 46.5361 20.9934C46.6202 20.9944 46.7038 21.003 46.7881 21.003C46.8701 21.003 46.9537 20.9974 47.0349 21.0131C47.2924 21.0628 47.5575 21.0088 47.8168 21.0412" stroke="#F7FCFD" stroke-width="4"/>
<path d="M47.0625 11.7664C47.0642 11.7503 47.0979 11.7575 47.1086 11.7575" stroke="#F7FCFD" stroke-width="3" stroke-linecap="round"/>
<path d="M47.1172 11.7667C47.119 11.7517 47.1281 11.7617 47.1351 11.7667" stroke="#F7FCFD" stroke-width="3" stroke-linecap="round"/>
<path d="M47.139 11.7658C47.1224 11.7638 47.1432 11.761 47.1555 11.7658" stroke="#F7FCFD" stroke-width="3" stroke-linecap="round"/>
<path d="M47.1758 11.7751C47.1774 11.7604 47.1977 11.7659 47.2074 11.7659" stroke="#F7FCFD" stroke-width="3" stroke-linecap="round"/>
<path d="M47.2188 11.7752C47.2204 11.7602 47.2408 11.766 47.2503 11.766" stroke="#F7FCFD" stroke-width="3" stroke-linecap="round"/>
<path d="M47.2578 11.7657C47.274 11.7657 47.3241 11.76 47.327 11.7657" stroke="#F7FCFD" stroke-width="3" stroke-linecap="round"/>
<path d="M47.336 11.7667C47.3223 11.7502 47.3481 11.7642 47.3539 11.7667" stroke="#F7FCFD" stroke-width="3" stroke-linecap="round"/>
<path d="M47.3555 11.7662C47.3573 11.7496 47.4249 11.7662 47.44 11.7662" stroke="#F7FCFD" stroke-width="3" stroke-linecap="round"/>
<path d="M47.4375 11.7747C47.4464 11.7757 47.453 11.78 47.4612 11.7838" stroke="#F7FCFD" stroke-width="3" stroke-linecap="round"/>
<path d="M47.8867 11.8447C47.8891 11.8015 47.9176 11.8237 47.9482 11.8269" stroke="#F7FCFD" stroke-width="3" stroke-linecap="round"/>
<path d="M46.1684 20.2043C46.1364 20.2043 46.1402 20.2116 46.1586 20.2374" stroke="#F7FCFD" stroke-width="3" stroke-linecap="round"/>
<path d="M45.7305 16.5947V17.8337" stroke="#F7FCFD" stroke-width="4"/>
<path d="M46.1493 20.3257C46.1124 20.3274 46.1247 20.3407 46.1395 20.3698" stroke="#F7FCFD" stroke-width="3" stroke-linecap="round"/>
<path d="M46.1172 20.4028H46.1281" stroke="#F7FCFD" stroke-width="3" stroke-linecap="round"/>
<path d="M46.1318 20.4363C46.1123 20.4378 46.1239 20.4397 46.1318 20.4484" stroke="#F7FCFD" stroke-width="3" stroke-linecap="round"/>
<path d="M46.1206 20.48C46.0993 20.4902 46.0874 20.4877 46.1095 20.5027" stroke="#F7FCFD" stroke-width="3" stroke-linecap="round"/>
<path d="M46.085 20.5572C46.0693 20.5572 46.0673 20.5551 46.0738 20.5693" stroke="#F7FCFD" stroke-width="3" stroke-linecap="round"/>
<path d="M46.0235 20.6237C46.0031 20.6237 45.9904 20.621 45.9844 20.6351" stroke="#F7FCFD" stroke-width="3" stroke-linecap="round"/>
<path d="M45.9467 20.6675C45.9263 20.6675 45.9323 20.6692 45.9467 20.6796" stroke="#F7FCFD" stroke-width="3" stroke-linecap="round"/>
<path d="M45.9487 20.7011C45.9381 20.6877 45.9555 20.6996 45.9599 20.7011" stroke="#F7FCFD" stroke-width="3" stroke-linecap="round"/>
<path d="M45.9638 20.7229C45.9421 20.7229 45.9468 20.7228 45.9638 20.735" stroke="#F7FCFD" stroke-width="3" stroke-linecap="round"/>
<path d="M45.9716 20.7778C45.9499 20.7778 45.9546 20.7777 45.9716 20.7899" stroke="#F7FCFD" stroke-width="3" stroke-linecap="round"/>
<path d="M45.9741 20.8218C45.9538 20.8218 45.9595 20.8234 45.9741 20.8339" stroke="#F7FCFD" stroke-width="3" stroke-linecap="round"/>
<path d="M45.9709 20.8659C45.9487 20.8591 45.9565 20.8645 45.9709 20.8659" stroke="#F7FCFD" stroke-width="3" stroke-linecap="round"/>
<path d="M45.9816 20.8887C45.9697 20.8762 45.981 20.8845 45.9931 20.8887" stroke="#F7FCFD" stroke-width="3" stroke-linecap="round"/>
<path d="M45.9919 20.8998C45.9695 20.8836 45.9735 20.8976 45.9919 20.8998" stroke="#F7FCFD" stroke-width="3" stroke-linecap="round"/>
<path d="M45.9883 20.8989V20.9117" stroke="#F7FCFD" stroke-width="3" stroke-linecap="round"/>
<path d="M45.9931 20.9102C45.9745 20.9115 45.9819 20.9108 45.9819 20.9222" stroke="#F7FCFD" stroke-width="3" stroke-linecap="round"/>
<path d="M45.9936 20.9434C45.9733 20.9434 45.9791 20.945 45.9936 20.9554" stroke="#F7FCFD" stroke-width="3" stroke-linecap="round"/>
<path d="M45.9844 20.9543H45.9953" stroke="#F7FCFD" stroke-width="3" stroke-linecap="round"/>
<path d="M45.9931 20.9653C45.9745 20.9667 45.9819 20.966 45.9819 20.9774" stroke="#F7FCFD" stroke-width="3" stroke-linecap="round"/>
<path d="M45.9826 21.011C45.9745 21.0022 45.9745 21.0022 45.9826 21.011" stroke="#F7FCFD" stroke-width="3" stroke-linecap="round"/>
<path d="M45.9844 21.0203H46.0073" stroke="#F7FCFD" stroke-width="3" stroke-linecap="round"/>
<path d="M46.0114 21.0425C45.9906 21.0402 45.9914 21.0267 46.0114 21.0539" stroke="#F7FCFD" stroke-width="3" stroke-linecap="round"/>
<path d="M46.011 21.0658C46.0097 21.0547 46.0074 21.0578 46 21.0537" stroke="#F7FCFD" stroke-width="3" stroke-linecap="round"/>
<path d="M45.8283 21.0432C45.8188 21.0397 45.7772 21.0315 45.8082 21.0315" stroke="#F7FCFD" stroke-width="3" stroke-linecap="round"/>
<path d="M45.8002 21.044C45.7732 21.0211 45.7806 21.0266 45.7888 21.044" stroke="#F7FCFD" stroke-width="3" stroke-linecap="round"/>
<path d="M45.7805 21.0315L45.7695 21.0436" stroke="#F7FCFD" stroke-width="3" stroke-linecap="round"/>
<path d="M45.7677 21.0425C45.756 21.0443 45.7645 21.0485 45.7677 21.0553" stroke="#F7FCFD" stroke-width="3" stroke-linecap="round"/>
<path d="M45.9821 20.7124C45.9659 20.6721 45.9883 20.6849 46.0115 20.7011" stroke="#F7FCFD" stroke-width="3" stroke-linecap="round"/>
<path d="M46.0005 20.7336C45.9786 20.7365 46.0063 20.7872 46.0112 20.7998" stroke="#F7FCFD" stroke-width="3" stroke-linecap="round"/>
<path d="M46.0059 20.855C45.9675 20.8589 45.9888 20.8704 46.0059 20.8881" stroke="#F7FCFD" stroke-width="3" stroke-linecap="round"/>
<path d="M45.9911 20.91C45.9595 20.91 45.9707 20.905 45.9707 20.9328" stroke="#F7FCFD" stroke-width="3" stroke-linecap="round"/>
<path d="M45.9328 20.9547C45.9231 20.9453 45.9271 20.949 45.9219 20.9547" stroke="#F7FCFD" stroke-width="3" stroke-linecap="round"/>
<path d="M45.9145 20.9549C45.8978 20.9537 45.8759 20.9383 45.9044 20.9549" stroke="#F7FCFD" stroke-width="3" stroke-linecap="round"/>
<path d="M45.9141 20.9654C45.9141 20.9501 45.9141 20.973 45.9141 20.9768" stroke="#F7FCFD" stroke-width="3" stroke-linecap="round"/>
<path d="M45.9023 20.9873H45.9325" stroke="#F7FCFD" stroke-width="3" stroke-linecap="round"/>
<path d="M45.9351 21.0098C45.9175 21.012 45.9292 21.0236 45.9351 21.0325" stroke="#F7FCFD" stroke-width="3" stroke-linecap="round"/>
<path d="M45.9336 21.0425H45.9446" stroke="#F7FCFD" stroke-width="3" stroke-linecap="round"/>
<path d="M45.9446 21.0546L45.9336 21.0425" stroke="#F7FCFD" stroke-width="3" stroke-linecap="round"/>
<path d="M45.8827 21.0433C45.8707 21.0367 45.8331 21.0204 45.8626 21.0433" stroke="#F7FCFD" stroke-width="3" stroke-linecap="round"/>
<path d="M45.8576 21.0437C45.8495 21.0349 45.8495 21.0349 45.8576 21.0437" stroke="#F7FCFD" stroke-width="3" stroke-linecap="round"/>
<path d="M45.8466 21.032C45.8315 21.032 45.823 21.0356 45.8164 21.0203" stroke="#F7FCFD" stroke-width="3" stroke-linecap="round"/>
<path d="M45.8012 21.0215C45.7807 21.0215 45.7539 21.0308 45.781 21.0098" stroke="#F7FCFD" stroke-width="3" stroke-linecap="round"/>
<path d="M45.7891 21.0098C45.8066 21.0123 45.8002 21.0245 45.8192 21.0098" stroke="#F7FCFD" stroke-width="3" stroke-linecap="round"/>
<path d="M45.8359 21.0203H45.9045" stroke="#F7FCFD" stroke-width="3" stroke-linecap="round"/>
<path d="M45.9219 21.0203C45.9234 21.0321 45.927 21.0235 45.9328 21.0203" stroke="#F7FCFD" stroke-width="3" stroke-linecap="round"/>
<path d="M45.9688 21.0208C45.9708 21.0015 46.0048 21.0094 46.0177 21.0094" stroke="#F7FCFD" stroke-width="3" stroke-linecap="round"/>
<path d="M46.0352 21.0209C46.0542 21.0209 46.0662 21.0178 46.0841 21.0095" stroke="#F7FCFD" stroke-width="3" stroke-linecap="round"/>
<path d="M46.0993 21.0098C46.0844 21.0278 46.1034 21.0149 46.1108 21.0098" stroke="#F7FCFD" stroke-width="3" stroke-linecap="round"/>
<path d="M46.1314 21.009C46.1108 21.0065 46.1451 21.0028 46.1608 21.009" stroke="#F7FCFD" stroke-width="3" stroke-linecap="round"/>
<path d="M46.1602 21.0098C46.1802 21.0098 46.203 21.0215 46.1702 21.0215" stroke="#F7FCFD" stroke-width="3" stroke-linecap="round"/>
<path d="M46.1602 21.0206C46.1602 21.0053 46.1602 21.0282 46.1602 21.032" stroke="#F7FCFD" stroke-width="3" stroke-linecap="round"/>
<path d="M46.125 21.0425H46.1479" stroke="#F7FCFD" stroke-width="3" stroke-linecap="round"/>
<path d="M46.1205 21.0425H46.0977" stroke="#F7FCFD" stroke-width="3" stroke-linecap="round"/>
<path d="M46 21.0425H46.0783" stroke="#F7FCFD" stroke-width="3" stroke-linecap="round"/>
<path d="M45.9141 21.0425H45.9826" stroke="#F7FCFD" stroke-width="3" stroke-linecap="round"/>
<path d="M45.8928 21.0427C45.8743 21.0427 45.8455 21.0377 45.8242 21.0541" stroke="#F7FCFD" stroke-width="3" stroke-linecap="round"/>
<path d="M45.7991 21.0537C45.7701 21.0537 45.7425 21.0647 45.7158 21.0647C45.6923 21.0647 45.6541 21.07 45.6914 21.0868" stroke="#F7FCFD" stroke-width="3" stroke-linecap="round"/>
<path d="M45.7063 21.0878L45.6953 21.0757" stroke="#F7FCFD" stroke-width="3" stroke-linecap="round"/>
<path d="M45.7383 21.0875C45.7405 21.0684 45.7522 21.0811 45.7612 21.0875" stroke="#F7FCFD" stroke-width="3" stroke-linecap="round"/>
<path d="M45.8164 21.0648C45.8406 21.063 45.8399 21.0529 45.8654 21.0648" stroke="#F7FCFD" stroke-width="3" stroke-linecap="round"/>
<path d="M45.8867 21.0538C45.9055 21.0538 45.9151 21.0425 45.9357 21.0425" stroke="#F7FCFD" stroke-width="3" stroke-linecap="round"/>
<path d="M45.9453 21.0425H45.9682" stroke="#F7FCFD" stroke-width="3" stroke-linecap="round"/>
<path d="M46 21.0429C46.0289 21.0429 46.0638 21.0503 46.0881 21.0315" stroke="#F7FCFD" stroke-width="3" stroke-linecap="round"/>
<path d="M50.1328 20.1131C50.1694 20.1131 50.1886 20.1118 50.2209 20.0903" stroke="#F7FCFD" stroke-width="3" stroke-linecap="round"/>
<path d="M44.3469 21.6619C44.3141 21.6694 44.1426 21.8006 44.1486 21.8376C44.1633 21.928 44.3009 21.9052 44.3639 21.9052C44.4945 21.9052 44.5316 21.8051 44.6113 21.7237C44.6578 21.6762 44.7206 21.7181 44.7718 21.6774C44.8321 21.6295 44.9195 21.5785 44.9966 21.5693C45.0452 21.5634 44.9174 21.7159 44.8757 21.7314C44.8249 21.7503 45.1018 21.76 45.1817 21.7237C45.4464 21.6034 45.7216 21.6272 46.0127 21.6272C46.3004 21.6272 46.573 21.5924 46.8625 21.5924" stroke="black" stroke-linecap="round"/>
<path d="M44.1722 11.1323C44.1676 11.1556 44.0907 11.2717 44.1268 11.2482C44.2103 11.1939 44.2765 11.1671 44.3761 11.1671" stroke="white" stroke-linecap="round"/>
<path d="M44.1094 11.2712C44.0188 11.2712 43.9281 11.2712 43.8375 11.2712C43.8259 11.2712 43.8839 11.2598 43.8979 11.2287C43.9521 11.1079 43.9277 11.2576 43.879 11.3137C43.7406 11.4728 43.9807 11.327 44.0263 11.3137C44.1247 11.2849 44.1872 11.2805 44.2643 11.2017C44.3545 11.1095 44.5101 11.1741 44.6193 11.1245C44.7509 11.0647 44.9345 11.0279 45.0783 11.0279C45.7212 11.0279 46.3621 10.9932 46.999 10.9932" stroke="black" stroke-linecap="round"/>
<path d="M46.957 22.929C46.957 22.5923 47.0027 22.2876 47.0027 21.9482" stroke="black" stroke-linecap="round"/>
<path d="M46.9764 23.0224C46.8562 23.007 46.9259 22.6621 46.9307 22.5787C46.9366 22.4756 46.9764 22.3772 46.9764 22.2751" stroke="black" stroke-linecap="round"/>
<path d="M47.0078 9.25806C47.0078 9.48619 47.0078 9.71433 47.0078 9.94246C47.0078 10.1362 47.1035 10.2359 47.1623 10.4163" stroke="black" stroke-linecap="round"/>
<path d="M47.1616 10.4163C47.1306 10.5745 47.0586 10.8994 47.0586 10.545C47.0586 10.3617 47.0586 10.1784 47.0586 9.99512" stroke="black" stroke-linecap="round"/>
<path d="M44.9769 20.7922C44.9336 20.8144 44.9128 20.8674 44.8656 20.8863C44.7946 20.9149 44.8509 20.957 44.905 20.9694C44.9626 20.9825 45.0623 20.8579 45.1058 20.9341C45.1437 21.0005 45.0589 21.035 45.0148 21.0584C44.9708 21.0818 44.9308 21.1244 44.8794 21.1274C44.8307 21.1302 44.7971 21.1291 44.7505 21.151C44.677 21.1856 44.5983 21.2187 44.5166 21.226C44.407 21.2357 44.2924 21.2539 44.1844 21.2773C44.1255 21.2901 44.0659 21.2994 44.0072 21.3125C43.9917 21.316 43.8358 21.3707 43.8575 21.3176C43.9039 21.2044 44.0667 21.1722 44.1706 21.1566C44.1928 21.1532 44.3649 21.1187 44.3252 21.1797C44.316 21.1938 44.238 21.2992 44.2149 21.2733C44.1757 21.2293 44.2553 21.1954 44.2858 21.1998" stroke="white" stroke-width="0.1" stroke-linecap="round"/>
<path d="M44.1822 21.2997C44.1639 21.351 44.0884 21.354 44.0453 21.354C43.9728 21.354 43.9166 21.3886 43.8548 21.4255C43.827 21.442 43.8197 21.4393 43.8612 21.4335C43.8876 21.4298 43.9008 21.4235 43.9213 21.4083C43.9527 21.385 43.9962 21.404 44.0227 21.3812C44.0489 21.3586 44.1251 21.3721 44.1251 21.3721C44.1251 21.3721 44.078 21.3705 44.0547 21.3726C44.0337 21.3745 44.0144 21.3931 44.0005 21.4083C43.9872 21.423 43.9449 21.4273 43.9715 21.4104C43.9949 21.3954 44.0233 21.3931 44.0493 21.3857C44.1191 21.3659 44.189 21.3481 44.2599 21.3339C44.346 21.3167 44.4296 21.312 44.5144 21.2856C44.637 21.2474 44.7533 21.2403 44.8792 21.2252C44.9816 21.2129 45.083 21.1878 45.1853 21.1749C45.2451 21.1673 45.3054 21.1589 45.3625 21.1376C45.3729 21.1338 45.3134 21.1193 45.3104 21.1185C45.2618 21.1063 45.2138 21.1005 45.1637 21.1024C45.1418 21.1032 44.8305 21.1285 44.892 21.196C44.9207 21.2276 44.972 21.2089 45.0017 21.1925C45.0341 21.1746 45.0765 21.1421 45.016 21.1371C44.9662 21.133 44.7918 21.102 44.7541 21.1527C44.7455 21.1644 44.8299 21.1906 44.8349 21.192C44.8667 21.2007 44.8741 21.195 44.8998 21.1819" stroke="white" stroke-width="0.1" stroke-linecap="round"/>
<path d="M44.7229 22.3156C44.5889 22.3106 44.4603 22.3266 44.3302 22.3644C44.2773 22.3798 44.2254 22.3974 44.1719 22.4111C44.155 22.4154 43.967 22.4641 44.0694 22.4489C44.1323 22.4396 44.1947 22.417 44.2556 22.3986C44.3533 22.3691 44.4527 22.361 44.5525 22.3421C44.6505 22.3235 44.7632 22.3129 44.8533 22.2669C44.9545 22.2152 45.0611 22.1795 45.1694 22.1465C45.2051 22.1357 45.2457 22.1289 45.2831 22.1289C45.3076 22.1289 45.3006 22.1426 45.3095 22.16C45.3222 22.1851 45.5904 22.1573 45.3704 22.1756C45.2233 22.1878 45.0758 22.1777 44.9325 22.2202C44.8407 22.2474 44.7529 22.3058 44.6565 22.3146C44.5789 22.3216 44.7371 22.2891 44.7539 22.2835C44.801 22.2677 44.8377 22.2545 44.8873 22.2503" stroke="white" stroke-width="0.1" stroke-linecap="round"/>
<path d="M46.3047 23.3974C46.3047 23.1627 46.3573 22.9387 46.4288 22.7168C46.4594 22.6219 46.4832 22.5172 46.4858 22.4167C46.4885 22.3116 46.4738 22.5622 46.4716 22.5942C46.4674 22.6539 46.4602 22.7308 46.4791 22.7888C46.497 22.8436 46.516 22.8831 46.516 22.9422C46.516 22.9775 46.5213 23.0165 46.5152 23.0511C46.5057 23.1045 46.4877 23.2257 46.4556 23.2586" stroke="white" stroke-width="0.1" stroke-linecap="round"/>
<path d="M1.0009 21.77C1.0009 21.6727 0.994448 21.5704 1.01605 21.475C1.02268 21.4458 1.03461 21.4179 1.04291 21.3892C1.0442 21.3847 1.04937 21.3398 1.05392 21.3691C1.06569 21.4447 1.05709 21.5094 1.05082 21.5831C1.04703 21.6277 1.05364 21.5495 1.05392 21.5458C1.0594 21.4722 1.04968 21.4018 1.05186 21.3286C1.05509 21.2201 1.06288 21.1121 1.06288 21.0034" stroke="white" stroke-width="0.1" stroke-linecap="round"/>
<path d="M43.9514 11.8931C43.8953 11.8931 43.8413 11.8956 43.7865 11.8818C43.7337 11.8685 43.685 11.8397 43.6313 11.8314C43.5976 11.8263 43.6575 11.8348 43.6658 11.834C43.703 11.83 43.7393 11.8151 43.7766 11.8138C43.8036 11.8129 43.8308 11.8138 43.8579 11.8138C43.9173 11.8138 43.9747 11.7801 44.0327 11.7698C44.0912 11.7594 44.1478 11.7459 44.2075 11.737C44.3714 11.7127 44.5226 11.6719 44.6828 11.6326" stroke="white" stroke-width="0.1" stroke-linecap="round"/>
<path d="M43.9498 10.6921C43.931 10.6921 43.7454 10.7198 43.7737 10.7488C43.7913 10.7668 43.6905 10.7607 43.6617 10.774C43.5902 10.8068 43.669 10.7978 43.7097 10.7878C43.7635 10.7745 43.7999 10.7343 43.8556 10.7255C43.9235 10.7148 43.9812 10.6817 44.052 10.6808C44.0889 10.6803 44.1227 10.6825 44.1579 10.6695C44.244 10.6375 44.1019 10.6925 44.0821 10.6965C44.0243 10.7085 43.8952 10.6945 43.8414 10.7312C43.8097 10.7528 43.974 10.7135 43.9892 10.7085C44.082 10.6777 44.1773 10.6595 44.2711 10.6355" stroke="white" stroke-width="0.1" stroke-linecap="round"/>
<path d="M47.5652 9.39404C47.5652 9.60549 47.5195 9.81559 47.5173 10.0269C47.5155 10.1964 47.5287 10.3542 47.5413 10.5216C47.5489 10.6234 47.5532 10.723 47.5532 10.8251C47.5532 10.8802 47.5505 11.0453 47.5559 10.9905C47.5633 10.9147 47.5669 10.8383 47.5586 10.7625C47.5404 10.5978 47.5424 10.4489 47.5646 10.2848C47.5828 10.1499 47.5964 9.99721 47.5532 9.86494C47.5343 9.80671 47.4659 9.7977 47.484 9.87175C47.4939 9.91207 47.5122 9.95133 47.5226 9.99288C47.5749 10.2007 47.6318 10.4094 47.693 10.6148C47.6985 10.6333 47.7221 10.7021 47.7117 10.7305C47.6952 10.7758 47.6512 10.6523 47.6405 10.6053C47.6225 10.5273 47.6147 10.4477 47.6038 10.3685C47.5986 10.3298 47.5959 10.3774 47.5952 10.3862C47.587 10.4893 47.593 10.594 47.5772 10.6965C47.5699 10.7441 47.5535 10.7893 47.5479 10.8374C47.5463 10.8514 47.548 10.9953 47.524 10.9388C47.5039 10.8915 47.4901 10.8418 47.476 10.7925C47.4607 10.7388 47.5023 10.7551 47.5047 10.7081C47.508 10.6419 47.5053 10.575 47.5053 10.5087" stroke="white" stroke-width="0.1" stroke-linecap="round"/>
</svg>
