<svg width="30" height="30" viewBox="0 0 30 30" fill="none" xmlns="http://www.w3.org/2000/svg">
<mask id="path-1-inside-1_1215_7545" fill="white">
<path fill-rule="evenodd" clip-rule="evenodd" d="M5.07792 26.0938C4.89644 25.415 4.13024 24.8352 3.15492 24.7064C1.97142 24.55 0.928142 25.1168 0.824705 25.9723C0.755692 26.5431 1.12248 27.0983 1.72576 27.451C1.69355 27.547 1.67054 27.6479 1.65788 27.7526C1.55723 28.5851 2.14828 29.3488 2.97802 29.4584C3.47077 29.5235 3.93688 29.3433 4.25531 29.0119C4.32729 29.0326 4.40164 29.0482 4.47802 29.0583C5.30777 29.1679 6.06201 28.5819 6.16266 27.7494C6.2535 26.9981 5.78091 26.3028 5.07792 26.0938Z"/>
</mask>
<path d="M5.07792 26.0938L4.11185 26.352L4.25642 26.8928L4.79295 27.0523L5.07792 26.0938ZM3.15492 24.7064L3.02395 25.6977L3.15492 24.7064ZM0.824705 25.9723L1.81747 26.0924L0.824705 25.9723ZM1.72576 27.451L2.67387 27.7689L2.93237 26.9981L2.23048 26.5877L1.72576 27.451ZM1.65788 27.7526L0.665106 27.6326L1.65788 27.7526ZM2.97802 29.4584L2.84705 30.4498H2.84705L2.97802 29.4584ZM4.25531 29.0119L4.53192 28.0509L3.95212 27.884L3.53415 28.3191L4.25531 29.0119ZM4.47802 29.0583L4.34705 30.0497L4.34705 30.0497L4.47802 29.0583ZM6.16266 27.7494L7.15543 27.8695L6.16266 27.7494ZM6.04399 25.8355C5.72371 24.6375 4.51171 23.8769 3.2859 23.715L3.02395 25.6977C3.74878 25.7935 4.06916 26.1924 4.11185 26.352L6.04399 25.8355ZM3.2859 23.715C2.50915 23.6123 1.73555 23.7399 1.1074 24.0812C0.479639 24.4222 -0.0678887 25.0237 -0.168066 25.8523L1.81747 26.0924C1.82074 26.0654 1.84656 25.9557 2.06217 25.8386C2.2774 25.7216 2.61718 25.644 3.02395 25.6977L3.2859 23.715ZM-0.168066 25.8523C-0.302055 26.9605 0.416433 27.8438 1.22104 28.3143L2.23048 26.5877C2.04556 26.4796 1.93115 26.3597 1.87173 26.2644C1.81534 26.174 1.81429 26.1187 1.81747 26.0924L-0.168066 25.8523ZM0.777647 27.133C0.723959 27.2931 0.685937 27.4603 0.665106 27.6326L2.65065 27.8726C2.65514 27.8354 2.66315 27.8009 2.67387 27.7689L0.777647 27.133ZM0.665106 27.6326C0.498892 29.0073 1.4723 30.2682 2.84705 30.4498L3.109 28.4671C2.82425 28.4294 2.61556 28.1629 2.65065 27.8726L0.665106 27.6326ZM2.84705 30.4498C3.66704 30.5582 4.44609 30.2567 4.97647 29.7046L3.53415 28.3191C3.42768 28.4299 3.2745 28.4889 3.109 28.4671L2.84705 30.4498ZM4.609 28.0669C4.5821 28.0634 4.55642 28.0579 4.53192 28.0509L3.9787 29.9728C4.09816 30.0072 4.22119 30.0331 4.34705 30.0497L4.609 28.0669ZM5.16989 27.6294C5.13583 27.9111 4.88514 28.1034 4.609 28.0669L4.34705 30.0497C5.7304 30.2324 6.98819 29.2527 7.15543 27.8695L5.16989 27.6294ZM4.79295 27.0523C5.03585 27.1245 5.20132 27.3695 5.16989 27.6294L7.15543 27.8695C7.30569 26.6267 6.52597 25.481 5.36289 25.1352L4.79295 27.0523Z" fill="black" mask="url(#path-1-inside-1_1215_7545)"/>
<mask id="path-3-inside-2_1215_7545" fill="white">
<path fill-rule="evenodd" clip-rule="evenodd" d="M11.1852 26.8666C8.90825 26.5605 7.16065 24.9424 6.86501 23.04C6.38466 23.1781 5.87108 23.2528 5.3374 23.2528C2.65499 23.2528 0.480469 21.3649 0.480469 19.0361C0.480469 18.14 0.802406 17.3092 1.35134 16.6261C0.520877 15.7717 0 14.5426 0 13.1766C0 10.5957 1.85948 8.50351 4.15328 8.50351C4.39993 8.50351 4.64156 8.5277 4.87639 8.57409C4.95765 4.24703 8.58341 0.763672 13.0443 0.763672C16.7854 0.763672 19.9392 3.21369 20.9074 6.55667C21.6107 6.32774 22.3661 6.20337 23.1524 6.20337C26.9344 6.20337 30.0002 9.08018 30.0002 12.6289C30.0002 15.047 28.5767 17.1532 26.4731 18.2497C26.7802 19.0031 26.9498 19.83 26.9498 20.6975C26.9498 24.2059 24.1759 27.05 20.7542 27.05C18.8544 27.05 17.1544 26.1733 16.0179 24.7929C15.1336 26.267 13.2435 27.1433 11.1852 26.8666Z"/>
</mask>
<path d="M6.86501 23.04L7.85315 22.8865L7.67896 21.7656L6.58877 22.079L6.86501 23.04ZM11.1852 26.8666L11.052 27.8577L11.1852 26.8666ZM1.35134 16.6261L2.13083 17.2525L2.68474 16.5633L2.06844 15.9292L1.35134 16.6261ZM4.87639 8.57409L4.6826 9.55513L5.8538 9.78649L5.87622 8.59286L4.87639 8.57409ZM20.9074 6.55667L19.9468 6.83486L20.2343 7.82739L21.2169 7.50757L20.9074 6.55667ZM26.4731 18.2497L26.0109 17.363L25.2034 17.7839L25.5471 18.6272L26.4731 18.2497ZM16.0179 24.7929L16.7899 24.1573L15.8892 23.0634L15.1603 24.2785L16.0179 24.7929ZM5.87687 23.1936C6.25139 25.6035 8.41034 27.5026 11.052 27.8577L11.3184 25.8755C9.40616 25.6185 8.0699 24.2812 7.85315 22.8865L5.87687 23.1936ZM5.3374 24.2528C5.96453 24.2528 6.57109 24.165 7.14126 24.0011L6.58877 22.079C6.19822 22.1912 5.77764 22.2528 5.3374 22.2528V24.2528ZM-0.519531 19.0361C-0.519531 22.0453 2.24009 24.2528 5.3374 24.2528V22.2528C3.06989 22.2528 1.48047 20.6846 1.48047 19.0361H-0.519531ZM0.571844 15.9997C-0.106966 16.8444 -0.519531 17.8925 -0.519531 19.0361H1.48047C1.48047 18.3875 1.71178 17.774 2.13083 17.2525L0.571844 15.9997ZM-1 13.1766C-1 14.7957 -0.38255 16.2769 0.634233 17.3231L2.06844 15.9292C1.4243 15.2664 1 14.2894 1 13.1766H-1ZM4.15328 7.50351C1.1996 7.50351 -1 10.1576 -1 13.1766H1C1 11.0339 2.51937 9.50351 4.15328 9.50351V7.50351ZM5.07019 7.59305C4.77206 7.53415 4.46554 7.50351 4.15328 7.50351V9.50351C4.33432 9.50351 4.51105 9.52124 4.6826 9.55513L5.07019 7.59305ZM13.0443 -0.236328C8.06149 -0.236328 3.96849 3.66063 3.87657 8.55531L5.87622 8.59286C5.94682 4.83342 9.10533 1.76367 13.0443 1.76367V-0.236328ZM21.8679 6.27848C20.7749 2.50459 17.227 -0.236328 13.0443 -0.236328V1.76367C16.3437 1.76367 19.1034 3.92278 19.9468 6.83486L21.8679 6.27848ZM23.1524 5.20337C22.2603 5.20337 21.4004 5.34454 20.5979 5.60578L21.2169 7.50757C21.8209 7.31095 22.4719 7.20337 23.1524 7.20337V5.20337ZM31.0002 12.6289C31.0002 8.46889 27.4257 5.20337 23.1524 5.20337V7.20337C26.443 7.20337 29.0002 9.69146 29.0002 12.6289H31.0002ZM26.9354 19.1365C29.3346 17.8858 31.0002 15.4574 31.0002 12.6289H29.0002C29.0002 14.6366 27.8188 16.4205 26.0109 17.363L26.9354 19.1365ZM27.9498 20.6975C27.9498 19.6987 27.7544 18.7438 27.3991 17.8723L25.5471 18.6272C25.806 19.2623 25.9498 19.9612 25.9498 20.6975H27.9498ZM20.7542 28.05C24.7516 28.05 27.9498 24.7344 27.9498 20.6975H25.9498C25.9498 23.6773 23.6002 26.05 20.7542 26.05V28.05ZM15.2459 25.4285C16.5608 27.0257 18.5379 28.05 20.7542 28.05V26.05C19.1709 26.05 17.7479 25.3209 16.7899 24.1573L15.2459 25.4285ZM11.052 27.8577C13.4494 28.18 15.7578 27.1705 16.8754 25.3073L15.1603 24.2785C14.5094 25.3636 13.0376 26.1066 11.3184 25.8755L11.052 27.8577Z" fill="black" mask="url(#path-3-inside-2_1215_7545)"/>
<path d="M8.6487 15.2367C8.6487 16.3535 7.88225 17.1896 7.01576 17.1896C6.14926 17.1896 5.38281 16.3535 5.38281 15.2367C5.38281 14.12 6.14926 13.2839 7.01576 13.2839C7.88225 13.2839 8.6487 14.12 8.6487 15.2367Z" fill="#D9D9D9" stroke="black" stroke-width="0.5"/>
<path d="M23.055 15.237C23.055 16.3537 22.2885 17.1898 21.422 17.1898C20.5555 17.1898 19.7891 16.3537 19.7891 15.237C19.7891 14.1203 20.5555 13.2842 21.422 13.2842C22.2885 13.2842 23.055 14.1203 23.055 15.237Z" fill="#D9D9D9" stroke="black" stroke-width="0.5"/>
<path d="M15.8518 15.2367C15.8518 16.3535 15.0854 17.1896 14.2189 17.1896C13.3524 17.1896 12.5859 16.3535 12.5859 15.2367C12.5859 14.12 13.3524 13.2839 14.2189 13.2839C15.0854 13.2839 15.8518 14.12 15.8518 15.2367Z" fill="#D9D9D9" stroke="black" stroke-width="0.5"/>
</svg>
