<svg width="34" height="34" viewBox="0 0 34 34" fill="none" xmlns="http://www.w3.org/2000/svg">
<path opacity="0.8" fill-rule="evenodd" clip-rule="evenodd" d="M16.6615 29.9999C24.0253 29.9999 29.9948 24.0304 29.9948 16.6666C29.9948 9.30279 24.0253 3.33325 16.6615 3.33325C9.29766 3.33325 3.32813 9.30279 3.32813 16.6666C3.32812 24.0304 9.29766 29.9999 16.6615 29.9999ZM33.3281 16.6666C33.3281 25.8713 25.8662 33.3333 16.6615 33.3333C7.45671 33.3333 -0.00520706 25.8713 -0.00520706 16.6666C-0.00520706 7.46184 7.45671 -8.01086e-05 16.6615 -8.01086e-05C25.8662 -8.01086e-05 33.3281 7.46184 33.3281 16.6666ZM17.84 20.4881C18.4908 21.1389 18.4908 22.1942 17.84 22.8451C17.1891 23.496 16.1338 23.496 15.4829 22.8451L10.4829 17.8451C9.83207 17.1942 9.83207 16.1389 10.4829 15.4881L15.4829 10.4881C16.1338 9.8372 17.1891 9.8372 17.84 10.4881C18.4908 11.1389 18.4908 12.1942 17.84 12.8451L15.6851 14.9999L21.6615 14.9999C22.5819 14.9999 23.3281 15.7461 23.3281 16.6666C23.3281 17.5871 22.5819 18.3333 21.6615 18.3333H15.6851L17.84 20.4881Z" fill="#040404"/>
</svg>
