<svg width="66" height="66" viewBox="0 0 66 66" fill="none" xmlns="http://www.w3.org/2000/svg">
<rect x="13" width="40" height="40" rx="20" fill="black"/>
<rect x="23.8574" y="18.8572" width="19.4286" height="2.28571" rx="1.14286" fill="white"/>
<rect x="31.8574" y="29.7144" width="19.4286" height="2.28571" rx="1.14286" transform="rotate(-90 31.8574 29.7144)" fill="white"/>
<path d="M2.47692 62H0.367543L4.2081 51.0909H6.64773L10.4936 62H8.38423L5.47053 53.3281H5.3853L2.47692 62ZM2.54616 57.7227H8.29901V59.31H2.54616V57.7227ZM14.6325 62.1438C13.9897 62.1438 13.4144 61.9787 12.9066 61.6484C12.3988 61.3182 11.9975 60.8388 11.7028 60.2102C11.408 59.5817 11.2607 58.8182 11.2607 57.9197C11.2607 57.0107 11.4098 56.2436 11.7081 55.6186C12.0099 54.9901 12.4165 54.516 12.9279 54.1964C13.4393 53.8732 14.0092 53.7116 14.6378 53.7116C15.1172 53.7116 15.5114 53.7933 15.8203 53.9567C16.1293 54.1165 16.3743 54.31 16.5554 54.5373C16.7365 54.761 16.8768 54.9723 16.9762 55.1712H17.0561V51.0909H18.9897V62H17.0934V60.7109H16.9762C16.8768 60.9098 16.733 61.1211 16.5447 61.3448C16.3565 61.565 16.108 61.7532 15.799 61.9094C15.4901 62.0657 15.1012 62.1438 14.6325 62.1438ZM15.1705 60.5618C15.5788 60.5618 15.9268 60.4517 16.2145 60.2315C16.5021 60.0078 16.7205 59.6971 16.8697 59.2994C17.0188 58.9016 17.0934 58.4382 17.0934 57.9091C17.0934 57.38 17.0188 56.9201 16.8697 56.5295C16.7241 56.1388 16.5075 55.8352 16.2198 55.6186C15.9357 55.402 15.5859 55.2937 15.1705 55.2937C14.7408 55.2937 14.3821 55.4055 14.0945 55.6293C13.8068 55.853 13.5902 56.1619 13.4446 56.5561C13.299 56.9503 13.2262 57.4013 13.2262 57.9091C13.2262 58.4205 13.299 58.8768 13.4446 59.2781C13.5938 59.6758 13.8121 59.9901 14.0998 60.2209C14.391 60.4482 14.7479 60.5618 15.1705 60.5618ZM24.0807 62.1438C23.4379 62.1438 22.8627 61.9787 22.3548 61.6484C21.847 61.3182 21.4458 60.8388 21.151 60.2102C20.8563 59.5817 20.7089 58.8182 20.7089 57.9197C20.7089 57.0107 20.858 56.2436 21.1563 55.6186C21.4582 54.9901 21.8648 54.516 22.3762 54.1964C22.8875 53.8732 23.4575 53.7116 24.086 53.7116C24.5654 53.7116 24.9596 53.7933 25.2686 53.9567C25.5775 54.1165 25.8225 54.31 26.0036 54.5373C26.1847 54.761 26.325 54.9723 26.4244 55.1712H26.5044V51.0909H28.4379V62H26.5416V60.7109H26.4244C26.325 60.9098 26.1812 61.1211 25.993 61.3448C25.8048 61.565 25.5562 61.7532 25.2472 61.9094C24.9383 62.0657 24.5494 62.1438 24.0807 62.1438ZM24.6187 60.5618C25.0271 60.5618 25.3751 60.4517 25.6627 60.2315C25.9504 60.0078 26.1688 59.6971 26.3179 59.2994C26.4671 58.9016 26.5416 58.4382 26.5416 57.9091C26.5416 57.38 26.4671 56.9201 26.3179 56.5295C26.1723 56.1388 25.9557 55.8352 25.6681 55.6186C25.384 55.402 25.0342 55.2937 24.6187 55.2937C24.189 55.2937 23.8303 55.4055 23.5427 55.6293C23.2551 55.853 23.0384 56.1619 22.8928 56.5561C22.7472 56.9503 22.6744 57.4013 22.6744 57.9091C22.6744 58.4205 22.7472 58.8768 22.8928 59.2781C23.042 59.6758 23.2604 59.9901 23.548 60.2209C23.8392 60.4482 24.1961 60.5618 24.6187 60.5618ZM34.2987 62V51.0909H38.3896C39.2276 51.0909 39.9308 51.2472 40.4989 51.5597C41.0707 51.8722 41.5021 52.3018 41.7933 52.8487C42.0881 53.392 42.2354 54.0099 42.2354 54.7024C42.2354 55.402 42.0881 56.0234 41.7933 56.5668C41.4986 57.1101 41.0636 57.538 40.4883 57.8505C39.913 58.1594 39.2045 58.3139 38.3629 58.3139H35.6516V56.6893H38.0966C38.5866 56.6893 38.9879 56.604 39.3004 56.4336C39.6129 56.2631 39.8438 56.0288 39.9929 55.7305C40.1456 55.4322 40.2219 55.0895 40.2219 54.7024C40.2219 54.3153 40.1456 53.9744 39.9929 53.6797C39.8438 53.3849 39.6112 53.1559 39.2951 52.9925C38.9826 52.8256 38.5795 52.7422 38.0859 52.7422H36.2749V62H34.2987ZM47.3184 62.1598C46.5194 62.1598 45.827 61.984 45.241 61.6325C44.6551 61.2809 44.2006 60.7891 43.8774 60.157C43.5578 59.5249 43.398 58.7862 43.398 57.9411C43.398 57.0959 43.5578 56.3555 43.8774 55.7198C44.2006 55.0842 44.6551 54.5906 45.241 54.239C45.827 53.8874 46.5194 53.7116 47.3184 53.7116C48.1175 53.7116 48.8099 53.8874 49.3959 54.239C49.9818 54.5906 50.4346 55.0842 50.7542 55.7198C51.0773 56.3555 51.2389 57.0959 51.2389 57.9411C51.2389 58.7862 51.0773 59.5249 50.7542 60.157C50.4346 60.7891 49.9818 61.2809 49.3959 61.6325C48.8099 61.984 48.1175 62.1598 47.3184 62.1598ZM47.3291 60.6151C47.7623 60.6151 48.1246 60.4961 48.4157 60.2582C48.7069 60.0167 48.9236 59.6935 49.0656 59.2887C49.2112 58.8839 49.284 58.4329 49.284 57.9357C49.284 57.435 49.2112 56.9822 49.0656 56.5774C48.9236 56.169 48.7069 55.8441 48.4157 55.6026C48.1246 55.3612 47.7623 55.2404 47.3291 55.2404C46.8852 55.2404 46.5159 55.3612 46.2211 55.6026C45.93 55.8441 45.7116 56.169 45.566 56.5774C45.4239 56.9822 45.3529 57.435 45.3529 57.9357C45.3529 58.4329 45.4239 58.8839 45.566 59.2887C45.7116 59.6935 45.93 60.0167 46.2211 60.2582C46.5159 60.4961 46.8852 60.6151 47.3291 60.6151ZM59.3422 55.9808L57.5843 56.1726C57.5346 55.995 57.4476 55.8281 57.3233 55.6719C57.2026 55.5156 57.0392 55.3896 56.8333 55.2937C56.6273 55.1978 56.3752 55.1499 56.0769 55.1499C55.6756 55.1499 55.3382 55.2369 55.0648 55.4109C54.7949 55.5849 54.6618 55.8104 54.6653 56.0874C54.6618 56.3253 54.7488 56.5188 54.9263 56.668C55.1074 56.8171 55.4057 56.9396 55.8212 57.0355L57.2168 57.3338C57.9909 57.5007 58.5662 57.7653 58.9426 58.1275C59.3226 58.4897 59.5144 58.9638 59.5179 59.5497C59.5144 60.0646 59.3635 60.5192 59.0652 60.9134C58.7704 61.304 58.3603 61.6094 57.8347 61.8295C57.3091 62.0497 56.7054 62.1598 56.0236 62.1598C55.0222 62.1598 54.2161 61.9503 53.6053 61.5312C52.9945 61.1087 52.6305 60.521 52.5133 59.7681L54.3936 59.587C54.4789 59.9563 54.66 60.2351 54.937 60.4233C55.214 60.6115 55.5744 60.7056 56.0183 60.7056C56.4764 60.7056 56.8439 60.6115 57.1209 60.4233C57.4015 60.2351 57.5417 60.0025 57.5417 59.7255C57.5417 59.4911 57.4512 59.2976 57.2701 59.1449C57.0925 58.9922 56.8155 58.875 56.4391 58.7933L55.0435 58.5004C54.2587 58.337 53.6781 58.0618 53.3017 57.6747C52.9252 57.2841 52.7388 56.7905 52.7424 56.1939C52.7388 55.6896 52.8755 55.2528 53.1525 54.8835C53.4331 54.5107 53.8219 54.223 54.3191 54.0206C54.8198 53.8146 55.3968 53.7116 56.0502 53.7116C57.0091 53.7116 57.7637 53.9158 58.3141 54.3242C58.8681 54.7326 59.2108 55.2848 59.3422 55.9808ZM65.1935 53.8182V55.3097H60.4901V53.8182H65.1935ZM61.6513 51.858H63.5795V59.5391C63.5795 59.7983 63.6186 59.9972 63.6967 60.1357C63.7784 60.2706 63.8849 60.3629 64.0163 60.4126C64.1477 60.4624 64.2933 60.4872 64.4531 60.4872C64.5739 60.4872 64.6839 60.4783 64.7834 60.4606C64.8864 60.4428 64.9645 60.4268 65.0178 60.4126L65.3427 61.9201C65.2397 61.9556 65.0923 61.9947 64.9006 62.0373C64.7124 62.0799 64.4815 62.1048 64.2081 62.1119C63.7251 62.1261 63.2901 62.0533 62.9031 61.8935C62.516 61.7301 62.2088 61.478 61.9815 61.1371C61.7578 60.7962 61.6477 60.37 61.6513 59.8587V51.858Z" fill="black"/>
</svg>
