<svg width="40" height="40" viewBox="0 0 40 40" fill="none" xmlns="http://www.w3.org/2000/svg">
<line x1="19.6113" y1="20.03" x2="19.6113" y2="32.7928" stroke="black"/>
<line y1="-0.5" x2="16.1446" y2="-0.5" transform="matrix(-0.716561 0.697524 -0.716561 -0.697524 34.3867 23.4843)" stroke="#010101"/>
<line y1="-0.5" x2="8.89616" y2="-0.5" transform="matrix(0.988152 0.153479 -0.160682 0.987006 24.541 20.9602)" stroke="black"/>
<line y1="-0.5" x2="11.4313" y2="-0.5" transform="matrix(0.944547 0.328376 -0.34444 0.938808 7.71094 30.5409)" stroke="#D9D9D9"/>
<line y1="-0.5" x2="20.3652" y2="-0.5" transform="matrix(-0.530187 -0.847881 0.860317 -0.509759 19.2812 32.0424)" stroke="black"/>
<line y1="-0.5" x2="23.5141" y2="-0.5" transform="matrix(0.557584 -0.83012 0.843619 0.536943 6.94141 28.2885)" stroke="black"/>
<line y1="-0.5" x2="11.3199" y2="-0.5" transform="matrix(0.885705 0.464248 -0.484039 0.875047 9.25391 14.7747)" stroke="black"/>
<line y1="-0.5" x2="23.2245" y2="-0.5" transform="matrix(0.630954 0.77582 -0.792086 0.610409 21.0391 5.01514)" stroke="black"/>
<line y1="-0.5" x2="13.0348" y2="-0.5" transform="matrix(0.88752 -0.460769 0.480497 0.876996 9.25391 11.7716)" stroke="black"/>
<path d="M24.719 5.63063C24.719 8.45159 22.3659 10.7613 19.4347 10.7613C16.5035 10.7613 14.1504 8.45159 14.1504 5.63063C14.1504 2.80967 16.5035 0.5 19.4347 0.5C22.3659 0.5 24.719 2.80967 24.719 5.63063Z" fill="white" stroke="black"/>
<ellipse cx="34.2159" cy="21.5481" rx="5.7843" ry="5.63063" fill="black"/>
<path d="M24.719 34.3694C24.719 37.1904 22.3659 39.5 19.4347 39.5C16.5035 39.5 14.1504 37.1904 14.1504 34.3694C14.1504 31.5484 16.5035 29.2388 19.4347 29.2388C22.3659 29.2388 24.719 31.5484 24.719 34.3694Z" fill="white" stroke="black"/>
<path d="M11.0686 28.6636C11.0686 31.4846 8.71552 33.7942 5.7843 33.7942C2.85309 33.7942 0.5 31.4846 0.5 28.6636C0.5 25.8426 2.85309 23.533 5.7843 23.533C8.71552 23.533 11.0686 25.8426 11.0686 28.6636Z" fill="white" stroke="black"/>
<ellipse cx="5.7843" cy="12.1472" rx="5.7843" ry="5.63063" fill="black"/>
<path d="M24.719 19.5646C24.719 22.3856 22.3659 24.6952 19.4347 24.6952C16.5035 24.6952 14.1504 22.3856 14.1504 19.5646C14.1504 16.7436 16.5035 14.434 19.4347 14.434C22.3659 14.434 24.719 16.7436 24.719 19.5646Z" fill="white" stroke="black"/>
<path d="M19.5736 0.751838C20.9032 0.751838 22.1782 1.26597 23.1184 2.18112C24.0585 3.09628 24.5867 4.33749 24.5867 5.63172C24.5867 6.92594 24.0585 8.16716 23.1184 9.08231C22.1782 9.99747 20.9032 10.5116 19.5736 10.5116L19.5736 5.63172V0.751838Z" fill="black"/>
<path d="M19.2506 39.2482C17.9211 39.2482 16.646 38.734 15.7058 37.8189C14.7657 36.9037 14.2375 35.6625 14.2375 34.3683C14.2375 33.0741 14.7657 31.8328 15.7058 30.9177C16.646 30.0025 17.9211 29.4884 19.2506 29.4884L19.2506 34.3683V39.2482Z" fill="black"/>
</svg>
