<svg width="110" height="25" viewBox="0 0 110 25" fill="none" xmlns="http://www.w3.org/2000/svg">
<rect width="110" height="25" rx="10" fill="#F2F1F1"/>
<path d="M19.1442 17.3381V9.79545H21.0511V17.3381H19.1442ZM16.3263 14.5202V12.6133H23.869V14.5202H16.3263Z" fill="#30B4FE"/>
<path d="M39.2405 11.9102H36.9074C36.8648 11.6083 36.7778 11.3402 36.6464 11.1058C36.515 10.8679 36.3463 10.6655 36.1404 10.4986C35.9344 10.3317 35.6965 10.2038 35.4266 10.1151C35.1602 10.0263 34.8708 9.98189 34.5583 9.98189C33.9937 9.98189 33.5019 10.1222 33.0828 10.4027C32.6638 10.6797 32.3389 11.0845 32.108 11.6172C31.8772 12.1463 31.7618 12.7891 31.7618 13.5455C31.7618 14.3232 31.8772 14.9766 32.108 15.5057C32.3424 16.0348 32.6691 16.4343 33.0882 16.7042C33.5072 16.9741 33.9919 17.109 34.5423 17.109C34.8513 17.109 35.1372 17.0682 35.3999 16.9865C35.6663 16.9048 35.9024 16.7859 36.1084 16.6296C36.3144 16.4698 36.4848 16.2763 36.6198 16.049C36.7583 15.8217 36.8541 15.5625 36.9074 15.2713L39.2405 15.282C39.1801 15.7827 39.0292 16.2656 38.7877 16.7308C38.5498 17.1925 38.2284 17.6062 37.8236 17.9719C37.4223 18.3342 36.9429 18.6218 36.3854 18.8349C35.8314 19.0444 35.2046 19.1491 34.5051 19.1491C33.532 19.1491 32.662 18.929 31.895 18.4886C31.1315 18.0483 30.5278 17.4109 30.0839 16.5763C29.6436 15.7418 29.4234 14.7315 29.4234 13.5455C29.4234 12.3558 29.6471 11.3438 30.0945 10.5092C30.542 9.67472 31.1492 9.03906 31.9163 8.60227C32.6833 8.16193 33.5463 7.94176 34.5051 7.94176C35.1372 7.94176 35.7231 8.03054 36.2629 8.2081C36.8062 8.38565 37.2874 8.64489 37.7064 8.98579C38.1254 9.32315 38.4664 9.73686 38.7291 10.2269C38.9955 10.717 39.1659 11.2781 39.2405 11.9102Z" fill="#44A9B1"/>
<path d="M50.9193 13.5455C50.9193 14.7351 50.6938 15.7472 50.2428 16.5817C49.7954 17.4162 49.1846 18.0536 48.4104 18.494C47.6398 18.9308 46.7733 19.1491 45.811 19.1491C44.8415 19.1491 43.9715 18.929 43.2009 18.4886C42.4303 18.0483 41.8213 17.4109 41.3738 16.5763C40.9264 15.7418 40.7027 14.7315 40.7027 13.5455C40.7027 12.3558 40.9264 11.3438 41.3738 10.5092C41.8213 9.67472 42.4303 9.03906 43.2009 8.60227C43.9715 8.16193 44.8415 7.94176 45.811 7.94176C46.7733 7.94176 47.6398 8.16193 48.4104 8.60227C49.1846 9.03906 49.7954 9.67472 50.2428 10.5092C50.6938 11.3438 50.9193 12.3558 50.9193 13.5455ZM48.5809 13.5455C48.5809 12.7749 48.4655 12.125 48.2346 11.5959C48.0074 11.0668 47.686 10.6655 47.2705 10.392C46.855 10.1186 46.3685 9.98189 45.811 9.98189C45.2535 9.98189 44.767 10.1186 44.3515 10.392C43.936 10.6655 43.6128 11.0668 43.382 11.5959C43.1547 12.125 43.0411 12.7749 43.0411 13.5455C43.0411 14.3161 43.1547 14.9659 43.382 15.495C43.6128 16.0241 43.936 16.4254 44.3515 16.6989C44.767 16.9723 45.2535 17.109 45.811 17.109C46.3685 17.109 46.855 16.9723 47.2705 16.6989C47.686 16.4254 48.0074 16.0241 48.2346 15.495C48.4655 14.9659 48.5809 14.3161 48.5809 13.5455ZM81.1483 19V8.09091H85.5162C86.3188 8.09091 86.9882 8.20987 87.5244 8.4478C88.0606 8.68572 88.4637 9.01598 88.7336 9.43857C89.0035 9.8576 89.1384 10.3406 89.1384 10.8874C89.1384 11.3136 89.0532 11.6882 88.8827 12.0114C88.7123 12.331 88.4779 12.5937 88.1796 12.7997C87.8849 13.0021 87.5475 13.146 87.1675 13.2312V13.3377C87.583 13.3555 87.9719 13.4727 88.3341 13.6893C88.6998 13.9059 88.9964 14.2095 89.2236 14.6001C89.4509 14.9872 89.5645 15.4489 89.5645 15.9851C89.5645 16.5639 89.4207 17.0806 89.1331 17.5352C88.849 17.9862 88.4282 18.343 87.8706 18.6058C87.3131 18.8686 86.626 19 85.8092 19H81.1483ZM83.4548 17.1143H85.3351C85.9779 17.1143 86.4466 16.9918 86.7414 16.7468C87.0361 16.4982 87.1835 16.168 87.1835 15.756C87.1835 15.4542 87.1107 15.1879 86.9651 14.957C86.8195 14.7262 86.6118 14.5451 86.3419 14.4137C86.0756 14.2823 85.7577 14.2166 85.3884 14.2166H83.4548V17.1143ZM83.4548 12.6559H85.1647C85.4807 12.6559 85.7613 12.6009 86.0063 12.4908C86.2549 12.3771 86.4502 12.2173 86.5922 12.0114C86.7378 11.8054 86.8106 11.5586 86.8106 11.271C86.8106 10.8768 86.6704 10.5589 86.3898 10.3175C86.1128 10.076 85.7187 9.95526 85.2073 9.95526H83.4548V12.6559Z" fill="#E9877A"/>
<path d="M52.6278 19V8.09091H54.9343V17.0984H59.6112V19H52.6278Z" fill="#E1C86B"/>
<path d="M61.1386 19V8.09091H63.445V17.0984H68.1219V19H61.1386Z" fill="#8F979B"/>
<path d="M71.808 19H69.3364L73.1024 8.09091H76.0747L79.8353 19H77.3637L74.6311 10.5838H74.5459L71.808 19ZM71.6535 14.712H77.4916V16.5124H71.6535V14.712Z" fill="#AC89A3"/>
</svg>
