<svg width="57" height="69" viewBox="0 0 57 69" fill="none" xmlns="http://www.w3.org/2000/svg">
<path d="M1.07599 65V54.0909H8.17116V55.7475H3.0522V58.7092H7.80362V60.3658H3.0522V63.3434H8.21378V65H1.07599ZM11.6788 56.8182L13.3301 59.8384L15.008 56.8182H17.0481L14.5819 60.9091L17.0907 65H15.0613L13.3301 62.0543L11.6149 65H9.56942L12.0623 60.9091L9.63335 56.8182H11.6788ZM18.5396 68.0682V56.8182H20.4359V58.1712H20.5478C20.6472 57.9723 20.7875 57.761 20.9686 57.5373C21.1497 57.31 21.3947 57.1165 21.7037 56.9567C22.0126 56.7933 22.4068 56.7116 22.8862 56.7116C23.5183 56.7116 24.0882 56.8732 24.5961 57.1964C25.1074 57.516 25.5123 57.9901 25.8105 58.6186C26.1124 59.2436 26.2633 60.0107 26.2633 60.9197C26.2633 61.8182 26.1159 62.5817 25.8212 63.2102C25.5265 63.8388 25.1252 64.3182 24.6174 64.6484C24.1096 64.9787 23.5343 65.1438 22.8915 65.1438C22.4228 65.1438 22.0339 65.0657 21.725 64.9094C21.416 64.7532 21.1674 64.565 20.9792 64.3448C20.7946 64.1211 20.6507 63.9098 20.5478 63.7109H20.4679V68.0682H18.5396ZM20.4306 60.9091C20.4306 61.4382 20.5051 61.9016 20.6543 62.2994C20.807 62.6971 21.0254 63.0078 21.3095 63.2315C21.5971 63.4517 21.9451 63.5618 22.3535 63.5618C22.7797 63.5618 23.1365 63.4482 23.4242 63.2209C23.7118 62.9901 23.9284 62.6758 24.074 62.2781C24.2232 61.8768 24.2978 61.4205 24.2978 60.9091C24.2978 60.4013 24.225 59.9503 24.0794 59.5561C23.9338 59.1619 23.7172 58.853 23.4295 58.6293C23.1419 58.4055 22.7832 58.2937 22.3535 58.2937C21.9416 58.2937 21.5918 58.402 21.3042 58.6186C21.0165 58.8352 20.7981 59.1388 20.649 59.5295C20.5034 59.9201 20.4306 60.38 20.4306 60.9091ZM29.8429 54.0909V65H27.9146V54.0909H29.8429ZM35.3946 65.1598C34.5956 65.1598 33.9031 64.984 33.3172 64.6325C32.7313 64.2809 32.2767 63.7891 31.9536 63.157C31.634 62.5249 31.4742 61.7862 31.4742 60.9411C31.4742 60.0959 31.634 59.3555 31.9536 58.7198C32.2767 58.0842 32.7313 57.5906 33.3172 57.239C33.9031 56.8874 34.5956 56.7116 35.3946 56.7116C36.1936 56.7116 36.8861 56.8874 37.472 57.239C38.058 57.5906 38.5107 58.0842 38.8303 58.7198C39.1535 59.3555 39.3151 60.0959 39.3151 60.9411C39.3151 61.7862 39.1535 62.5249 38.8303 63.157C38.5107 63.7891 38.058 64.2809 37.472 64.6325C36.8861 64.984 36.1936 65.1598 35.3946 65.1598ZM35.4053 63.6151C35.8385 63.6151 36.2007 63.4961 36.4919 63.2582C36.7831 63.0167 36.9997 62.6935 37.1418 62.2887C37.2874 61.8839 37.3602 61.4329 37.3602 60.9357C37.3602 60.435 37.2874 59.9822 37.1418 59.5774C36.9997 59.169 36.7831 58.8441 36.4919 58.6026C36.2007 58.3612 35.8385 58.2404 35.4053 58.2404C34.9614 58.2404 34.5921 58.3612 34.2973 58.6026C34.0061 58.8441 33.7877 59.169 33.6421 59.5774C33.5001 59.9822 33.4291 60.435 33.4291 60.9357C33.4291 61.4329 33.5001 61.8839 33.6421 62.2887C33.7877 62.6935 34.0061 63.0167 34.2973 63.2582C34.5921 63.4961 34.9614 63.6151 35.4053 63.6151ZM40.9517 65V56.8182H42.8214V58.1818H42.9066C43.0558 57.7095 43.3114 57.3455 43.6737 57.0898C44.0394 56.8306 44.4567 56.701 44.9254 56.701C45.032 56.701 45.1509 56.7063 45.2823 56.717C45.4173 56.7241 45.5291 56.7365 45.6179 56.7543V58.5281C45.5362 58.4996 45.4066 58.4748 45.229 58.4535C45.055 58.4286 44.8864 58.4162 44.723 58.4162C44.3714 58.4162 44.0554 58.4925 43.7749 58.6452C43.4979 58.7944 43.2795 59.0021 43.1197 59.2685C42.9599 59.5348 42.88 59.842 42.88 60.19V65H40.9517ZM50.1842 65.1598C49.3639 65.1598 48.6555 64.9893 48.0589 64.6484C47.4658 64.304 47.0095 63.8175 46.6899 63.1889C46.3703 62.5568 46.2105 61.8129 46.2105 60.957C46.2105 60.1154 46.3703 59.3768 46.6899 58.7411C47.0131 58.1019 47.464 57.6048 48.0429 57.2496C48.6217 56.891 49.3018 56.7116 50.083 56.7116C50.5873 56.7116 51.0631 56.7933 51.5106 56.9567C51.9616 57.1165 52.3593 57.3651 52.7037 57.7024C53.0518 58.0398 53.3252 58.4695 53.5241 58.9915C53.7229 59.5099 53.8224 60.1278 53.8224 60.8452V61.4364H47.116V60.1367H51.974C51.9704 59.7674 51.8905 59.4389 51.7343 59.1513C51.578 58.8601 51.3596 58.631 51.0791 58.4641C50.8021 58.2972 50.479 58.2138 50.1096 58.2138C49.7155 58.2138 49.3692 58.3097 49.0709 58.5014C48.7726 58.6896 48.54 58.9382 48.3731 59.2472C48.2098 59.5526 48.1263 59.8881 48.1228 60.2539V61.3885C48.1228 61.8643 48.2098 62.2727 48.3838 62.6136C48.5578 62.951 48.801 63.2102 49.1135 63.3913C49.426 63.5689 49.7918 63.6577 50.2108 63.6577C50.4914 63.6577 50.7453 63.6186 50.9726 63.5405C51.1998 63.4588 51.3969 63.3398 51.5638 63.1836C51.7307 63.0273 51.8568 62.8338 51.942 62.603L53.7425 62.8054C53.6288 63.2812 53.4122 63.6967 53.0926 64.0518C52.7765 64.4034 52.3717 64.6768 51.8781 64.8722C51.3845 65.0639 50.8199 65.1598 50.1842 65.1598Z" fill="black"/>
<line x1="26.6113" y1="20.03" x2="26.6113" y2="32.7928" stroke="black"/>
<line y1="-0.5" x2="16.1446" y2="-0.5" transform="matrix(-0.716561 0.697524 -0.716561 -0.697524 41.3867 23.4843)" stroke="black"/>
<line y1="-0.5" x2="8.89616" y2="-0.5" transform="matrix(0.988152 0.153479 -0.160682 0.987006 31.541 20.9602)" stroke="black"/>
<line y1="-0.5" x2="11.4313" y2="-0.5" transform="matrix(0.944547 0.328376 -0.34444 0.938808 14.7109 30.5409)" stroke="black"/>
<line y1="-0.5" x2="20.3652" y2="-0.5" transform="matrix(-0.530187 -0.847881 0.860317 -0.509759 26.2812 32.0424)" stroke="black"/>
<line y1="-0.5" x2="23.5141" y2="-0.5" transform="matrix(0.557584 -0.83012 0.843619 0.536943 13.9414 28.2885)" stroke="black"/>
<line y1="-0.5" x2="11.3199" y2="-0.5" transform="matrix(0.885705 0.464248 -0.484039 0.875047 16.2539 14.7747)" stroke="black"/>
<line y1="-0.5" x2="23.2245" y2="-0.5" transform="matrix(0.630954 0.77582 -0.792086 0.610409 28.0391 5.01514)" stroke="black"/>
<line y1="-0.5" x2="13.0348" y2="-0.5" transform="matrix(0.88752 -0.460769 0.480497 0.876996 16.2539 11.7716)" stroke="black"/>
<path d="M31.719 5.63063C31.719 8.45159 29.3659 10.7613 26.4347 10.7613C23.5035 10.7613 21.1504 8.45159 21.1504 5.63063C21.1504 2.80967 23.5035 0.5 26.4347 0.5C29.3659 0.5 31.719 2.80967 31.719 5.63063Z" fill="white" stroke="white"/>
<path d="M46.5002 21.5481C46.5002 24.3691 44.1472 26.6787 41.2159 26.6787C38.2847 26.6787 35.9316 24.3691 35.9316 21.5481C35.9316 18.7271 38.2847 16.4175 41.2159 16.4175C44.1472 16.4175 46.5002 18.7271 46.5002 21.5481Z" fill="white" stroke="black"/>
<path d="M31.719 34.3694C31.719 37.1904 29.3659 39.5 26.4347 39.5C23.5035 39.5 21.1504 37.1904 21.1504 34.3694C21.1504 31.5484 23.5035 29.2388 26.4347 29.2388C29.3659 29.2388 31.719 31.5484 31.719 34.3694Z" fill="white" stroke="white"/>
<path d="M18.0686 28.6636C18.0686 31.4846 15.7155 33.7942 12.7843 33.7942C9.85309 33.7942 7.5 31.4846 7.5 28.6636C7.5 25.8426 9.85309 23.533 12.7843 23.533C15.7155 23.533 18.0686 25.8426 18.0686 28.6636Z" fill="black" stroke="black"/>
<path d="M18.0686 12.1472C18.0686 14.9682 15.7155 17.2779 12.7843 17.2779C9.85309 17.2779 7.5 14.9682 7.5 12.1472C7.5 9.32627 9.85309 7.0166 12.7843 7.0166C15.7155 7.0166 18.0686 9.32627 18.0686 12.1472Z" fill="white" stroke="black"/>
<path d="M31.719 19.5646C31.719 22.3856 29.3659 24.6952 26.4347 24.6952C23.5035 24.6952 21.1504 22.3856 21.1504 19.5646C21.1504 16.7436 23.5035 14.434 26.4347 14.434C29.3659 14.434 31.719 16.7436 31.719 19.5646Z" fill="black" stroke="black"/>
<path d="M26.5748 10.5116C25.2453 10.5116 23.9702 9.99746 23.0301 9.08231C22.0899 8.16715 21.5618 6.92594 21.5618 5.63171C21.5618 4.33749 22.0899 3.09627 23.0301 2.18112C23.9702 1.26596 25.2453 0.751831 26.5748 0.751831L26.5748 5.63171V10.5116Z" fill="black"/>
<path d="M26.2494 29.4885C27.5789 29.4885 28.854 30.0027 29.7942 30.9178C30.7343 31.833 31.2625 33.0742 31.2625 34.3684C31.2625 35.6626 30.7343 36.9039 29.7942 37.819C28.854 38.7342 27.5789 39.2483 26.2494 39.2483L26.2494 34.3684L26.2494 29.4885Z" fill="black"/>
</svg>
