<svg width="87" height="66" viewBox="0 0 87 66" fill="none" xmlns="http://www.w3.org/2000/svg">
<path d="M10.0408 51.0909V62H8.28303L3.14276 54.5692H3.0522V62H1.07599V51.0909H2.84446L7.9794 58.527H8.07528V51.0909H10.0408ZM15.6778 62.1598C14.8788 62.1598 14.1863 61.984 13.6004 61.6325C13.0145 61.2809 12.5599 60.7891 12.2368 60.157C11.9172 59.5249 11.7574 58.7862 11.7574 57.9411C11.7574 57.0959 11.9172 56.3555 12.2368 55.7198C12.5599 55.0842 13.0145 54.5906 13.6004 54.239C14.1863 53.8874 14.8788 53.7116 15.6778 53.7116C16.4768 53.7116 17.1693 53.8874 17.7552 54.239C18.3412 54.5906 18.7939 55.0842 19.1135 55.7198C19.4367 56.3555 19.5983 57.0959 19.5983 57.9411C19.5983 58.7862 19.4367 59.5249 19.1135 60.157C18.7939 60.7891 18.3412 61.2809 17.7552 61.6325C17.1693 61.984 16.4768 62.1598 15.6778 62.1598ZM15.6885 60.6151C16.1217 60.6151 16.4839 60.4961 16.7751 60.2582C17.0663 60.0167 17.2829 59.6935 17.425 59.2887C17.5706 58.8839 17.6434 58.4329 17.6434 57.9357C17.6434 57.435 17.5706 56.9822 17.425 56.5774C17.2829 56.169 17.0663 55.8441 16.7751 55.6026C16.4839 55.3612 16.1217 55.2404 15.6885 55.2404C15.2446 55.2404 14.8753 55.3612 14.5805 55.6026C14.2893 55.8441 14.0709 56.169 13.9253 56.5774C13.7833 56.9822 13.7123 57.435 13.7123 57.9357C13.7123 58.4329 13.7833 58.8839 13.9253 59.2887C14.0709 59.6935 14.2893 60.0167 14.5805 60.2582C14.8753 60.4961 15.2446 60.6151 15.6885 60.6151ZM25.3205 53.8182V55.3097H20.617V53.8182H25.3205ZM21.7782 51.858H23.7065V59.5391C23.7065 59.7983 23.7456 59.9972 23.8237 60.1357C23.9054 60.2706 24.0119 60.3629 24.1433 60.4126C24.2747 60.4624 24.4203 60.4872 24.5801 60.4872C24.7008 60.4872 24.8109 60.4783 24.9103 60.4606C25.0133 60.4428 25.0914 60.4268 25.1447 60.4126L25.4696 61.9201C25.3667 61.9556 25.2193 61.9947 25.0275 62.0373C24.8393 62.0799 24.6085 62.1048 24.335 62.1119C23.8521 62.1261 23.4171 62.0533 23.03 61.8935C22.6429 61.7301 22.3358 61.478 22.1085 61.1371C21.8848 60.7962 21.7747 60.37 21.7782 59.8587V51.858ZM26.9331 62V53.8182H28.8614V62H26.9331ZM27.9026 52.657C27.5972 52.657 27.3344 52.5558 27.1143 52.3533C26.8941 52.1474 26.784 51.9006 26.784 51.6129C26.784 51.3217 26.8941 51.0749 27.1143 50.8725C27.3344 50.6665 27.5972 50.5636 27.9026 50.5636C28.2116 50.5636 28.4743 50.6665 28.691 50.8725C28.9111 51.0749 29.0212 51.3217 29.0212 51.6129C29.0212 51.9006 28.9111 52.1474 28.691 52.3533C28.4743 52.5558 28.2116 52.657 27.9026 52.657ZM34.9885 53.8182V55.3097H30.1518V53.8182H34.9885ZM31.361 62V53.0458C31.361 52.4954 31.4746 52.0373 31.7019 51.6715C31.9327 51.3058 32.2417 51.0323 32.6287 50.8512C33.0158 50.6701 33.4455 50.5795 33.9178 50.5795C34.2516 50.5795 34.5481 50.6062 34.8074 50.6594C35.0666 50.7127 35.2583 50.7607 35.3826 50.8033L34.9991 52.2947C34.9174 52.2699 34.8145 52.245 34.6902 52.2202C34.5659 52.1918 34.4274 52.1776 34.2747 52.1776C33.916 52.1776 33.6621 52.2646 33.513 52.4386C33.3674 52.609 33.2946 52.854 33.2946 53.1737V62H31.361ZM36.4986 62V53.8182H38.4268V62H36.4986ZM37.468 52.657C37.1626 52.657 36.8999 52.5558 36.6797 52.3533C36.4595 52.1474 36.3494 51.9006 36.3494 51.6129C36.3494 51.3217 36.4595 51.0749 36.6797 50.8725C36.8999 50.6665 37.1626 50.5636 37.468 50.5636C37.777 50.5636 38.0398 50.6665 38.2564 50.8725C38.4766 51.0749 38.5866 51.3217 38.5866 51.6129C38.5866 51.9006 38.4766 52.1474 38.2564 52.3533C38.0398 52.5558 37.777 52.657 37.468 52.657ZM43.9786 62.1598C43.1618 62.1598 42.4605 61.9805 41.8746 61.6218C41.2922 61.2631 40.843 60.7678 40.5269 60.1357C40.2144 59.5 40.0581 58.7685 40.0581 57.9411C40.0581 57.1101 40.218 56.3768 40.5376 55.7411C40.8572 55.1019 41.3081 54.6048 41.8905 54.2496C42.4765 53.891 43.1689 53.7116 43.968 53.7116C44.632 53.7116 45.2197 53.8342 45.7311 54.0792C46.246 54.3207 46.6562 54.6634 46.9616 55.1072C47.267 55.5476 47.441 56.0625 47.4836 56.652H45.6405C45.566 56.2578 45.3884 55.9293 45.1079 55.6665C44.8309 55.4002 44.4598 55.267 43.9946 55.267C43.6004 55.267 43.2542 55.3736 42.9559 55.5866C42.6576 55.7962 42.425 56.098 42.2581 56.4922C42.0947 56.8864 42.0131 57.3587 42.0131 57.9091C42.0131 58.4666 42.0947 58.946 42.2581 59.3473C42.4214 59.745 42.6505 60.0522 42.9452 60.2688C43.2435 60.4819 43.5933 60.5884 43.9946 60.5884C44.2787 60.5884 44.5326 60.5352 44.7563 60.4286C44.9836 60.3185 45.1736 60.1605 45.3263 59.9545C45.479 59.7486 45.5837 59.4982 45.6405 59.2035H47.4836C47.4374 59.7823 47.267 60.2955 46.9722 60.7429C46.6775 61.1868 46.2762 61.5348 45.7684 61.7869C45.2606 62.0355 44.664 62.1598 43.9786 62.1598ZM51.4213 62.1651C50.9029 62.1651 50.4359 62.0728 50.0204 61.8881C49.6085 61.6999 49.2818 61.4229 49.0403 61.0572C48.8024 60.6914 48.6834 60.2404 48.6834 59.7042C48.6834 59.2425 48.7686 58.8608 48.9391 58.5589C49.1096 58.2571 49.3422 58.0156 49.6369 57.8345C49.9316 57.6534 50.2637 57.5167 50.633 57.4244C51.0059 57.3285 51.3912 57.2592 51.7889 57.2166C52.2683 57.1669 52.6571 57.1225 52.9554 57.0835C53.2537 57.0408 53.4703 56.9769 53.6053 56.8917C53.7438 56.8029 53.813 56.6662 53.813 56.4815V56.4496C53.813 56.0483 53.6941 55.7376 53.4561 55.5174C53.2182 55.2972 52.8755 55.1871 52.4281 55.1871C51.9558 55.1871 51.5811 55.2901 51.3042 55.4961C51.0307 55.7021 50.8461 55.9453 50.7502 56.2259L48.9498 55.9702C49.0918 55.473 49.3262 55.0575 49.6529 54.7237C49.9796 54.3864 50.3791 54.1342 50.8514 53.9673C51.3237 53.7969 51.8457 53.7116 52.4174 53.7116C52.8116 53.7116 53.204 53.7578 53.5946 53.8501C53.9853 53.9425 54.3422 54.0952 54.6653 54.3082C54.9885 54.5178 55.2477 54.8036 55.443 55.1658C55.6419 55.5281 55.7413 55.9808 55.7413 56.5241V62H53.8876V60.8761H53.8237C53.7065 61.1033 53.5414 61.3164 53.3283 61.5153C53.1188 61.7106 52.8542 61.8686 52.5346 61.9893C52.2186 62.1065 51.8475 62.1651 51.4213 62.1651ZM51.9221 60.7482C52.3091 60.7482 52.6447 60.6719 52.9288 60.5192C53.2129 60.3629 53.4313 60.157 53.584 59.9013C53.7402 59.6456 53.8184 59.3668 53.8184 59.065V58.1009C53.758 58.1506 53.655 58.1967 53.5094 58.2393C53.3674 58.282 53.2076 58.3192 53.03 58.3512C52.8525 58.3832 52.6767 58.4116 52.5027 58.4364C52.3287 58.4613 52.1777 58.4826 52.0499 58.5004C51.7623 58.5394 51.5048 58.6033 51.2775 58.6921C51.0502 58.7809 50.8709 58.9052 50.7395 59.065C50.6081 59.2212 50.5424 59.4237 50.5424 59.6722C50.5424 60.0273 50.6721 60.2955 50.9313 60.4766C51.1905 60.6577 51.5208 60.7482 51.9221 60.7482ZM61.7658 53.8182V55.3097H57.0623V53.8182H61.7658ZM58.2235 51.858H60.1518V59.5391C60.1518 59.7983 60.1909 59.9972 60.269 60.1357C60.3507 60.2706 60.4572 60.3629 60.5886 60.4126C60.72 60.4624 60.8656 60.4872 61.0254 60.4872C61.1461 60.4872 61.2562 60.4783 61.3556 60.4606C61.4586 60.4428 61.5368 60.4268 61.59 60.4126L61.915 61.9201C61.812 61.9556 61.6646 61.9947 61.4728 62.0373C61.2846 62.0799 61.0538 62.1048 60.7804 62.1119C60.2974 62.1261 59.8624 62.0533 59.4753 61.8935C59.0882 61.7301 58.7811 61.478 58.5538 61.1371C58.3301 60.7962 58.22 60.37 58.2235 59.8587V51.858ZM63.3785 62V53.8182H65.3067V62H63.3785ZM64.3479 52.657C64.0425 52.657 63.7797 52.5558 63.5596 52.3533C63.3394 52.1474 63.2293 51.9006 63.2293 51.6129C63.2293 51.3217 63.3394 51.0749 63.5596 50.8725C63.7797 50.6665 64.0425 50.5636 64.3479 50.5636C64.6569 50.5636 64.9197 50.6665 65.1363 50.8725C65.3564 51.0749 65.4665 51.3217 65.4665 51.6129C65.4665 51.9006 65.3564 52.1474 65.1363 52.3533C64.9197 52.5558 64.6569 52.657 64.3479 52.657ZM70.8585 62.1598C70.0595 62.1598 69.367 61.984 68.7811 61.6325C68.1951 61.2809 67.7406 60.7891 67.4174 60.157C67.0978 59.5249 66.938 58.7862 66.938 57.9411C66.938 57.0959 67.0978 56.3555 67.4174 55.7198C67.7406 55.0842 68.1951 54.5906 68.7811 54.239C69.367 53.8874 70.0595 53.7116 70.8585 53.7116C71.6575 53.7116 72.35 53.8874 72.9359 54.239C73.5218 54.5906 73.9746 55.0842 74.2942 55.7198C74.6174 56.3555 74.7789 57.0959 74.7789 57.9411C74.7789 58.7862 74.6174 59.5249 74.2942 60.157C73.9746 60.7891 73.5218 61.2809 72.9359 61.6325C72.35 61.984 71.6575 62.1598 70.8585 62.1598ZM70.8691 60.6151C71.3024 60.6151 71.6646 60.4961 71.9558 60.2582C72.247 60.0167 72.4636 59.6935 72.6056 59.2887C72.7512 58.8839 72.824 58.4329 72.824 57.9357C72.824 57.435 72.7512 56.9822 72.6056 56.5774C72.4636 56.169 72.247 55.8441 71.9558 55.6026C71.6646 55.3612 71.3024 55.2404 70.8691 55.2404C70.4252 55.2404 70.0559 55.3612 69.7612 55.6026C69.47 55.8441 69.2516 56.169 69.106 56.5774C68.964 56.9822 68.8929 57.435 68.8929 57.9357C68.8929 58.4329 68.964 58.8839 69.106 59.2887C69.2516 59.6935 69.47 60.0167 69.7612 60.2582C70.0559 60.4961 70.4252 60.6151 70.8691 60.6151ZM78.3438 57.206V62H76.4156V53.8182H78.2586V55.2085H78.3545C78.5427 54.7504 78.8428 54.3864 79.2547 54.1165C79.6702 53.8466 80.1833 53.7116 80.7941 53.7116C81.3588 53.7116 81.8506 53.8324 82.2696 54.0739C82.6922 54.3153 83.0189 54.6651 83.2497 55.1232C83.4841 55.5813 83.5995 56.1371 83.596 56.7905V62H81.6677V57.0888C81.6677 56.5419 81.5257 56.114 81.2416 55.805C80.961 55.4961 80.5722 55.3416 80.075 55.3416C79.7377 55.3416 79.4376 55.4162 79.1748 55.5653C78.9156 55.7109 78.7114 55.9222 78.5622 56.1992C78.4166 56.4762 78.3438 56.8118 78.3438 57.206Z" fill="black"/>
<rect width="30" height="40" transform="translate(28 1)" fill="white"/>
<path d="M56.2632 33.909H29.7386C29.4324 33.9095 29.1315 33.8242 28.8664 33.6618C28.6014 33.4994 28.3817 33.2657 28.2295 32.9843C28.0773 32.703 27.9982 32.384 28 32.0598C28.0019 31.7356 28.0847 31.4177 28.2401 31.1383C29.6173 28.6792 30.6495 25.171 30.842 24.4926C30.85 24.4647 30.854 24.4357 30.8538 24.4066V18.5681C30.8538 18.5619 30.8538 18.5551 30.8538 18.5489C30.9237 15.5748 31.6058 13.02 32.8799 10.9614C33.9075 9.29936 35.3142 7.96186 37.0606 6.98542C40.0013 5.34071 42.8729 5.29552 42.9936 5.29456H43.0064C43.1271 5.29456 45.9987 5.34263 48.9394 6.98542C50.6858 7.96186 52.0925 9.29936 53.1201 10.9614C54.3942 13.022 55.0763 15.5768 55.1462 18.5489C55.1462 18.5551 55.1462 18.5619 55.1462 18.5681V24.4066C55.1459 24.4357 55.1499 24.4648 55.158 24.4926C55.3505 25.171 56.384 28.6797 57.7599 31.1383C57.9153 31.4177 57.9981 31.7356 58 32.0598C58.0018 32.384 57.9227 32.703 57.7705 32.9843C57.6183 33.2657 57.3986 33.4994 57.1336 33.6618C56.8685 33.8242 56.5676 33.9095 56.2614 33.909H56.2632ZM32.3073 18.5782V24.4066C32.3074 24.5857 32.2826 24.7639 32.2338 24.9354C32.0326 25.6436 30.9537 29.3104 29.4902 31.922C29.4649 31.9662 29.4515 32.0169 29.4515 32.0686C29.4515 32.1203 29.4649 32.171 29.4902 32.2152C29.5148 32.2623 29.5509 32.3015 29.5948 32.3287C29.6387 32.3558 29.6887 32.37 29.7395 32.3696H56.2632C56.3141 32.37 56.364 32.3558 56.4079 32.3287C56.4518 32.3015 56.4879 32.2623 56.5125 32.2152C56.5379 32.171 56.5512 32.1203 56.5512 32.0686C56.5512 32.0169 56.5379 31.9662 56.5125 31.922C55.0863 29.3739 54.0519 25.9301 53.7685 24.9349C53.72 24.7634 53.6954 24.5852 53.6954 24.4061V18.5782C53.5778 13.7402 51.7501 10.296 48.2619 8.34552C45.6963 6.91331 43.1521 6.8359 43.0009 6.83302C42.8592 6.83638 40.2646 6.91763 37.6932 8.37148C34.2372 10.3268 32.4236 13.7614 32.3073 18.5782Z" fill="black"/>
<path d="M39.517 7.5024C39.3243 7.5024 39.1395 7.42136 39.0033 7.2771C38.867 7.13284 38.7905 6.93719 38.7905 6.73317V5.45913C38.7905 4.2765 39.2342 3.1423 40.024 2.30605C40.8139 1.4698 41.8851 1 43.0021 1C44.1191 1 45.1903 1.4698 45.9801 2.30605C46.77 3.1423 47.2137 4.2765 47.2137 5.45913V6.70913C47.2137 6.91315 47.1371 7.1088 47.0009 7.25306C46.8646 7.39732 46.6798 7.47837 46.4871 7.47837C46.2945 7.47837 46.1097 7.39732 45.9734 7.25306C45.8372 7.1088 45.7606 6.91315 45.7606 6.70913V5.45913C45.7606 4.68452 45.47 3.94164 44.9527 3.39391C44.4353 2.84617 43.7337 2.53846 43.0021 2.53846C42.2705 2.53846 41.5688 2.84617 41.0515 3.39391C40.5342 3.94164 40.2435 4.68452 40.2435 5.45913V6.73317C40.2435 6.93719 40.167 7.13284 40.0307 7.2771C39.8945 7.42136 39.7097 7.5024 39.517 7.5024ZM43.0021 41C39.6896 41 36.9941 38.1466 36.9941 34.6389V33.1399C36.9941 32.9359 37.0707 32.7402 37.2069 32.596C37.3432 32.4517 37.528 32.3707 37.7207 32.3707H48.2835C48.4762 32.3707 48.661 32.4517 48.7972 32.596C48.9335 32.7402 49.01 32.9359 49.01 33.1399V34.6389C49.01 38.1466 46.3169 41 43.0021 41ZM38.4472 33.9091V34.6389C38.4472 35.918 38.9271 37.1446 39.7813 38.049C40.6355 38.9534 41.794 39.4615 43.0021 39.4615C44.2101 39.4615 45.3687 38.9534 46.2229 38.049C47.0771 37.1446 47.557 35.918 47.557 34.6389V33.9091H38.4472Z" fill="black"/>
<rect x="34.4277" y="10.4115" width="18.2143" height="21.1765" fill="black"/>
<rect x="33.3574" y="11.5885" width="3.21429" height="21.1765" fill="black"/>
<rect x="32.2852" y="12.7643" width="2.14286" height="17.6471" fill="black"/>
<rect x="31.2148" y="26.8828" width="23.5714" height="5.88235" fill="black"/>
<ellipse cx="31.7508" cy="30.9998" rx="2.67857" ry="2.94118" fill="black"/>
<ellipse cx="33.8934" cy="26.2941" rx="2.67857" ry="2.94118" fill="black"/>
<ellipse cx="52.1063" cy="25.1183" rx="2.67857" ry="2.94118" fill="black"/>
<ellipse cx="52.1063" cy="21.5883" rx="2.67857" ry="2.94118" fill="black"/>
<ellipse cx="52.1063" cy="18.0584" rx="2.67857" ry="2.94118" fill="black"/>
<ellipse cx="51.036" cy="15.7055" rx="2.67857" ry="2.94118" fill="black"/>
<ellipse cx="48.8934" cy="10.9998" rx="2.67857" ry="2.94118" fill="black"/>
<ellipse cx="45.6786" cy="9.82399" rx="2.67857" ry="2.94118" fill="black"/>
<ellipse cx="42.4637" cy="8.64686" rx="2.67857" ry="2.94118" fill="black"/>
<ellipse cx="39.2508" cy="9.82399" rx="2.67857" ry="2.94118" fill="black"/>
<ellipse cx="36.036" cy="12.1769" rx="2.67857" ry="2.94118" fill="black"/>
<ellipse cx="37.1063" cy="10.9998" rx="2.67857" ry="2.94118" fill="black"/>
<ellipse cx="54.2508" cy="30.9998" rx="2.67857" ry="2.94118" fill="black"/>
</svg>
