<svg width="25" height="34" viewBox="0 0 25 34" fill="none" xmlns="http://www.w3.org/2000/svg">
<path d="M12.3643 18.4167C12.9333 18.4167 13.3946 17.7825 13.3946 17.0001C13.3946 16.2177 12.9333 15.5834 12.3643 15.5834C11.7953 15.5834 11.334 16.2177 11.334 17.0001C11.334 17.7825 11.7953 18.4167 12.3643 18.4167Z" fill="#040404"/>
<path d="M12.3643 8.50008C12.9333 8.50008 13.3946 7.86582 13.3946 7.08341C13.3946 6.30101 12.9333 5.66675 12.3643 5.66675C11.7953 5.66675 11.334 6.30101 11.334 7.08341C11.334 7.86582 11.7953 8.50008 12.3643 8.50008Z" fill="#040404"/>
<path d="M12.3643 28.3334C12.9333 28.3334 13.3946 27.6992 13.3946 26.9167C13.3946 26.1343 12.9333 25.5001 12.3643 25.5001C11.7953 25.5001 11.334 26.1343 11.334 26.9167C11.334 27.6992 11.7953 28.3334 12.3643 28.3334Z" fill="#040404"/>
<path d="M12.3643 18.4167C12.9333 18.4167 13.3946 17.7825 13.3946 17.0001C13.3946 16.2177 12.9333 15.5834 12.3643 15.5834C11.7953 15.5834 11.334 16.2177 11.334 17.0001C11.334 17.7825 11.7953 18.4167 12.3643 18.4167Z" stroke="#1E1E1E" stroke-width="4" stroke-linecap="round" stroke-linejoin="round"/>
<path d="M12.3643 8.50008C12.9333 8.50008 13.3946 7.86582 13.3946 7.08341C13.3946 6.30101 12.9333 5.66675 12.3643 5.66675C11.7953 5.66675 11.334 6.30101 11.334 7.08341C11.334 7.86582 11.7953 8.50008 12.3643 8.50008Z" stroke="#1E1E1E" stroke-width="4" stroke-linecap="round" stroke-linejoin="round"/>
<path d="M12.3643 28.3334C12.9333 28.3334 13.3946 27.6992 13.3946 26.9167C13.3946 26.1343 12.9333 25.5001 12.3643 25.5001C11.7953 25.5001 11.334 26.1343 11.334 26.9167C11.334 27.6992 11.7953 28.3334 12.3643 28.3334Z" stroke="#1E1E1E" stroke-width="4" stroke-linecap="round" stroke-linejoin="round"/>
</svg>
