<svg width="30" height="30" viewBox="0 0 30 30" fill="none" xmlns="http://www.w3.org/2000/svg">
<mask id="path-1-inside-1_512_3512" fill="white">
<path fill-rule="evenodd" clip-rule="evenodd" d="M5.07795 26.0939C4.89653 25.415 4.13031 24.8352 3.15492 24.7064C1.97142 24.55 0.928142 25.1168 0.824705 25.9723C0.75569 26.5432 1.1225 27.0983 1.72581 27.451C1.69358 27.5471 1.67055 27.648 1.65788 27.7528C1.55723 28.5853 2.14828 29.349 2.97802 29.4586C3.47079 29.5237 3.93693 29.3435 4.25535 29.012C4.32732 29.0327 4.40166 29.0483 4.47802 29.0584C5.30777 29.168 6.06201 28.582 6.16266 27.7496C6.2535 26.9982 5.78093 26.3029 5.07795 26.0939Z"/>
</mask>
<path d="M5.07795 26.0939L4.11186 26.3521L4.25638 26.8929L4.79296 27.0524L5.07795 26.0939ZM3.15492 24.7064L3.2859 23.715L3.15492 24.7064ZM0.824705 25.9723L1.81747 26.0924V26.0924L0.824705 25.9723ZM1.72581 27.451L2.67389 27.769L2.9325 26.9981L2.23051 26.5877L1.72581 27.451ZM1.65788 27.7528L0.665106 27.6328L0.665106 27.6328L1.65788 27.7528ZM2.97802 29.4586L2.84705 30.45H2.84705L2.97802 29.4586ZM4.25535 29.012L4.53193 28.051L3.95213 27.8841L3.53417 28.3192L4.25535 29.012ZM4.47802 29.0584L4.34705 30.0498H4.34705L4.47802 29.0584ZM6.16266 27.7496L5.16989 27.6295L6.16266 27.7496ZM6.04405 25.8357C5.72387 24.6376 4.51178 23.8769 3.2859 23.715L3.02395 25.6977C3.74884 25.7935 4.0692 26.1925 4.11186 26.3521L6.04405 25.8357ZM3.2859 23.715C2.50915 23.6123 1.73555 23.7399 1.1074 24.0812C0.479639 24.4222 -0.0678887 25.0237 -0.168066 25.8523L1.81747 26.0924C1.82074 26.0654 1.84656 25.9557 2.06217 25.8386C2.2774 25.7216 2.61718 25.644 3.02395 25.6977L3.2859 23.715ZM-0.168066 25.8523C-0.302059 26.9606 0.416471 27.8439 1.22111 28.3143L2.23051 26.5877C2.04558 26.4796 1.93116 26.3597 1.87174 26.2644C1.81534 26.174 1.81429 26.1187 1.81747 26.0924L-0.168066 25.8523ZM0.777732 27.133C0.723999 27.2932 0.685948 27.4604 0.665106 27.6328L2.65065 27.8728C2.65515 27.8356 2.66315 27.801 2.67389 27.769L0.777732 27.133ZM0.665106 27.6328C0.498892 29.0075 1.4723 30.2684 2.84705 30.45L3.109 28.4672C2.82425 28.4296 2.61556 28.163 2.65065 27.8728L0.665106 27.6328ZM2.84705 30.45C3.66708 30.5583 4.44617 30.2569 4.97654 29.7047L3.53417 28.3192C3.42769 28.4301 3.2745 28.4891 3.109 28.4672L2.84705 30.45ZM4.609 28.067C4.58211 28.0635 4.55643 28.058 4.53193 28.051L3.97877 29.973C4.09821 30.0074 4.22122 30.0332 4.34705 30.0498L4.609 28.067ZM5.16989 27.6295C5.13583 27.9112 4.88514 28.1035 4.609 28.067L4.34705 30.0498C5.7304 30.2326 6.98819 29.2528 7.15543 27.8696L5.16989 27.6295ZM4.79296 27.0524C5.03586 27.1246 5.20132 27.3696 5.16989 27.6295L7.15543 27.8696C7.30568 26.6268 6.52599 25.4812 5.36295 25.1354L4.79296 27.0524Z" fill="black" mask="url(#path-1-inside-1_512_3512)"/>
<mask id="path-3-inside-2_512_3512" fill="white">
<path fill-rule="evenodd" clip-rule="evenodd" d="M11.1852 26.8667C8.90823 26.5606 7.16061 24.9425 6.865 23.0401C6.38465 23.1782 5.87108 23.2529 5.3374 23.2529C2.65499 23.2529 0.480469 21.365 0.480469 19.0362C0.480469 18.1401 0.802416 17.3093 1.35137 16.6262C0.520888 15.7717 0 14.5426 0 13.1766C0 10.5957 1.85948 8.50351 4.15328 8.50351C4.39993 8.50351 4.64156 8.5277 4.87639 8.57409C4.95765 4.24703 8.58341 0.763672 13.0443 0.763672C16.7854 0.763672 19.9392 3.21369 20.9074 6.55667C21.6107 6.32774 22.3661 6.20337 23.1524 6.20337C26.9344 6.20337 30.0002 9.08018 30.0002 12.6289C30.0002 15.047 28.5767 17.1532 26.4731 18.2497C26.7802 19.0031 26.9498 19.83 26.9498 20.6975C26.9498 24.2059 24.1759 27.05 20.7542 27.05C18.8544 27.05 17.1544 26.1733 16.0179 24.793C15.1337 26.2671 13.2435 27.1434 11.1852 26.8667Z"/>
</mask>
<path d="M6.865 23.0401L7.85314 22.8866L7.67897 21.7657L6.58876 22.079L6.865 23.0401ZM11.1852 26.8667L11.052 27.8578L11.1852 26.8667ZM1.35137 16.6262L2.13085 17.2526L2.68478 16.5633L2.06847 15.9292L1.35137 16.6262ZM4.87639 8.57409L4.6826 9.55513L5.8538 9.78649L5.87622 8.59286L4.87639 8.57409ZM20.9074 6.55667L19.9468 6.83486L20.2343 7.82739L21.2169 7.50757L20.9074 6.55667ZM26.4731 18.2497L26.0109 17.363L25.2034 17.7839L25.5471 18.6272L26.4731 18.2497ZM16.0179 24.793L16.7899 24.1574L15.8892 23.0634L15.1603 24.2786L16.0179 24.793ZM5.87686 23.1937C6.25135 25.6036 8.41031 27.5027 11.052 27.8578L11.3184 25.8756C9.40614 25.6186 8.06987 24.2813 7.85314 22.8866L5.87686 23.1937ZM5.3374 24.2529C5.96453 24.2529 6.57109 24.1651 7.14124 24.0012L6.58876 22.079C6.19822 22.1913 5.77763 22.2529 5.3374 22.2529V24.2529ZM-0.519531 19.0362C-0.519531 22.0453 2.24009 24.2529 5.3374 24.2529V22.2529C3.06989 22.2529 1.48047 20.6847 1.48047 19.0362H-0.519531ZM0.571878 15.9997C-0.106953 16.8445 -0.519531 17.8926 -0.519531 19.0362H1.48047C1.48047 18.3876 1.71179 17.7741 2.13085 17.2526L0.571878 15.9997ZM-1 13.1766C-1 14.7958 -0.382537 16.277 0.634266 17.3231L2.06847 15.9292C1.42431 15.2664 1 14.2894 1 13.1766H-1ZM4.15328 7.50351C1.1996 7.50351 -1 10.1576 -1 13.1766H1C1 11.0339 2.51937 9.50351 4.15328 9.50351V7.50351ZM5.07019 7.59305C4.77206 7.53415 4.46554 7.50351 4.15328 7.50351V9.50351C4.33432 9.50351 4.51105 9.52124 4.6826 9.55513L5.07019 7.59305ZM13.0443 -0.236328C8.06149 -0.236328 3.96849 3.66063 3.87657 8.55531L5.87622 8.59286C5.94682 4.83342 9.10533 1.76367 13.0443 1.76367V-0.236328ZM21.8679 6.27848C20.7749 2.50459 17.227 -0.236328 13.0443 -0.236328V1.76367C16.3437 1.76367 19.1034 3.92278 19.9468 6.83486L21.8679 6.27848ZM23.1524 5.20337C22.2603 5.20337 21.4004 5.34454 20.5979 5.60578L21.2169 7.50757C21.8209 7.31095 22.4719 7.20337 23.1524 7.20337V5.20337ZM31.0002 12.6289C31.0002 8.46889 27.4257 5.20337 23.1524 5.20337V7.20337C26.443 7.20337 29.0002 9.69146 29.0002 12.6289H31.0002ZM26.9354 19.1365C29.3346 17.8858 31.0002 15.4574 31.0002 12.6289H29.0002C29.0002 14.6366 27.8188 16.4205 26.0109 17.363L26.9354 19.1365ZM27.9498 20.6975C27.9498 19.6987 27.7544 18.7438 27.3991 17.8723L25.5471 18.6272C25.806 19.2623 25.9498 19.9612 25.9498 20.6975H27.9498ZM20.7542 28.05C24.7516 28.05 27.9498 24.7344 27.9498 20.6975H25.9498C25.9498 23.6773 23.6002 26.05 20.7542 26.05V28.05ZM15.2459 25.4286C16.5609 27.0257 18.538 28.05 20.7542 28.05V26.05C19.1709 26.05 17.7479 25.3209 16.7899 24.1574L15.2459 25.4286ZM11.052 27.8578C13.4494 28.1801 15.7579 27.1706 16.8755 25.3074L15.1603 24.2786C14.5095 25.3637 13.0376 26.1067 11.3184 25.8756L11.052 27.8578Z" fill="black" mask="url(#path-3-inside-2_512_3512)"/>
<path d="M8.6487 15.2367C8.6487 16.3535 7.88225 17.1896 7.01576 17.1896C6.14926 17.1896 5.38281 16.3535 5.38281 15.2367C5.38281 14.12 6.14926 13.2839 7.01576 13.2839C7.88225 13.2839 8.6487 14.12 8.6487 15.2367Z" fill="#D9D9D9" stroke="black" stroke-width="0.5"/>
<path d="M23.055 15.237C23.055 16.3537 22.2885 17.1898 21.422 17.1898C20.5555 17.1898 19.7891 16.3537 19.7891 15.237C19.7891 14.1203 20.5555 13.2842 21.422 13.2842C22.2885 13.2842 23.055 14.1203 23.055 15.237Z" fill="#D9D9D9" stroke="black" stroke-width="0.5"/>
<path d="M15.8518 15.2367C15.8518 16.3535 15.0854 17.1896 14.2189 17.1896C13.3524 17.1896 12.5859 16.3535 12.5859 15.2367C12.5859 14.12 13.3524 13.2839 14.2189 13.2839C15.0854 13.2839 15.8518 14.12 15.8518 15.2367Z" fill="#D9D9D9" stroke="black" stroke-width="0.5"/>
</svg>
