<svg width="148" height="32" viewBox="0 0 148 32" fill="none" xmlns="http://www.w3.org/2000/svg">
<rect width="148" height="32" rx="16" fill="#F2F1F1"/>
<path d="M24.6967 21.1165V12.5682H26.858V21.1165H24.6967ZM21.5032 17.9229V15.7617H30.0515V17.9229H21.5032Z" fill="#30B4FE"/>
<path d="M47.4726 14.9648H44.8284C44.7801 14.6228 44.6815 14.3189 44.5326 14.0533C44.3837 13.7836 44.1925 13.5542 43.9591 13.3651C43.7256 13.1759 43.456 13.031 43.1501 12.9304C42.8483 12.8298 42.5203 12.7795 42.1661 12.7795C41.5262 12.7795 40.9688 12.9384 40.4939 13.2564C40.019 13.5703 39.6507 14.0291 39.3891 14.6328C39.1275 15.2325 38.9967 15.9609 38.9967 16.8182C38.9967 17.6996 39.1275 18.4401 39.3891 19.0398C39.6547 19.6394 40.025 20.0922 40.4999 20.3981C40.9748 20.704 41.5242 20.8569 42.148 20.8569C42.4981 20.8569 42.8221 20.8106 43.1199 20.718C43.4218 20.6255 43.6894 20.4906 43.9229 20.3136C44.1563 20.1325 44.3495 19.9131 44.5024 19.6555C44.6594 19.398 44.768 19.1042 44.8284 18.7741L47.4726 18.7862C47.4041 19.3537 47.2331 19.901 46.9594 20.4283C46.6898 20.9515 46.3256 21.4203 45.8667 21.8349C45.412 22.2454 44.8686 22.5714 44.2368 22.8129C43.6089 23.0503 42.8986 23.169 42.1057 23.169C41.003 23.169 40.017 22.9195 39.1476 22.4205C38.2823 21.9214 37.5982 21.199 37.0951 20.2532C36.596 19.3074 36.3465 18.1624 36.3465 16.8182C36.3465 15.4699 36.6001 14.3229 37.1072 13.3771C37.6143 12.4313 38.3025 11.7109 39.1718 11.2159C40.0411 10.7169 41.0191 10.4673 42.1057 10.4673C42.8221 10.4673 43.4862 10.5679 44.0979 10.7692C44.7137 10.9704 45.259 11.2642 45.7339 11.6506C46.2088 12.0329 46.5952 12.5018 46.893 13.0572C47.1949 13.6126 47.3881 14.2485 47.4726 14.9648Z" fill="#44A9B1"/>
<path d="M60.7085 16.8182C60.7085 18.1664 60.453 19.3134 59.9419 20.2592C59.4347 21.205 58.7425 21.9274 57.8651 22.4265C56.9918 22.9215 56.0098 23.169 54.9191 23.169C53.8204 23.169 52.8344 22.9195 51.961 22.4205C51.0877 21.9214 50.3975 21.199 49.8904 20.2532C49.3833 19.3074 49.1297 18.1624 49.1297 16.8182C49.1297 15.4699 49.3833 14.3229 49.8904 13.3771C50.3975 12.4313 51.0877 11.7109 51.961 11.2159C52.8344 10.7169 53.8204 10.4673 54.9191 10.4673C56.0098 10.4673 56.9918 10.7169 57.8651 11.2159C58.7425 11.7109 59.4347 12.4313 59.9419 13.3771C60.453 14.3229 60.7085 15.4699 60.7085 16.8182ZM58.0583 16.8182C58.0583 15.9448 57.9275 15.2083 57.6659 14.6087C57.4084 14.009 57.0441 13.5542 56.5732 13.2443C56.1024 12.9344 55.551 12.7795 54.9191 12.7795C54.2873 12.7795 53.7359 12.9344 53.265 13.2443C52.7941 13.5542 52.4279 14.009 52.1663 14.6087C51.9087 15.2083 51.7799 15.9448 51.7799 16.8182C51.7799 17.6915 51.9087 18.428 52.1663 19.0277C52.4279 19.6274 52.7941 20.0821 53.265 20.392C53.7359 20.7019 54.2873 20.8569 54.9191 20.8569C55.551 20.8569 56.1024 20.7019 56.5732 20.392C57.0441 20.0821 57.4084 19.6274 57.6659 19.0277C57.9275 18.428 58.0583 17.6915 58.0583 16.8182ZM110.368 12.7915V10.6364H120.522V12.7915H116.737V23H114.153V12.7915H110.368Z" fill="#E9877A"/>
<path d="M72.9862 10.6364V23H70.7283L65.3494 15.2184H65.2589V23H62.6449V10.6364H64.9389L70.2756 18.4119H70.3842V10.6364H72.9862Z" fill="#E1C86B"/>
<path d="M85.4871 10.6364V23H83.2293L77.8504 15.2184H77.7599V23H75.1459V10.6364H77.4399L82.7765 18.4119H82.8852V10.6364H85.4871Z" fill="#8F979B"/>
<path d="M87.6468 23V10.6364H95.9778V12.7915H90.2608V15.7376H95.5492V17.8928H90.2608V20.8448H96.002V23H87.6468Z" fill="#EA8E82"/>
<path d="M108.965 14.9648H106.321C106.272 14.6228 106.174 14.3189 106.025 14.0533C105.876 13.7836 105.685 13.5542 105.451 13.3651C105.218 13.1759 104.948 13.031 104.642 12.9304C104.34 12.8298 104.012 12.7795 103.658 12.7795C103.018 12.7795 102.461 12.9384 101.986 13.2564C101.511 13.5703 101.143 14.0291 100.881 14.6328C100.62 15.2325 100.489 15.9609 100.489 16.8182C100.489 17.6996 100.62 18.4401 100.881 19.0398C101.147 19.6394 101.517 20.0922 101.992 20.3981C102.467 20.704 103.016 20.8569 103.64 20.8569C103.99 20.8569 104.314 20.8106 104.612 20.718C104.914 20.6255 105.182 20.4906 105.415 20.3136C105.648 20.1325 105.842 19.9131 105.995 19.6555C106.152 19.398 106.26 19.1042 106.321 18.7741L108.965 18.7862C108.896 19.3537 108.725 19.901 108.452 20.4283C108.182 20.9515 107.818 21.4203 107.359 21.8349C106.904 22.2454 106.361 22.5714 105.729 22.8129C105.101 23.0503 104.391 23.169 103.598 23.169C102.495 23.169 101.509 22.9195 100.64 22.4205C99.7745 21.9214 99.0903 21.199 98.5873 20.2532C98.0882 19.3074 97.8387 18.1624 97.8387 16.8182C97.8387 15.4699 98.0922 14.3229 98.5993 13.3771C99.1064 12.4313 99.7947 11.7109 100.664 11.2159C101.533 10.7169 102.511 10.4673 103.598 10.4673C104.314 10.4673 104.978 10.5679 105.59 10.7692C106.206 10.9704 106.751 11.2642 107.226 11.6506C107.701 12.0329 108.087 12.5018 108.385 13.0572C108.687 13.6126 108.88 14.2485 108.965 14.9648Z" fill="#AC89A3"/>
</svg>
