<svg width="69" height="66" viewBox="0 0 69 66" fill="none" xmlns="http://www.w3.org/2000/svg">
<path d="M26.2504 29.2694C26.6718 29.2694 27.1251 29.3568 27.5424 29.4984C27.5159 29.563 27.4897 29.6282 27.464 29.6935C27.3871 29.889 27.3124 30.0916 27.2425 30.3029L26.2082 30.3377L24.0129 30.3377C24.039 30.3076 24.0656 30.278 24.0927 30.2489C24.6982 29.5975 25.4787 29.2694 26.2504 29.2694Z" fill="white" stroke="black" stroke-width="5"/>
<rect x="14.75" y="5.1947" width="38.5" height="34.0553" rx="8.25" fill="black" stroke="black" stroke-width="1.5"/>
<rect x="20.8389" y="32.3077" width="28.0342" height="0.341877" rx="0.170938" fill="white" stroke="white" stroke-width="0.341877"/>
<mask id="path-4-inside-1_7_3784" fill="white">
<path d="M41.3518 32.734C41.3518 30.9886 40.6764 29.3146 39.4742 28.0804C38.2721 26.8462 36.6416 26.1528 34.9415 26.1528C33.2414 26.1528 31.6109 26.8462 30.4088 28.0804C29.2066 29.3146 28.5313 30.9886 28.5313 32.734L34.9415 32.734H41.3518Z"/>
</mask>
<path d="M41.3518 32.734C41.3518 30.9886 40.6764 29.3146 39.4742 28.0804C38.2721 26.8462 36.6416 26.1528 34.9415 26.1528C33.2414 26.1528 31.6109 26.8462 30.4088 28.0804C29.2066 29.3146 28.5313 30.9886 28.5313 32.734L34.9415 32.734H41.3518Z" fill="white" stroke="white" stroke-width="2" mask="url(#path-4-inside-1_7_3784)"/>
<path d="M37.6031 21.7086C37.6031 23.1318 36.4493 24.2855 35.0261 24.2855C33.6029 24.2855 32.4492 23.1318 32.4492 21.7086C32.4492 20.2854 33.6029 19.1317 35.0261 19.1317C36.4493 19.1317 37.6031 20.2854 37.6031 21.7086Z" fill="white" stroke="white"/>
<path d="M44.6105 23.9324C44.6105 24.8836 43.8394 25.6546 42.8882 25.6546C41.9371 25.6546 41.166 24.8836 41.166 23.9324C41.166 22.9813 41.9371 22.2102 42.8882 22.2102C43.8394 22.2102 44.6105 22.9813 44.6105 23.9324Z" fill="white" stroke="white"/>
<path d="M27.5187 23.9324C27.5187 24.8836 26.7476 25.6546 25.7964 25.6546C24.8453 25.6546 24.0742 24.8836 24.0742 23.9324C24.0742 22.9813 24.8453 22.2102 25.7964 22.2102C26.7476 22.2102 27.5187 22.9813 27.5187 23.9324Z" fill="white" stroke="white"/>
<rect x="43.8105" y="0.75" width="2.60256" height="7.21789" rx="1.30128" fill="black" stroke="black" stroke-width="1.5"/>
<rect x="22.2715" y="0.75" width="2.60256" height="7.21789" rx="1.30128" fill="black" stroke="black" stroke-width="1.5"/>
<path d="M14.5137 11.9658H53.659" stroke="black" stroke-width="1.5"/>
<path d="M21.1301 32.3377C21.2386 31.0343 21.7684 29.8117 22.6278 28.8872C23.5952 27.8465 24.8992 27.2694 26.2504 27.2694C27.5379 27.2694 29.1053 27.7871 30.0788 28.6691C29.9721 28.9282 29.8633 29.1753 29.7552 29.4196C29.7454 29.4416 29.7356 29.4637 29.7259 29.4858C29.5874 29.7983 29.4492 30.1104 29.3251 30.4258C29.1043 30.9871 28.9231 31.5708 28.8397 32.2501L26.242 32.3377L21.1301 32.3377Z" fill="white" stroke="white"/>
<path d="M48.6941 32.4053C48.5856 31.1018 48.0559 29.8792 47.1965 28.9547C46.2292 27.914 44.9253 27.3369 43.5742 27.3369C42.2868 27.3369 40.7195 27.8546 39.7461 28.7366C39.8528 28.9957 39.9616 29.2428 40.0697 29.4871C40.0794 29.5091 40.0892 29.5312 40.099 29.5533C40.2374 29.8658 40.3756 30.1779 40.4997 30.4933C40.7205 31.0546 40.9017 31.6383 40.9851 32.3176L43.5826 32.4053L48.6941 32.4053Z" fill="white" stroke="white"/>
<path d="M7.95277 49.0909H9.92898V56.218C9.92898 56.9993 9.74432 57.6864 9.375 58.2795C9.00923 58.8725 8.49432 59.3359 7.83026 59.6697C7.16619 60 6.39027 60.1651 5.50249 60.1651C4.61115 60.1651 3.83345 60 3.16939 59.6697C2.50533 59.3359 1.99041 58.8725 1.62464 58.2795C1.25888 57.6864 1.07599 56.9993 1.07599 56.218V49.0909H3.0522V56.0529C3.0522 56.5075 3.15163 56.9123 3.3505 57.2674C3.55291 57.6225 3.837 57.9013 4.20277 58.1037C4.56854 58.3026 5.00178 58.402 5.50249 58.402C6.0032 58.402 6.43643 58.3026 6.8022 58.1037C7.17152 57.9013 7.45561 57.6225 7.65447 57.2674C7.85334 56.9123 7.95277 56.5075 7.95277 56.0529V49.0909ZM13.92 55.206V60H11.9917V51.8182H13.8348V53.2085H13.9307C14.1189 52.7504 14.4189 52.3864 14.8309 52.1165C15.2464 51.8466 15.7595 51.7116 16.3703 51.7116C16.9349 51.7116 17.4268 51.8324 17.8458 52.0739C18.2684 52.3153 18.5951 52.6651 18.8259 53.1232C19.0603 53.5813 19.1757 54.1371 19.1721 54.7905V60H17.2439V55.0888C17.2439 54.5419 17.1018 54.114 16.8177 53.805C16.5372 53.4961 16.1483 53.3416 15.6512 53.3416C15.3138 53.3416 15.0138 53.4162 14.751 53.5653C14.4917 53.7109 14.2876 53.9222 14.1384 54.1992C13.9928 54.4762 13.92 54.8118 13.92 55.206ZM21.1324 60V51.8182H23.0606V60H21.1324ZM22.1018 50.657C21.7964 50.657 21.5336 50.5558 21.3135 50.3533C21.0933 50.1474 20.9832 49.9006 20.9832 49.6129C20.9832 49.3217 21.0933 49.0749 21.3135 48.8725C21.5336 48.6665 21.7964 48.5636 22.1018 48.5636C22.4108 48.5636 22.6736 48.6665 22.8902 48.8725C23.1104 49.0749 23.2204 49.3217 23.2204 49.6129C23.2204 49.9006 23.1104 50.1474 22.8902 50.3533C22.6736 50.5558 22.4108 50.657 22.1018 50.657ZM25.0435 60V51.8182H26.8865V53.2085H26.9824C27.1529 52.7397 27.4352 52.3739 27.8294 52.1112C28.2235 51.8448 28.6941 51.7116 29.2409 51.7116C29.7949 51.7116 30.2619 51.8466 30.6419 52.1165C31.0254 52.3828 31.2953 52.7468 31.4515 53.2085H31.5368C31.7179 52.7539 32.0233 52.3917 32.4529 52.1218C32.8862 51.8484 33.3993 51.7116 33.9924 51.7116C34.7452 51.7116 35.3596 51.9496 35.8354 52.4254C36.3113 52.9013 36.5492 53.5955 36.5492 54.5082V60H34.6156V54.8065C34.6156 54.2987 34.4806 53.9276 34.2108 53.6932C33.9409 53.4553 33.6106 53.3363 33.22 53.3363C32.7548 53.3363 32.3908 53.4819 32.128 53.7731C31.8688 54.0607 31.7392 54.4354 31.7392 54.897V60H29.8482V54.7266C29.8482 54.304 29.7203 53.9666 29.4647 53.7145C29.2125 53.4624 28.8823 53.3363 28.4739 53.3363C28.1969 53.3363 27.9448 53.4073 27.7175 53.5494C27.4902 53.6879 27.3091 53.8849 27.1742 54.1406C27.0392 54.3928 26.9718 54.6875 26.9718 55.0249V60H25.0435ZM40.8598 60.1651C40.3414 60.1651 39.8744 60.0728 39.4589 59.8881C39.047 59.6999 38.7203 59.4229 38.4788 59.0572C38.2409 58.6914 38.1219 58.2404 38.1219 57.7042C38.1219 57.2425 38.2071 56.8608 38.3776 56.5589C38.548 56.2571 38.7806 56.0156 39.0754 55.8345C39.3701 55.6534 39.7021 55.5167 40.0715 55.4244C40.4443 55.3285 40.8296 55.2592 41.2274 55.2166C41.7068 55.1669 42.0956 55.1225 42.3939 55.0835C42.6922 55.0408 42.9088 54.9769 43.0438 54.8917C43.1823 54.8029 43.2515 54.6662 43.2515 54.4815V54.4496C43.2515 54.0483 43.1325 53.7376 42.8946 53.5174C42.6567 53.2972 42.314 53.1871 41.8666 53.1871C41.3943 53.1871 41.0196 53.2901 40.7426 53.4961C40.4692 53.7021 40.2845 53.9453 40.1887 54.2259L38.3882 53.9702C38.5303 53.473 38.7646 53.0575 39.0914 52.7237C39.4181 52.3864 39.8176 52.1342 40.2899 51.9673C40.7622 51.7969 41.2842 51.7116 41.8559 51.7116C42.2501 51.7116 42.6425 51.7578 43.0331 51.8501C43.4237 51.9425 43.7806 52.0952 44.1038 52.3082C44.4269 52.5178 44.6862 52.8036 44.8815 53.1658C45.0803 53.5281 45.1798 53.9808 45.1798 54.5241V60H43.3261V58.8761H43.2622C43.145 59.1033 42.9798 59.3164 42.7668 59.5153C42.5573 59.7106 42.2927 59.8686 41.9731 59.9893C41.657 60.1065 41.286 60.1651 40.8598 60.1651ZM41.3605 58.7482C41.7476 58.7482 42.0832 58.6719 42.3673 58.5192C42.6514 58.3629 42.8698 58.157 43.0225 57.9013C43.1787 57.6456 43.2568 57.3668 43.2568 57.065V56.1009C43.1965 56.1506 43.0935 56.1967 42.9479 56.2393C42.8058 56.282 42.646 56.3192 42.4685 56.3512C42.2909 56.3832 42.1151 56.4116 41.9411 56.4364C41.7671 56.4613 41.6162 56.4826 41.4884 56.5004C41.2007 56.5394 40.9433 56.6033 40.716 56.6921C40.4887 56.7809 40.3094 56.9052 40.178 57.065C40.0466 57.2212 39.9809 57.4237 39.9809 57.6722C39.9809 58.0273 40.1105 58.2955 40.3698 58.4766C40.629 58.6577 40.9593 58.7482 41.3605 58.7482ZM51.2043 51.8182V53.3097H46.5008V51.8182H51.2043ZM47.662 49.858H49.5903V57.5391C49.5903 57.7983 49.6294 57.9972 49.7075 58.1357C49.7892 58.2706 49.8957 58.3629 50.0271 58.4126C50.1585 58.4624 50.3041 58.4872 50.4639 58.4872C50.5846 58.4872 50.6947 58.4783 50.7941 58.4606C50.8971 58.4428 50.9752 58.4268 51.0285 58.4126L51.3534 59.9201C51.2504 59.9556 51.1031 59.9947 50.9113 60.0373C50.7231 60.0799 50.4923 60.1048 50.2188 60.1119C49.7359 60.1261 49.3009 60.0533 48.9138 59.8935C48.5267 59.7301 48.2195 59.478 47.9923 59.1371C47.7686 58.7962 47.6585 58.37 47.662 57.8587V49.858ZM56.2979 60.1598C55.4812 60.1598 54.7798 59.9805 54.1939 59.6218C53.6115 59.2631 53.1623 58.7678 52.8462 58.1357C52.5337 57.5 52.3775 56.7685 52.3775 55.9411C52.3775 55.1101 52.5373 54.3768 52.8569 53.7411C53.1765 53.1019 53.6275 52.6048 54.2099 52.2496C54.7958 51.891 55.4883 51.7116 56.2873 51.7116C56.9513 51.7116 57.5391 51.8342 58.0504 52.0792C58.5653 52.3207 58.9755 52.6634 59.2809 53.1072C59.5863 53.5476 59.7603 54.0625 59.8029 54.652H57.9599C57.8853 54.2578 57.7077 53.9293 57.4272 53.6665C57.1502 53.4002 56.7791 53.267 56.3139 53.267C55.9197 53.267 55.5735 53.3736 55.2752 53.5866C54.9769 53.7962 54.7443 54.098 54.5774 54.4922C54.4141 54.8864 54.3324 55.3587 54.3324 55.9091C54.3324 56.4666 54.4141 56.946 54.5774 57.3473C54.7408 57.745 54.9698 58.0522 55.2646 58.2688C55.5629 58.4819 55.9126 58.5884 56.3139 58.5884C56.598 58.5884 56.8519 58.5352 57.0756 58.4286C57.3029 58.3185 57.4929 58.1605 57.6456 57.9545C57.7983 57.7486 57.9031 57.4982 57.9599 57.2035H59.8029C59.7567 57.7823 59.5863 58.2955 59.2915 58.7429C58.9968 59.1868 58.5955 59.5348 58.0877 59.7869C57.5799 60.0355 56.9833 60.1598 56.2979 60.1598ZM63.3145 55.206V60H61.3863V49.0909H63.2719V53.2085H63.3678C63.5596 52.7468 63.8561 52.3828 64.2574 52.1165C64.6622 51.8466 65.1771 51.7116 65.8021 51.7116C66.3703 51.7116 66.8657 51.8306 67.2883 52.0685C67.7108 52.3065 68.0376 52.6545 68.2684 53.1126C68.5028 53.5707 68.6199 54.13 68.6199 54.7905V60H66.6917V55.0888C66.6917 54.5384 66.5496 54.1104 66.2655 53.805C65.985 53.4961 65.5908 53.3416 65.083 53.3416C64.7421 53.3416 64.4367 53.4162 64.1668 53.5653C63.9005 53.7109 63.691 53.9222 63.5383 54.1992C63.3891 54.4762 63.3145 54.8118 63.3145 55.206Z" fill="black"/>
</svg>
