<svg width="30" height="40" viewBox="0 0 30 40" fill="none" xmlns="http://www.w3.org/2000/svg">
<path d="M5.22014 10.172L5.22004 10.1721C3.99171 12.1568 3.32305 14.6368 3.25381 17.5539V17.5539V17.5539V17.554V17.554V17.554V17.5541V17.5541V17.5542V17.5542V17.5542V17.5543V17.5543V17.5543V17.5544V17.5544V17.5545V17.5545V17.5545V17.5546V17.5546V17.5546V17.5547V17.5547V17.5548V17.5548V17.5548V17.5549V17.5549V17.5549V17.555V17.555V17.5551V17.5551V17.5551V17.5552V17.5552V17.5553V17.5553V17.5553V17.5554V17.5554V17.5554V17.5555V17.5555V17.5556V17.5556V17.5556V17.5557V17.5557V17.5557V17.5558V17.5558V17.5559V17.5559V17.5559V17.556V17.556V17.556V17.5561V17.5561V17.5562V17.5562V17.5562V17.5563V17.5563V17.5563V17.5564V17.5564V17.5565V17.5565V17.5565V17.5566V17.5566V17.5567V17.5567V17.5567V17.5568V17.5568V17.5568V17.5569V17.5569V17.557V17.557V17.557V17.5571V17.5571V17.5571V17.5572V17.5572V17.5573V17.5573V17.5573V17.5574V17.5574V17.5575V17.5575V17.5575V17.5576V17.5576V17.5576V17.5577V17.5577V17.5578V17.5578V17.5578V17.5579V17.5579V17.5579V17.558V17.558V17.5581V17.5581V17.5581V17.5582V17.5582V17.5582V17.5583V17.5583V17.5584V17.5584V17.5584V17.5585V17.5585V17.5586V17.5586V17.5586V17.5587V17.5587V17.5587V17.5588V17.5588V17.5589V17.5589V17.5589V17.559V17.559V17.559V17.5591V17.5591V17.5592V17.5592V17.5592V17.5593V17.5593V17.5594V17.5594V17.5594V17.5595V17.5595V17.5595V17.5596V17.5596V17.5597V17.5597V17.5597V17.5598V17.5598V17.5598V17.5599V17.5599V17.56V17.56V17.56V17.5601V17.5601V17.5602V17.5602V17.5602V17.5603V17.5603V17.5603V17.5604V17.5604V17.5605V17.5605V17.5605V17.5606V17.5606V17.5606V17.5607V17.5607V17.5608V17.5608V17.5608V17.5609V17.5609V17.5609V17.561V17.561V17.5611V17.5611V17.5611V17.5612V17.5612V17.5613V17.5613V17.5613V17.5614V17.5614V17.5614V17.5615V17.5615V17.5616V17.5616V17.5616V17.5617V17.5617V17.5617V17.5618V17.5618V17.5619V17.5619V17.5619V17.562V17.562V17.562V17.5621V17.5621V17.5622V17.5622V17.5622V17.5623V17.5623V17.5624V17.5624V17.5624V17.5625V17.5625V17.5625V17.5626V17.5626V17.5627V17.5627V17.5627V17.5628V17.5628V17.5628V17.5629V17.5629V17.563V17.563V17.563V17.5631V17.5631V17.5631V17.5632V17.5632V17.5633V17.5633V17.5633V17.5634V17.5634V17.5634V17.5635V17.5635V17.5636V17.5636V17.5636V17.5637V17.5637V17.5637V17.5638V17.5638V17.5639V17.5639V17.5639V17.564V17.564V17.564V17.5641V17.5641V17.5642V17.5642V17.5642V17.5643V17.5643V17.5644V17.5644V17.5644V17.5645V17.5645V17.5645V17.5646V17.5646V17.5647V17.5647V17.5647V17.5648V17.5648V17.5648V17.5649V17.5649V17.5649V17.565V17.565V17.5651V17.5651V17.5651V17.5652V17.5652V17.5652V17.5653V17.5653V17.5654V17.5654V17.5654V17.5655V17.5655V17.5655V17.5656V17.5656V17.5657V17.5657V17.5657V17.5658V17.5658V17.5658V17.5659V17.5659V17.566V17.566V17.566V17.5661V17.5661V17.5661V17.5662V17.5662V17.5663V17.5663V17.5663V17.5664V17.5664V17.5664V17.5665V17.5665V17.5666V17.5666V17.5666V17.5667V17.5667V17.5667V17.5668V17.5668V17.5668V17.5669V17.5669V17.567V17.567V17.567V17.5671V17.5671V17.5671V17.5672V17.5672V17.5673V17.5673V17.5673V17.5674V17.5674V17.5674V17.5675V17.5675V17.5676V17.5676V17.5676V17.5677V17.5677V17.5677V17.5678V17.5678V17.5678V17.5679V17.5679V17.568V17.568V17.568V17.5681V17.5681V17.5681V17.5682V17.5682V17.5683V17.5683V17.5683V17.5684V23.4058V23.4068H2.85381C2.854 23.436 2.85002 23.465 2.842 23.4929L5.22014 10.172ZM5.22014 10.172C6.21105 8.56927 7.56726 7.27891 9.25584 6.3348L9.25589 6.33477M5.22014 10.172L9.25589 6.33477M9.25589 6.33477C12.098 4.74517 14.8784 4.69594 14.9954 4.6948H15.0064C15.0955 4.6948 17.8887 4.73959 20.7443 6.33487C22.4328 7.27898 23.789 8.56931 24.7799 10.172L24.7799 10.172M9.25589 6.33477L24.7799 10.172M24.7799 10.172C26.0083 12.1587 26.677 14.6388 26.7462 17.5539M24.7799 10.172L26.7462 17.5539M3.90732 17.5688L3.90743 17.5688C4.02623 12.6462 5.89009 9.06379 9.4962 7.02358L9.4963 7.02352C12.1528 5.52161 14.8257 5.43731 14.9914 5.43337L15 5.43317L15.0085 5.43333C15.1863 5.43673 17.8075 5.5175 20.4569 6.9965L20.4571 6.99663C24.0966 9.03168 25.9751 12.6245 26.0953 17.5687L26.0955 17.5785H26.0954V23.4063V23.4065C26.0954 23.5489 26.115 23.6904 26.1534 23.8263C26.4366 24.8209 27.4602 28.2227 28.8609 30.7256C28.9206 30.8307 28.9512 30.9493 28.9512 31.0688C28.9512 31.1866 28.9215 31.3035 28.8634 31.4075C28.8067 31.5133 28.723 31.6043 28.6185 31.669C28.5119 31.735 28.3887 31.7705 28.2618 31.7698M3.90732 17.5688L28.26 31.7698C28.2606 31.7698 28.2612 31.7698 28.2618 31.7698M3.90732 17.5688V17.5785M3.90732 17.5688V17.5785M28.2618 31.7698H1.74096M28.2618 31.7698H1.74096M1.74096 31.7698H1.73949V31.3698L1.74096 31.7698ZM3.90732 17.5785V23.4068L3.90732 23.407M3.90732 17.5785L3.90732 23.407M3.90732 23.407C3.9074 23.5492 3.88772 23.6904 3.84907 23.826L3.84898 23.8264M3.90732 23.407L3.84898 23.8264M3.84898 23.8264C3.64765 24.5352 2.57964 28.1594 1.14201 30.7253C1.0822 30.8305 1.05148 30.9492 1.05148 31.0688C1.05148 31.1866 1.08126 31.3035 1.13928 31.4075C1.19604 31.5133 1.27974 31.6043 1.38427 31.669L1.59481 31.3289L3.84898 23.8264ZM26.7462 17.5539V17.5539V17.5539V17.554V17.554V17.554V17.5541V17.5541V17.5542V17.5542V17.5542V17.5543V17.5543V17.5543V17.5544V17.5544V17.5545V17.5545V17.5545V17.5546V17.5546V17.5546V17.5547V17.5547V17.5548V17.5548V17.5548V17.5549V17.5549V17.5549V17.555V17.555V17.5551V17.5551V17.5551V17.5552V17.5552V17.5553V17.5553V17.5553V17.5554V17.5554V17.5554V17.5555V17.5555V17.5556V17.5556V17.5556V17.5557V17.5557V17.5557V17.5558V17.5558V17.5559V17.5559V17.5559V17.556V17.556V17.556V17.5561V17.5561V17.5562V17.5562V17.5562V17.5563V17.5563V17.5563V17.5564V17.5564V17.5565V17.5565V17.5565V17.5566V17.5566V17.5567V17.5567V17.5567V17.5568V17.5568V17.5568V17.5569V17.5569V17.557V17.557V17.557V17.5571V17.5571V17.5571V17.5572V17.5572V17.5573V17.5573V17.5573V17.5574V17.5574V17.5575V17.5575V17.5575V17.5576V17.5576V17.5576V17.5577V17.5577V17.5578V17.5578V17.5578V17.5579V17.5579V17.5579V17.558V17.558V17.5581V17.5581V17.5581V17.5582V17.5582V17.5582V17.5583V17.5583V17.5584V17.5584V17.5584V17.5585V17.5585V17.5586V17.5586V17.5586V17.5587V17.5587V17.5587V17.5588V17.5588V17.5589V17.5589V17.5589V17.559V17.559V17.559V17.5591V17.5591V17.5592V17.5592V17.5592V17.5593V17.5593V17.5594V17.5594V17.5594V17.5595V17.5595V17.5595V17.5596V17.5596V17.5597V17.5597V17.5597V17.5598V17.5598V17.5598V17.5599V17.5599V17.56V17.56V17.56V17.5601V17.5601V17.5602V17.5602V17.5602V17.5603V17.5603V17.5603V17.5604V17.5604V17.5605V17.5605V17.5605V17.5606V17.5606V17.5606V17.5607V17.5607V17.5608V17.5608V17.5608V17.5609V17.5609V17.5609V17.561V17.561V17.5611V17.5611V17.5611V17.5612V17.5612V17.5613V17.5613V17.5613V17.5614V17.5614V17.5614V17.5615V17.5615V17.5616V17.5616V17.5616V17.5617V17.5617V17.5617V17.5618V17.5618V17.5619V17.5619V17.5619V17.562V17.562V17.562V17.5621V17.5621V17.5622V17.5622V17.5622V17.5623V17.5623V17.5624V17.5624V17.5624V17.5625V17.5625V17.5625V17.5626V17.5626V17.5627V17.5627V17.5627V17.5628V17.5628V17.5628V17.5629V17.5629V17.563V17.563V17.563V17.5631V17.5631V17.5631V17.5632V17.5632V17.5633V17.5633V17.5633V17.5634V17.5634V17.5634V17.5635V17.5635V17.5636V17.5636V17.5636V17.5637V17.5637V17.5637V17.5638V17.5638V17.5639V17.5639V17.5639V17.564V17.564V17.564V17.5641V17.5641V17.5642V17.5642V17.5642V17.5643V17.5643V17.5644V17.5644V17.5644V17.5645V17.5645V17.5645V17.5646V17.5646V17.5647V17.5647V17.5647V17.5648V17.5648V17.5648V17.5649V17.5649V17.5649V17.565V17.565V17.5651V17.5651V17.5651V17.5652V17.5652V17.5652V17.5653V17.5653V17.5654V17.5654V17.5654V17.5655V17.5655V17.5655V17.5656V17.5656V17.5657V17.5657V17.5657V17.5658V17.5658V17.5658V17.5659V17.5659V17.566V17.566V17.566V17.5661V17.5661V17.5661V17.5662V17.5662V17.5663V17.5663V17.5663V17.5664V17.5664V17.5664V17.5665V17.5665V17.5666V17.5666V17.5666V17.5667V17.5667V17.5667V17.5668V17.5668V17.5668V17.5669V17.5669V17.567V17.567V17.567V17.5671V17.5671V17.5671V17.5672V17.5672V17.5673V17.5673V17.5673V17.5674V17.5674V17.5674V17.5675V17.5675V17.5676V17.5676V17.5676V17.5677V17.5677V17.5677V17.5678V17.5678V17.5678V17.5679V17.5679V17.568V17.568V17.568V17.5681V17.5681V17.5681V17.5682V17.5682V17.5683V17.5683V17.5683V17.5684V23.4055V23.4068H27.1462M26.7462 17.5539L27.158 23.4929M27.1462 23.4068C27.1459 23.436 27.1499 23.465 27.158 23.4929M27.1462 23.4068V17.5684V17.5491V23.4068ZM27.158 23.4929L26.7732 23.6021M27.158 23.4929L26.7738 23.6042C26.7736 23.6035 26.7734 23.6028 26.7732 23.6021M26.7732 23.6021C26.9654 24.2794 28.0094 27.8293 29.4106 30.3334M26.7732 23.6021L29.4106 30.3334M29.4106 30.3334C29.5326 30.553 29.5985 30.8046 29.6 31.0623C29.6015 31.3203 29.5384 31.5729 29.4187 31.7943C29.299 32.0156 29.1277 32.1965 28.9246 32.321C28.722 32.4451 28.4939 32.5094 28.2632 32.5092L29.4106 30.3334ZM0.589386 30.3335C1.99158 27.8296 3.03393 24.2816 3.22661 23.6028L28.2621 32.5092H28.2614H1.73859H1.73794C1.50687 32.5096 1.27838 32.4453 1.07542 32.321C0.872257 32.1965 0.701008 32.0156 0.581336 31.7943C0.461602 31.5729 0.398541 31.3203 0.400026 31.0623C0.401509 30.8046 0.467365 30.5531 0.589386 30.3335ZM28.5125 31.2155C28.5379 31.1713 28.5512 31.1205 28.5512 31.0688C28.5512 31.0171 28.5379 30.9664 28.5125 30.9222V31.2155Z" stroke="black" stroke-width="0.8"/>
<path d="M10.4316 32.5091H10.0316V32.9091V33.6389C10.0316 35.0169 10.5484 36.3427 11.4749 37.3237C12.4021 38.3054 13.6647 38.8615 14.9865 38.8615C16.3082 38.8615 17.5708 38.3054 18.498 37.3237C19.4245 36.3427 19.9413 35.0169 19.9413 33.6389V32.9091V32.5091H19.5413H10.4316ZM11.5014 6.1024C11.4224 6.1024 11.3417 6.06939 11.2785 6.00245C11.2145 5.93472 11.1749 5.83824 11.1749 5.73317V4.45913C11.1749 3.37545 11.5817 2.34042 12.2992 1.58071C13.016 0.821769 13.9832 0.4 14.9865 0.4C15.9897 0.4 16.9569 0.821769 17.6737 1.58071C18.3912 2.34042 18.798 3.37545 18.798 4.45913V5.70913C18.798 5.8142 18.7584 5.91069 18.6945 5.97841C18.6312 6.04535 18.5505 6.07837 18.4715 6.07837C18.3925 6.07837 18.3118 6.04535 18.2486 5.97841C18.1846 5.91069 18.145 5.8142 18.145 5.70913V4.45913C18.145 3.58557 17.8174 2.74352 17.2278 2.11925C16.6375 1.49421 15.8318 1.13846 14.9865 1.13846C14.1411 1.13846 13.3354 1.49421 12.7451 2.11925C12.1555 2.74352 11.8279 3.58557 11.8279 4.45913V5.73317C11.8279 5.83824 11.7883 5.93472 11.7243 6.00245C11.6611 6.06939 11.5804 6.1024 11.5014 6.1024ZM14.9865 39.6C11.916 39.6 9.37852 36.9475 9.37852 33.6389V32.1399C9.37852 32.0348 9.41815 31.9384 9.48211 31.8706C9.54534 31.8037 9.62605 31.7707 9.70504 31.7707H20.2679C20.3469 31.7707 20.4276 31.8037 20.4908 31.8706C20.5548 31.9384 20.5944 32.0348 20.5944 32.1399V33.6389C20.5944 36.9476 18.059 39.6 14.9865 39.6Z" stroke="black" stroke-width="0.8"/>
</svg>
